<svg width="168" height="165" viewBox="0 0 168 165" fill="none" xmlns="http://www.w3.org/2000/svg">
<path fill-rule="evenodd" clip-rule="evenodd" d="M126.04 89.4945C124.758 85.8743 123.579 84.3394 121.303 83.0811C119.173 81.9041 116.064 80.9157 111.528 80.1936C106.803 79.592 106.669 77.8038 105.484 74.9297C105.139 74.0657 103.426 73.8358 102.687 74.4585C102.583 74.3766 102.474 74.3016 102.362 74.2338C102.462 73.8218 101.638 72.6407 101.666 72.2465C101.953 68.1323 100.105 66.0663 95.4928 65.2982C94.4898 65.1311 87.6765 65.0328 86.6984 65.2297C82.4227 66.0906 78.2136 68.8238 78.8578 72.1163C77.5156 73.3936 76.2021 74.1732 74.1314 74.5847C70.9068 74.8828 72.5267 108.15 78.127 128.081C80.5299 136.632 137.985 122.077 135.389 117.794C135.757 117.009 135.086 116.147 135.389 115.336C135.608 114.749 136.169 114.507 136.451 113.926C136.849 113.108 136.417 112.011 135.969 111.177C135.786 110.761 136.307 110.314 136.451 109.89C137.138 107.889 135.566 108.065 134.432 106.727C134.449 106.723 134.744 105.768 134.743 105.773C134.916 105.091 134.482 104.218 134.102 103.648C133.846 103.264 133.297 103.023 132.751 103.067C133.301 101.709 133.996 100.579 134.743 99.2701C136.064 96.9635 137.321 94.5506 139.218 92.4627C139.995 91.6078 139.368 90.8215 138.11 90.7633C134.04 90.5749 130.015 90.1482 126.04 89.4945Z" fill="#AE5D29"/>
<path fill-rule="evenodd" clip-rule="evenodd" d="M119.686 89.7742L110.396 101.225C110.396 101.225 112.6 101.385 113.492 101.697C114.384 102.009 118.479 105.801 118.479 105.801L119.13 107.889L117.588 109.572L118.189 110.629C118.189 110.629 118.618 109.913 119.686 109.357C120.754 108.801 123.11 107.889 123.11 107.889C123.11 107.889 122.327 107.584 122.327 107.226C122.327 106.867 121.638 105.34 123.11 104.763C124.582 104.186 132.191 102.835 132.191 102.835L139.901 90.9904L119.686 89.7742Z" fill="#EC7495"/>
<path fill-rule="evenodd" clip-rule="evenodd" d="M78.2407 74.6624L107.742 78.4331L121.303 83.0811L123.516 84.3231L110.396 101.225L90.1359 103.917L84.9743 113.68L86.0279 124.686L118.986 121.824L133.203 120.594L136.545 130.42L135.941 134.462L135.063 136.512L99.819 143.441C99.819 143.441 81.8722 142.174 78.6908 142.174C75.5094 142.174 52.1841 143.861 52.1841 143.861L46.7873 143.441C46.7873 143.441 34.8468 134.276 32.9949 131.014C31.1429 127.752 27.1382 107.924 27.1382 107.924L27.5791 104.878L37.8954 85.5433C37.8954 85.5433 39.273 84.6323 41.0098 83.0811C42.7466 81.5299 78.2407 74.6624 78.2407 74.6624Z" fill="#9DDADB"/>
<path fill-rule="evenodd" clip-rule="evenodd" d="M131.634 102.591C128.968 102.69 126.299 103.152 123.888 103.988C122.901 104.331 122.007 104.826 121.745 105.64C121.613 106.055 121.645 106.485 121.716 106.905C121.769 107.223 121.782 107.629 122.161 107.844C122.226 107.88 122.295 107.908 122.367 107.928C121.477 108.221 120.63 108.572 119.877 108.934C119.189 109.265 118.482 109.775 118.164 110.35C118.138 110.285 118.111 110.224 118.085 110.166C117.544 109.001 116.71 108.046 115.397 107.405C115.248 107.009 113.647 105.305 112.161 105.37C110.533 105.439 109.224 105.526 107.751 106.071C107.215 106.063 106.679 106.068 106.15 106.085C106.059 106.087 106.063 106.177 106.15 106.185C106.58 106.224 107.009 106.268 107.438 106.32C108.459 106.439 109.476 106.59 110.472 106.777C111.666 107.002 112.901 107.228 114.017 107.621C116.182 108.385 117.522 110.381 117.247 112.118C117.201 112.403 117.05 113.264 116.507 113.176C116.048 113.101 115.866 112.403 115.706 112.145C115.276 111.46 114.503 111.012 113.575 110.709C112.485 110.352 111.319 110.111 110.19 109.831C109.55 109.671 108.91 109.511 108.269 109.353C107.613 109.189 106.99 108.963 106.291 109.078C105.869 109.147 105.821 109.514 106.057 109.724C106.418 110.044 106.953 110.138 107.472 110.27C108.157 110.443 108.841 110.617 109.525 110.79C110.582 111.058 111.69 111.284 112.72 111.612L112.688 111.665C112.604 111.648 112.506 111.709 112.522 111.784C112.676 112.477 112.891 113.278 112.653 113.973C112.465 114.523 111.801 115.133 110.94 114.971C111.075 114.881 111.125 114.725 111.034 114.582C110.692 114.051 106.222 111.953 105.824 112.732C105.81 112.76 105.851 112.78 105.884 112.776C106.224 112.725 106.793 113.147 107.065 113.281C107.457 113.473 107.856 113.662 108.244 113.86C108.669 114.076 109.084 114.304 109.488 114.538C109.806 114.722 110.046 114.914 110.41 115.007C110.219 115.074 110.067 115.197 110.003 115.354C109.838 115.764 109.521 116.112 108.969 116.294C108.391 116.482 107.74 116.363 107.131 116.409C106.302 116.47 105.578 116.757 104.974 117.168C103.705 118.031 103.068 119.552 101.293 119.96C100.233 120.203 99.0563 120.05 97.9828 119.939C96.7843 119.816 95.6167 119.719 94.4094 119.847C93.2536 119.971 92.161 120.262 91.1051 120.617C90.1155 120.95 89.0214 121.328 88.1435 121.824C87.9626 121.418 87.7803 121.017 87.6419 120.602C87.3156 119.622 87.1391 118.624 87.0963 117.617C87.0568 116.659 87.1303 115.696 87.2434 114.741C87.2994 114.265 87.3876 113.79 87.4435 113.314C87.4581 113.194 87.4876 113.065 87.5097 112.937C89.0773 112.263 90.7241 111.747 92.3844 111.216C92.3889 111.215 92.3933 111.212 92.3977 111.211C92.4492 111.194 92.4992 111.178 92.5507 111.162C92.5492 111.16 92.5477 111.158 92.5448 111.156C92.7345 111.071 92.8668 110.958 92.9463 110.832C95.3388 109.676 97.3387 108.099 98.8298 106.259C99.4548 105.487 100.056 104.687 100.874 104.012C101.744 103.291 102.778 102.862 104.058 102.64C105.553 102.378 107.094 102.222 108.627 102.133C109.463 102.085 110.398 102.01 111.31 102.013C111.945 102.016 112.567 102.056 113.138 102.17C113.984 102.34 114.478 102.808 115.009 103.281C115.516 103.735 116.02 104.191 116.494 104.664C116.942 105.113 117.366 105.576 117.733 106.063C117.954 106.354 118.158 106.654 118.331 106.963C118.391 107.073 118.47 107.197 118.507 107.31C118.544 107.425 118.476 107.546 118.653 107.546C117.925 107.554 117.441 108.876 118.164 108.845C119.182 108.801 119.693 107.913 119.494 107.125C119.138 105.719 117.218 104.021 116.838 103.661C115.998 102.867 115.132 101.83 113.788 101.46C113.769 101.455 113.748 101.45 113.729 101.445C114.12 101.175 114.429 100.852 114.725 100.523C115.029 100.185 115.392 99.7969 115.492 99.3953C115.556 99.1394 115.119 98.9936 114.912 99.2175C114.61 99.5442 114.465 99.9576 114.24 100.316C114.01 100.681 113.731 101.024 113.51 101.392C112.979 101.273 112.406 101.218 111.822 101.2C112.559 100.474 113.817 99.0729 113.969 98.8929C114.666 98.0597 115.329 97.2008 115.963 96.3406C116.648 95.4088 117.235 94.4384 117.891 93.4959C118.263 92.9615 118.638 92.4226 119.051 91.9043C119.194 91.7265 119.347 91.5487 119.52 91.3869C119.554 91.3549 119.597 91.3281 119.636 91.298C119.682 91.2798 119.729 91.2595 119.755 91.2489C119.994 91.1493 120.078 90.9179 120.245 90.7711C120.513 90.5345 120.827 90.5066 121.23 90.5033C122.089 90.4969 122.951 90.5215 123.808 90.5386C125.068 90.5644 126.327 90.6008 127.586 90.649C127.967 90.664 128.346 90.679 128.727 90.6961C130.558 90.7755 132.387 90.8792 134.212 91.0068C135.827 91.1192 137.442 91.3024 139.058 91.3902C136.869 95.1765 134.443 98.8941 131.696 102.482C131.668 102.518 131.647 102.555 131.634 102.591ZM119.494 112.346C119.141 112.463 118.798 112.61 118.479 112.777C118.532 112.517 118.545 112.243 118.53 111.967C118.794 112.173 119.13 112.291 119.494 112.346ZM134.559 105.832C134.534 105.835 134.511 105.844 134.499 105.862C134.011 106.596 134.215 107.415 135.012 107.991C135.43 108.29 136.34 108.629 136.311 109.122C136.286 109.52 135.69 109.854 135.436 110.183C135.199 110.489 135.111 110.826 135.3 111.158C135.543 111.583 136.221 111.752 136.453 112.17C136.747 112.7 136.269 113.34 135.934 113.801C135.622 114.228 135.219 114.656 134.952 115.108C133.159 115.784 129.092 117.011 128.602 117.08C128.005 117.164 127.407 117.245 126.806 117.32C125.655 117.465 124.501 117.6 123.344 117.719C122.685 117.787 122.024 117.853 121.364 117.905C120.788 117.95 120.138 118.011 119.673 117.696C118.736 117.057 119.261 115.987 119.854 115.342C119.866 115.33 119.866 115.318 119.861 115.307C120.42 115.212 120.977 115.1 121.533 115.022C122.602 114.872 123.679 114.746 124.757 114.633C126.971 114.403 129.201 114.251 131.427 114.098C131.978 114.059 131.984 113.427 131.427 113.465C128.228 113.678 125.014 113.88 121.858 114.329C121.067 114.441 120.282 114.567 119.501 114.709C119.132 114.776 118.736 114.88 118.35 114.883C118.326 114.883 118.302 114.883 118.279 114.882C117.522 114.865 117.411 114.392 117.828 113.999C117.879 113.951 117.932 113.903 117.986 113.857C118.722 113.218 119.638 112.792 120.582 112.351C121.639 112.246 122.694 112.012 123.729 111.841C126.285 111.417 128.84 110.993 131.398 110.57C131.899 110.486 131.686 109.925 131.184 110.007C129.243 110.328 127.302 110.648 125.361 110.968L122.52 111.437C121.952 111.53 121.243 111.718 120.576 111.785C120.247 111.819 119.927 111.823 119.639 111.774C118.708 111.613 118.661 110.766 119.063 110.262C119.513 109.697 120.363 109.343 121.117 109.023C122.424 108.467 123.816 108.068 125.174 107.607C125.416 107.569 125.657 107.53 125.898 107.491C127.301 107.267 128.904 107.156 130.224 106.744C130.62 106.622 130.403 106.168 130.012 106.174C128.987 106.19 127.915 106.456 126.914 106.613C125.83 106.785 124.745 106.955 123.661 107.125C123.552 107.142 122.908 107.292 122.811 107.259C122.749 107.238 122.727 107.081 122.707 106.978C122.64 106.64 122.592 106.284 122.664 105.945C122.823 105.183 123.695 104.826 124.577 104.533C126.542 103.883 128.696 103.476 130.84 103.313C131.334 103.276 131.828 103.252 132.326 103.24C132.909 103.228 133.39 103.153 133.686 103.571C134.15 104.231 134.406 105.08 134.559 105.832ZM131.831 129.754C131.403 128.676 131.519 127.524 131.226 126.424C131.075 125.857 130.868 125.294 130.643 124.74C130.46 124.293 130.157 123.817 130.122 123.35C130.12 123.318 130.171 123.3 130.205 123.315C130.809 123.567 131.273 124.111 131.618 124.539C132.03 125.05 132.345 125.586 132.599 126.149C133.105 127.27 133.521 128.624 132.868 129.754C132.673 130.091 131.991 130.158 131.831 129.754ZM115.124 137.917C114.487 137.593 114.022 137.14 113.481 136.74C112.949 136.346 113.78 135.74 114.313 136.134C114.774 136.475 115.175 136.901 115.718 137.177C115.98 137.31 116.101 137.55 115.929 137.764C115.778 137.952 115.385 138.05 115.124 137.917ZM111.567 125.456C112.731 125.089 113.877 124.69 115.095 124.425C115.824 124.268 116.132 125.095 115.408 125.252C114.286 125.495 113.233 125.858 112.161 126.196C111.472 126.412 110.874 125.674 111.567 125.456ZM99.2689 125.199C98.9841 124.687 100.123 124.467 100.403 124.971C100.726 125.552 101.097 126.118 101.42 126.699C101.704 127.21 100.566 127.431 100.285 126.927C99.9623 126.346 99.5918 125.78 99.2689 125.199ZM87.1304 135.419C86.9407 135.603 86.6244 135.703 86.3256 135.573C86.0753 135.464 85.9225 135.173 86.1146 134.987C86.6753 134.442 87.2434 133.905 87.9005 133.419C88.4333 133.026 89.2647 133.632 88.7324 134.025C88.1455 134.459 87.6313 134.933 87.1304 135.419ZM85.3948 78.0753C85.9347 78.344 86.4078 78.6703 86.8691 79.0061C87.4054 79.3965 86.5734 80.0023 86.0371 79.6119C85.6484 79.3289 85.2564 79.0417 84.8009 78.8152C84.5379 78.6844 84.4198 78.4409 84.5899 78.229C84.7424 78.0392 85.1323 77.9449 85.3948 78.0753ZM103.054 91.8639C102.749 92.3091 102.474 92.7456 102.457 93.2517C102.438 93.8029 101.262 93.8032 101.281 93.2517C101.303 92.5894 101.639 92.0151 102.039 91.4314C102.377 90.9373 103.392 91.3718 103.054 91.8639ZM109.534 80.7898C110.166 80.4828 110.755 81.2253 110.128 81.5297C109.62 81.7764 109.111 82.0233 108.603 82.27C107.971 82.577 107.383 81.8346 108.009 81.5302C108.518 81.2834 109.026 81.0366 109.534 80.7898ZM81.4299 100.152C81.322 100.696 80.1885 100.463 80.2954 99.9241C80.4608 99.0906 80.6627 98.2681 80.9732 97.4562C81.1764 96.925 82.3109 97.152 82.1075 97.684C81.7971 98.4959 81.5952 99.3184 81.4299 100.152ZM77.3052 109.967C76.548 109.955 76.5479 109.098 77.3052 109.11C77.9905 109.121 78.6641 109.252 79.3251 109.372C80.0604 109.506 79.7469 110.332 79.0124 110.198C78.4536 110.097 77.8846 109.976 77.3052 109.967ZM75.7826 129.739C75.5225 129.831 75.2556 129.914 74.9927 130.002C74.4661 130.177 73.9398 130.353 73.4136 130.529C72.3175 130.895 71.2219 131.263 70.1274 131.632C67.9363 132.37 65.7283 133.083 63.532 133.814C61.2922 134.559 59.0583 135.314 56.8272 136.073C55.7761 136.43 54.717 136.775 53.66 137.123C52.7562 137.421 51.6391 137.941 50.6469 137.99C50.5959 137.992 50.5788 137.945 50.6079 137.921C50.9828 137.611 51.5807 137.43 52.0733 137.228C52.5765 137.022 53.0891 136.828 53.5994 136.631C54.6632 136.221 55.7283 135.813 56.8024 135.417C58.9508 134.626 61.1034 133.839 63.2564 133.054C65.4522 132.253 67.6452 131.447 69.8602 130.675C70.9031 130.311 71.9471 129.949 72.9916 129.587C73.5574 129.391 74.1236 129.196 74.6897 129.001C74.9343 128.916 75.1763 128.825 75.4263 128.75C75.7585 128.65 76.011 128.67 76.3537 128.609C76.9125 128.508 77.1544 129.026 76.7254 129.251C76.3722 129.437 76.1863 129.595 75.7826 129.739ZM67.929 138.525C67.8083 138.311 68.061 138.051 68.3399 137.998C68.6738 137.934 68.9416 138.082 69.0635 138.297C69.386 138.868 69.8454 139.393 70.4367 139.836C70.9652 140.231 70.1338 140.837 69.6048 140.441C68.8638 139.886 68.3315 139.238 67.929 138.525ZM62.1511 124.771C61.6148 124.381 62.4468 123.775 62.983 124.165L64.5077 125.276C65.044 125.666 64.2118 126.272 63.6758 125.882L62.1511 124.771ZM46.5091 122.961C45.413 123.195 44.1345 123.41 43.3872 124.091C43.3507 124.125 43.2894 124.082 43.3113 124.049C44.268 122.604 47.0117 122.097 48.9114 121.591C50.255 121.233 51.6336 120.936 53.0239 120.671C52.8849 119.516 53.2681 118.278 53.4013 117.128C53.5435 115.901 53.6593 114.671 53.7187 113.44C53.7794 112.184 53.7941 110.92 53.7374 109.663C53.6809 108.412 53.4578 107.176 53.3602 105.928C53.3507 105.808 53.5813 105.802 53.631 105.902C54.2084 107.059 54.455 108.341 54.6429 109.562C54.8364 110.819 54.9007 112.073 54.876 113.337C54.8504 114.638 54.7466 115.935 54.6041 117.231C54.5366 117.845 54.4582 118.459 54.3842 119.073C54.3278 119.541 54.3016 120.006 54.1704 120.46C55.0089 120.31 55.8493 120.168 56.6871 120.03C59.3585 119.591 62.041 119.184 64.7012 118.709C66.007 118.476 67.2942 118.197 68.5941 117.949C69.8182 117.715 71.1102 117.433 72.3669 117.328C72.8154 117.291 72.8725 117.738 72.5756 117.89C71.5541 118.412 70.1976 118.776 69.0178 119.068C67.8337 119.361 66.6029 119.573 65.3892 119.79C62.8583 120.243 60.3034 120.614 57.7523 121C55.2048 121.386 52.6524 121.769 50.1335 122.244C48.9205 122.474 47.7116 122.704 46.5091 122.961ZM40.5024 100.038C39.8475 100.318 39.2562 99.5768 39.9088 99.2977C40.7627 98.9327 41.6728 98.6584 42.5903 98.3908C43.2944 98.1856 43.5973 99.0146 42.9031 99.2172C42.0786 99.4575 41.2698 99.7097 40.5024 100.038ZM38.1308 131.871C37.474 132.149 36.8823 131.408 37.5371 131.131C38.4568 130.743 39.464 130.484 40.417 130.144C41.0951 129.902 41.6906 130.642 41.0107 130.884C40.0578 131.224 39.0504 131.483 38.1308 131.871ZM37.064 113.801C37.699 114.24 38.5465 114.447 39.3456 114.678C40.0423 114.879 39.7367 115.707 39.0328 115.504C38.0372 115.217 37.0232 114.954 36.2322 114.407C35.6819 114.026 36.5152 113.421 37.064 113.801ZM44.0889 89.2602C44.787 89.4597 44.4813 90.288 43.7761 90.0866C42.9941 89.8632 42.1865 89.6931 41.4045 89.4696C40.7066 89.2702 41.0121 88.4419 41.7172 88.6433C42.4993 88.8667 43.3069 89.0368 44.0889 89.2602ZM56.4815 79.5127C57.2232 79.4217 57.5391 80.2475 56.7943 80.339C55.8702 80.4527 54.9602 80.5856 54.0838 80.8326C53.376 81.032 53.0724 80.2032 53.771 80.0064C54.6476 79.7594 55.5576 79.6263 56.4815 79.5127ZM60.5762 103.246C59.8961 103.002 60.4928 102.263 61.1698 102.506C61.8834 102.761 62.6226 102.959 63.4011 103.08C64.1424 103.195 63.8267 104.02 63.0883 103.906C62.2122 103.77 61.3785 103.533 60.5762 103.246ZM64.4435 89.8772C65.1759 89.7311 65.4856 90.5578 64.7563 90.7035C63.4733 90.9595 62.1523 91.0926 60.8598 91.3204C60.1233 91.4502 59.8116 90.6238 60.5471 90.4942C61.8395 90.2663 63.1606 90.1334 64.4435 89.8772ZM80.8496 85.682C81.5943 85.7824 81.277 86.6081 80.537 86.5084C79.7492 86.4022 78.9509 86.4005 78.1523 86.4002C77.3941 86.4 77.3954 85.5431 78.1523 85.5433C79.0596 85.5437 79.9553 85.5615 80.8496 85.682ZM134.356 90.1585C132.434 90.0247 130.509 89.9175 128.582 89.8372C128.492 89.8339 128.404 89.8297 128.314 89.8264C128.304 89.8115 128.29 89.7975 128.277 89.7825C127.648 89.1099 127.185 88.4373 126.783 87.6768C126.399 86.9527 126.027 86.2063 125.436 85.553C124.762 84.8086 123.852 84.2261 122.854 83.7213C122.249 84.0177 121.687 84.3647 121.173 84.7325C120.633 85.1195 119.801 84.5137 120.342 84.1266C120.798 83.7997 121.286 83.4978 121.801 83.225C121.206 82.9617 120.599 82.7143 120.007 82.4682C117.788 81.5461 115.516 80.6934 113.197 79.9138C112.119 79.5506 111.028 79.2282 109.929 78.9016C109.338 78.726 108.754 78.4999 108.163 78.2965C108.206 77.9922 108.081 77.6516 107.76 77.4513C107.524 77.3046 107.34 77.25 107.057 77.1462C106.994 77.13 106.956 77.1204 106.938 77.115C106.952 77.1172 106.99 77.1257 107.053 77.1407C107.203 77.1912 107.215 77.1761 107.088 77.0968C107.081 76.9234 106.612 76.5571 106.505 76.3782C106.131 75.7644 106.015 75.1154 105.463 74.5563C104.703 73.7862 103.427 73.4949 102.237 73.7562C102.114 72.8297 102.081 71.8626 101.602 71.0357C101.589 71.0133 101.546 71.0035 101.527 71.0282C101.027 71.6484 100.984 72.3392 100.946 73.0546C100.909 73.7262 100.944 74.4127 101.065 75.08C100.989 75.1228 100.911 75.1637 100.83 75.2032C100.45 75.3853 100.042 75.5256 99.6121 75.6296C98.7945 75.8265 97.9372 75.9122 97.0799 75.9422C94.8667 76.0193 92.5859 75.8565 90.4096 75.5802C88.2082 75.3006 84.8333 74.8808 82.8746 74.0786C81.5818 73.5496 80.3894 72.9036 79.1805 72.2781C79.6188 71.2499 79.7306 70.1445 79.2894 69.2759C79.2365 69.172 79.013 69.1527 78.9703 69.2759C78.6939 70.1049 78.613 70.9382 78.2453 71.7576C78.2395 71.7693 78.2336 71.7823 78.2277 71.794C78.113 71.7373 77.9983 71.6815 77.8836 71.6258C77.6189 71.4984 77.2586 71.5938 77.0998 71.7758C74.5601 74.6901 70.5383 74.8572 66.3149 75.3779C61.6929 75.9476 57.0477 76.5624 52.6037 77.6773C48.3539 78.7442 44.2923 80.2973 41.0748 82.6172C40.3464 83.1424 39.6653 83.7021 39.0224 84.2863C39.6444 84.3434 40.2613 84.4323 40.8702 84.5717C41.5912 84.7366 41.2814 85.5636 40.5574 85.3979C39.7748 85.2188 38.9835 85.1302 38.1842 85.0861C35.9979 87.2644 34.2933 89.7344 32.8192 92.1656C29.9918 96.827 28.1515 101.791 27.3046 106.845C27.7696 106.642 28.2429 106.449 28.7281 106.269C29.4021 106.019 29.9967 106.759 29.3219 107.009C28.5725 107.287 27.8446 107.593 27.1393 107.924C26.8312 110.137 26.7118 112.363 26.7842 114.586C26.9562 119.886 27.9385 125.341 30.1605 130.397C31.2502 132.879 32.6942 135.34 34.8456 137.437C35.8191 138.387 36.9249 139.244 38.2278 139.959C38.8587 140.306 39.5263 140.615 40.2307 140.876C41.138 141.215 42.3203 141.326 43.1026 141.805C43.36 141.963 43.5585 142.17 43.7085 142.405C43.6217 142.85 43.6114 143.297 43.7791 143.743C43.832 143.882 43.9761 143.995 44.1541 144.05C44.157 144.089 44.157 144.126 44.157 144.162C44.157 144.18 44.1923 144.184 44.1967 144.167C44.2041 144.134 44.2114 144.1 44.2188 144.066C44.2761 144.08 44.3364 144.087 44.3982 144.087C46.6319 144.093 48.8684 144.053 51.1051 143.998C50.9322 143.612 50.7448 143.229 50.565 142.843C50.3207 142.319 51.4573 142.096 51.6993 142.616C51.9098 143.067 52.1298 143.514 52.3255 143.967C54.722 143.902 57.1178 143.824 59.5093 143.766C64.5959 143.643 69.681 143.602 74.7689 143.524C82.6702 143.402 90.629 143.152 98.5425 143.397C98.8161 142.974 99.1225 142.56 99.4129 142.143C99.7555 141.651 100.77 142.085 100.429 142.576C100.227 142.866 100.018 143.152 99.819 143.441C101.422 143.502 103.023 143.582 104.621 143.691C107.347 143.878 110.047 144.209 112.77 144.414C115.539 144.624 118.248 144.587 120.995 144.254C121.489 144.194 121.78 143.976 121.901 143.706C121.905 143.705 121.908 143.703 121.911 143.7C122.052 143.58 122.185 143.48 122.321 143.393C122.485 143.316 122.661 143.251 122.869 143.193C123.255 143.086 123.658 143.021 124.067 142.977C124.517 142.928 124.973 142.923 125.423 142.883C125.802 142.847 126.173 142.795 126.543 142.731C127.21 142.615 127.842 142.464 128.471 142.263C129.02 142.089 129.515 141.838 129.983 141.565C130.951 141.05 131.789 140.392 132.521 139.709C132.948 139.31 133.349 138.895 133.714 138.463C134.349 137.716 134.89 136.939 135.437 136.156C135.636 135.924 135.817 135.687 135.982 135.444C134.913 135.215 133.834 135.028 132.701 135.014C131.943 135.006 131.943 134.149 132.701 134.158C134 134.173 135.23 134.394 136.452 134.657C136.511 134.542 136.568 134.426 136.621 134.309C136.767 134.064 136.887 133.812 136.987 133.557C137.046 133.441 137.105 133.325 137.164 133.21C137.296 132.809 137.428 132.408 137.562 132.006C137.828 131.363 138.038 130.711 138.193 130.05C138.322 129.615 138.422 129.177 138.49 128.734C138.696 127.66 138.864 126.587 138.875 125.501C138.858 124.832 138.799 124.164 138.699 123.498C138.656 123.046 138.584 122.597 138.487 122.15C138.361 121.486 138.236 120.828 138.025 120.173C137.868 119.73 137.711 119.286 137.553 118.843C137.161 117.918 136.697 117.012 136.163 116.126C136.134 116.071 135.986 115.949 135.896 115.947C135.828 115.946 135.734 115.991 135.765 116.051C135.768 116.057 135.771 116.063 135.774 116.069C135.743 116.018 135.714 115.967 135.683 115.916C135.656 115.869 135.553 115.775 135.474 115.776C135.47 115.776 135.465 115.776 135.459 115.777C135.48 115.767 135.499 115.753 135.518 115.737C136.046 115.281 136.389 114.683 136.767 114.156C137.08 113.721 137.375 113.262 137.461 112.771C137.535 112.339 137.434 111.914 137.062 111.565C136.639 111.167 135.842 110.981 136.284 110.407C136.787 109.754 137.527 109.187 136.79 108.445C136.415 108.067 135.821 107.859 135.38 107.53C134.872 107.15 134.631 106.641 134.645 106.122C134.675 106.134 134.717 106.128 134.731 106.096C135.158 105.158 134.849 104.127 134.412 103.214C134.174 102.718 133.669 102.582 133.083 102.557C135.624 98.9423 138.002 95.2695 140.121 91.5123C140.191 91.3891 140.261 91.266 140.329 91.1427C140.433 90.9585 140.215 90.7133 139.963 90.6725C138.131 90.3801 136.222 90.287 134.356 90.1585Z" fill="black"/>
<path fill-rule="evenodd" clip-rule="evenodd" d="M113.034 45.387C112.685 42.0941 113.226 38.6427 111.486 35.5129C108.453 30.3198 99.9487 28.5883 93.3554 26.6113C90.714 26.0416 81.826 25.962 78.7333 25.208C71.7336 23.5016 70.0612 21.4685 64.4993 24.7175C63.5605 25.2725 62.9731 25.8758 62.5446 26.6999L62.5622 26.7035C62.4398 27.0471 62.571 27.3899 62.8467 27.6518C60.4352 29.451 59.426 32.1483 60.6633 34.5433C64.7013 40.7757 64.5114 44.1456 63.2104 50.8458C61.5114 57.1008 65.3937 59.3857 71.8234 62.7891C71.5616 63.1596 71.5073 63.6519 71.8487 63.9788C79.2837 71.6047 93.3024 75.2457 105.314 71.3751C110.189 69.7912 112.366 66.0014 113.608 62.5818C115.055 58.7529 115.5 54.7182 114.322 50.8178C113.847 49.0139 113.228 47.2231 113.034 45.387Z" fill="#AE5D29"/>
<path fill-rule="evenodd" clip-rule="evenodd" d="M59.7815 36.0458L64.2024 38.1954L80.027 26.0188L74.7609 22.9936C74.7609 22.9936 65.207 28.1474 63.3285 29.5076C61.45 30.8678 59.7815 36.0458 59.7815 36.0458Z" fill="#9FD8E5"/>
<path fill-rule="evenodd" clip-rule="evenodd" d="M70.1474 8.9045C71.0499 8.80558 71.7314 9.21427 72.0556 9.79031L72.0726 9.82133C72.1768 10.0173 72.2928 10.208 72.4175 10.3954C74.6759 9.58676 77.8983 9.79455 79.3276 11.4322C80.3475 12.6018 79.7253 13.9899 79.3408 15.2302L79.0884 16.0474C79.5763 16.274 79.9442 16.6798 79.9269 17.1001L79.9248 17.1324L79.8221 18.272C80.1479 18.031 80.4458 17.7686 80.7114 17.4891C80.8948 17.2438 81.0929 17.0028 81.3057 16.7693C82.5574 15.3951 85.3675 16.5894 84.3345 18.061C84.1364 18.3448 83.9133 18.6137 83.6741 18.8729C83.4041 19.2552 83.1825 19.6483 83.0123 20.0521C83.501 20.2074 83.8766 20.5523 83.9162 21.0728C84.0087 22.2885 83.1341 23.3028 81.743 23.9401C81.3336 24.1275 80.911 24.1639 80.528 24.0943C80.4605 24.1607 80.393 24.2271 80.3284 24.2946C80.8831 24.6234 81.3835 24.9983 81.8134 25.4139C83.1077 25.2725 84.4093 25.2061 85.7109 25.2039C87.3016 24.6352 89.2063 24.647 90.9159 24.8601C92.0164 24.9972 93.073 25.2639 94.156 25.4556C95.2976 25.657 96.4569 25.6645 97.6117 25.8016C99.0674 25.974 100.344 26.4646 101.147 27.2475C102.029 27.2668 102.956 27.5303 103.725 27.888C105.515 28.7213 107.295 29.5664 109.081 30.405C109.767 30.727 110.023 31.241 109.897 31.8143L109.888 31.8509L109.828 32.0887L109.969 32.2351C110.516 32.7984 111.111 33.3884 111.464 34.0102C112.119 34.6989 112.71 35.4208 113.234 36.1652C113.94 37.1656 114.522 38.2259 114.917 39.3141C115.015 39.5894 115.114 39.8668 115.178 40.1474C115.271 40.5437 115.128 40.8511 115.051 41.2313C114.954 41.7133 114.919 42.2017 114.816 42.6847C114.747 43.005 114.374 43.1624 113.984 43.171C114.131 43.9861 114.236 44.8065 114.337 45.6205C114.48 46.7837 114.577 47.9501 114.66 49.1165C115.092 49.5738 115.974 49.9358 116.611 50.0612C117.492 50.2336 118.417 50.0462 119.25 49.8266C119.774 49.6884 120.204 50.1693 119.949 50.4907C119.146 51.4996 117.429 51.4953 116.129 51.0487C115.579 50.8602 115.096 50.5871 114.738 50.2315C114.76 50.5699 114.784 50.9084 114.807 51.2479L114.829 51.5554C115.093 55.1469 115.664 58.8619 114.74 62.418C113.139 68.5777 106.155 73.2678 97.6235 73.632C93.1467 73.8232 89.4186 72.858 87.5648 72.3196C85.7109 71.7812 86.4314 70.6835 87.7184 70.9973C89.9354 71.5379 94.0081 72.3432 97.6528 71.9955C106.243 71.1758 113.527 68.042 112.779 54.5446C112.673 52.6306 112.346 50.7156 112.276 48.8016C112.208 46.9304 112.233 45.0582 112.12 43.1881L112.083 42.5501C112.038 41.8046 111.991 41.0555 111.915 40.3091C111.822 40.0199 111.746 39.7265 111.633 39.4426C111.326 38.6704 110.926 37.9196 110.428 37.203C110.318 37.2641 110.195 37.308 110.061 37.3252C109.047 37.458 108.097 37.4205 107.147 37.112C106.704 36.9696 106.314 36.78 105.95 36.5454C105.777 36.4351 105.661 36.328 105.57 36.2166C105.11 36.222 104.651 36.1213 104.363 35.8803C104.035 35.6056 103.981 35.3219 104.109 35.0593L104.123 35.0331L104.09 35.0245C103.703 35.756 102.931 36.3998 102.084 36.8346C100.746 37.5244 99.0718 37.7236 97.4665 37.7418C95.6938 37.7611 93.8243 37.5619 92.0751 37.3584C91.6129 37.3048 91.1536 37.2438 90.7031 37.1613C90.6855 37.1741 90.6679 37.1891 90.6488 37.202C89.1476 38.2506 87.036 38.5205 85.1313 37.9217C84.0307 37.5758 83.1077 37.0188 82.2918 36.3805C82.2801 36.7146 82.2566 37.0488 82.217 37.3798L82.2006 37.5112C82.1193 38.1276 81.963 38.7814 81.3248 39.2263C80.2932 39.9471 78.7964 39.6579 77.6063 39.1888C77.6078 39.2113 77.6078 39.2349 77.6078 39.2584C77.9291 40.0553 78.252 40.8532 78.5748 41.6512L78.6443 41.8212C78.8791 42.3877 79.1366 42.955 79.2073 43.548C79.3423 44.6812 78.3092 45.8005 76.5835 45.4202C75.6783 45.2215 74.9531 44.666 74.2573 44.2211L73.8189 43.9443C74.9532 46.6509 75.7397 49.4539 75.8131 52.2783C75.8175 52.4314 75.637 52.5471 75.4375 52.5525C74.9708 52.5664 74.4689 52.4989 73.9994 52.3629C73.973 52.3618 73.9465 52.3607 73.9187 52.3575C73.1175 52.2729 72.3735 52.0619 71.7175 51.7502C71.8687 52.1005 71.9362 52.4764 71.8966 52.8695C71.8863 52.9648 71.6823 52.998 71.653 52.8931C71.2744 51.5339 69.0952 50.5067 67.2169 50.767C65.2007 51.0465 63.7156 52.3125 63.3517 53.7531C62.9614 55.3008 63.7083 57.0905 65.0921 58.2848C65.729 58.8353 66.5669 59.2948 67.5618 59.4105C68.0167 59.4629 68.4892 59.4447 68.9309 59.3505C69.1187 59.3098 69.2948 59.253 69.4738 59.1995C69.735 59.1224 70.0403 59.1106 70.2868 59.0292C70.8459 58.846 71.4079 59.222 71.1247 59.6407C70.8782 60.006 70.6566 60.2523 70.2472 60.4408C70.5788 60.7364 70.8796 61.1477 70.9911 61.258C71.5605 61.8193 72.1387 62.3495 72.7873 62.8625C73.4476 63.383 74.1681 63.8586 74.9297 64.2988L75.2498 64.4834C75.9834 64.9081 76.6222 65.3016 77.1397 65.9107C77.5476 66.3917 77.0193 67.0439 76.2548 67.0364C73.8629 67.0118 72.124 65.478 70.8855 64.1381C70.7094 63.9464 70.5436 63.744 70.3895 63.5362C70.3337 63.6015 70.2721 63.6626 70.2031 63.7183L70.3396 63.986C70.7446 64.7744 68.9998 65.2895 68.4936 64.5537C68.1253 64.0203 67.6982 63.5126 67.2228 63.0328C66.9425 63.0039 66.6681 62.8796 66.5155 62.719C66.1296 62.3109 65.6967 61.8985 65.3313 61.4637C65.1288 61.3234 64.9204 61.1884 64.7076 61.0567C64.646 61.0963 64.5829 61.1359 64.5227 61.1777C64.2557 61.6222 63.9255 62.0281 63.5161 62.4105L63.4283 62.4921C62.644 63.2136 61.6223 63.952 60.3582 64.1285C59.9722 64.1821 59.601 63.8318 59.9429 63.608C60.8277 63.0274 61.874 62.6322 62.6899 61.9842C63.0919 61.665 63.461 61.3134 63.7783 60.9449L63.8506 60.8596C63.9035 60.7964 63.9578 60.7332 64.0135 60.669C63.6452 60.4858 63.2769 60.3016 62.9086 60.1174C61.8946 60.7496 60.5742 61.0389 59.4527 61.5626L59.3412 61.6158C58.3273 62.1106 57.259 61.016 58.0719 60.4151C58.9681 59.7552 59.7162 58.9683 60.5101 58.2349C60.1367 57.733 59.9601 57.1395 59.8939 56.5397C59.8678 56.3699 59.8474 56.2001 59.827 56.0302C59.2576 56.0366 58.6853 55.8942 58.2011 55.6489L58.0176 55.5536C57.4292 55.6907 56.8114 55.7571 56.22 55.7453C54.8289 55.7153 54.2595 54.5553 55.1297 53.8217C56.0175 53.0719 57.5715 52.908 58.8027 53.2722C58.8423 53.2572 58.8834 53.2411 58.923 53.2251C58.8643 53.028 58.8774 52.8492 58.9442 52.6922L58.9248 52.5965C58.654 52.2933 58.476 51.9471 58.4085 51.5813C58.3551 51.2916 58.366 51.0044 58.4579 50.7184C58.4884 50.6231 58.5519 50.5245 58.6005 50.4252C58.5004 50.2408 58.4416 50.0501 58.4234 49.8584C58.3953 49.8341 58.3675 49.8091 58.341 49.7821C57.7302 49.1561 57.8536 48.4018 58.435 47.8951C58.4376 47.8629 58.4417 47.8307 58.4477 47.7986C58.4137 47.7427 58.3824 47.6863 58.354 47.6292C57.7859 47.211 57.3689 46.7077 57.4466 46.084C57.4923 45.717 57.6989 45.3867 58.0116 45.1398C57.9561 45.0201 57.9509 44.8814 58.0181 44.7656C57.519 43.7967 57.5821 42.6298 57.9413 41.5462C57.8621 41.3813 57.821 41.2024 57.8298 41.0128C57.8709 40.2085 58.8247 39.4694 59.9546 39.4791C60.0907 39.4799 60.218 39.4929 60.3404 39.5118L60.342 39.4927C60.3853 39.2512 60.4763 39.0281 60.6091 38.828C60.5438 38.8107 60.4833 38.786 60.4304 38.7531C59.7063 39.035 58.9402 39.2505 58.1369 39.3973C57.5463 39.5053 56.9413 39.0153 57.3084 38.6106C57.4788 38.4229 57.6668 38.2543 57.8693 38.1003C57.5814 38.1015 57.289 38.1157 56.9934 38.1434C56.4622 38.1938 55.8693 37.9292 55.5245 37.5715C55.096 37.8757 54.666 38.1788 54.2361 38.4819C53.1472 39.252 51.5022 38.6854 51.3306 37.67C51.0063 37.6068 50.704 37.4997 50.4384 37.3466C48.7215 37.8907 46.874 38.1895 44.9854 38.2463C43.6295 38.287 42.8371 37.1345 43.471 36.3205C43.8966 35.7743 44.4248 35.2837 45.0338 34.8574C44.0888 35.0684 43.113 35.2205 42.1166 35.318C41.578 35.3705 40.8164 35.0449 40.6007 34.6839C39.776 33.2958 39.8465 31.8488 40.7959 30.4982C40.8326 30.4446 40.8737 30.3932 40.9133 30.3418C41.0116 30.163 41.1187 29.9862 41.2347 29.8127C40.0666 28.9237 39.9653 27.602 40.5949 26.4956C40.3425 26.1968 40.2456 25.8369 40.4173 25.5113C40.906 24.5741 41.6103 23.7087 42.4996 22.9654C42.4145 22.8455 42.3396 22.718 42.2765 22.5809C41.7761 21.4723 42.3558 20.1346 43.5253 19.3624C44.2605 18.8761 45.1057 18.5848 46.0082 18.3984C46.3883 17.9079 46.8769 17.4655 47.4463 17.0928C47.4683 17.0574 47.4903 17.0221 47.5153 16.9867C48.4016 15.7679 50.0157 15.1145 51.7458 14.9635C51.8133 14.4869 52.2536 14.0317 52.8934 13.8839C53.0695 13.4715 53.3321 13.0774 53.6931 12.7196C54.261 12.1562 55.2046 11.8906 56.0938 12.2601C56.581 12.4626 57.0477 12.695 57.4849 12.952C57.6814 12.8848 57.904 12.8413 58.1553 12.8274L58.2187 12.8246L59.6655 12.771C60.2716 12.575 60.8762 12.3694 61.4822 12.1691C61.8461 11.9495 62.2526 11.7664 62.6958 11.6304C63.1976 11.4772 63.7112 11.3904 64.2263 11.3615C64.6445 11.2619 65.0657 11.1741 65.4942 11.1055C66.5008 10.9449 67.5544 10.8549 68.5992 10.8624C68.6206 10.665 68.6312 10.4653 68.6292 10.2632L68.6271 10.1619C68.6036 9.51393 69.3124 8.99661 70.1474 8.9045ZM69.1334 60.7493C68.9896 60.7718 68.8443 60.79 68.699 60.8029C68.743 60.8821 68.7871 60.9614 68.8296 61.0406C68.947 61.0888 69.0659 61.1349 69.1847 61.1777C69.1495 61.0321 69.129 60.8853 69.1334 60.7493ZM61.5942 59.1141L61.4966 59.2452C61.4808 59.2667 61.4652 59.2879 61.4499 59.3087C61.6568 59.2969 61.8652 59.3001 62.0707 59.3173L62.0701 59.3013C62.0437 59.2948 62.0172 59.2888 61.992 59.2798C61.8503 59.2301 61.7185 59.1744 61.5942 59.1141ZM65.6688 53.1319C66.9671 53.1871 68.067 53.3324 69.2477 53.7469L69.3491 53.7831C70.3924 54.1612 72.1181 54.8596 71.9729 55.861C71.9318 56.1459 71.6486 56.4458 71.2025 56.4233C69.9801 56.3623 69.2816 55.4626 68.454 54.9013C67.619 54.3358 66.5933 53.7542 65.5822 53.3654C65.4393 53.3107 65.4956 53.1374 65.6511 53.1319L65.6688 53.1319ZM59.7815 39.9375C59.4704 39.945 59.5746 40.1656 59.7345 39.9814C59.7477 39.9664 59.7639 39.9514 59.7815 39.9375ZM76.5741 25.208C73.6278 25.2646 70.6626 26.5343 68.4554 27.8178C66.5353 28.9343 64.8773 30.2625 63.4091 31.6939C63.0314 32.4068 62.7071 33.1346 62.4331 33.8678C62.2526 34.3519 62.1396 34.8414 61.9885 35.3298L61.9415 35.4795C61.8228 35.6414 61.7346 35.8157 61.6703 35.9957C61.9379 36.1915 62.2849 36.3317 62.667 36.3982C62.7901 36.4197 62.8924 36.466 62.9733 36.5275C63.2808 36.1529 63.5497 35.7574 63.7061 35.3382L63.7118 35.3188C64.3031 34.612 64.9452 33.9272 65.6336 33.2658C67.5324 31.4397 69.6235 29.7752 72.1372 28.3903C74.0434 27.3407 76.1741 26.5181 78.4398 25.9837C77.8853 25.6571 77.2554 25.3988 76.5741 25.208Z" fill="black"/>
<path fill-rule="evenodd" clip-rule="evenodd" d="M103.237 64.9235C102.154 65.152 100.991 65.1724 99.8872 64.9364C98.8856 64.7224 97.8573 64.2512 97.1201 63.6278C96.4653 63.074 96.0412 62.401 96.0579 61.6827C96.0598 61.6006 96.1001 61.5321 96.162 61.479C96.2287 61.4218 96.3219 61.3825 96.4217 61.3654C96.5243 61.3479 96.6328 61.3541 96.7252 61.3847C96.8089 61.4123 96.8805 61.4593 96.9253 61.528C97.0386 61.6364 97.1515 61.7432 97.2647 61.847C98.1756 62.6662 99.0577 63.2784 100.427 63.498C101.17 63.6171 101.913 63.5643 102.594 63.3825C103.323 63.1879 103.982 62.8457 104.498 62.4078C104.731 62.2099 105.007 62.1292 105.276 62.1278C105.581 62.1263 105.883 62.2296 106.111 62.3947C106.334 62.5571 106.484 62.7777 106.497 63.0084C106.509 63.2109 106.418 63.4225 106.177 63.6112C105.382 64.2329 104.352 64.6884 103.237 64.9235ZM103.204 54.6636C104.314 55.1552 106.006 56.3016 104.812 57.5204C103.406 58.595 101.381 57.3629 100.384 56.8056C99.4584 56.3737 98.4191 57.4845 99.2773 57.9888C106.486 61.8762 109.412 54.7921 103.766 54.0856C103.144 54.0077 102.913 54.5115 103.204 54.6636ZM92.8163 52.5004C92.4594 52.3341 92.0395 52.277 91.5742 52.4312C91.2106 52.5517 90.5729 52.9532 90.1291 53.4809C89.8254 53.842 89.6101 54.2656 89.6549 54.7068C89.6653 54.8093 89.6134 54.8849 89.5314 54.9407C89.4666 54.9848 89.3731 55.0173 89.2632 55.0274C89.1699 55.036 89.0655 55.0283 88.9806 55.009C88.8191 54.9722 88.7336 54.8959 88.7014 54.8337C88.3907 54.2326 88.5246 53.5618 88.8728 52.9566C89.3429 52.1399 90.1964 51.4558 90.7557 51.2353C91.7126 50.8577 92.8416 50.8403 93.7999 51.225C94.6157 51.5523 95.1258 52.0809 95.6331 52.6196C95.741 52.7341 95.848 52.8478 95.9586 52.9595C96.1803 53.1833 96.2024 53.4052 96.1165 53.5956C96.0214 53.8064 95.7789 53.9844 95.4756 54.0775C95.1953 54.1636 94.87 54.1757 94.5821 54.0872C94.3389 54.0125 94.1157 53.8669 93.9745 53.6198C93.7367 53.2036 93.3404 52.7445 92.8163 52.5004ZM110.943 53.4262C110.698 53.519 110.507 53.5469 110.236 53.4878C110.086 53.455 109.938 53.3921 109.822 53.3076C109.707 53.2238 109.624 53.1197 109.592 53.0041C109.512 52.719 109.298 52.4521 108.993 52.2781C108.732 52.1293 108.403 52.0505 108.037 52.095C107.643 52.1429 107.268 52.327 107.009 52.5441C106.923 52.6168 106.855 52.6992 106.787 52.7812C106.659 52.9344 106.535 53.0769 106.36 53.1894C106.293 53.2322 106.193 53.2619 106.095 53.2619C106.056 53.2619 106.016 53.2572 105.978 53.2485C105.585 52.9617 105.51 52.7441 105.522 52.5283C105.536 52.3021 105.658 52.0729 105.856 51.8592C106.321 51.3577 107.202 50.9465 107.797 50.8534C108.612 50.7259 109.421 50.879 110.07 51.2104C110.737 51.5514 111.232 52.0809 111.386 52.6776C111.423 52.8213 111.407 52.9764 111.332 53.1109C111.259 53.2424 111.131 53.3549 110.943 53.4262ZM94.6132 47.1539C94.1242 47.5008 93.5455 47.5546 92.9601 47.6024C92.6348 47.6292 92.3751 47.6508 92.1195 47.6928C91.4172 47.8083 90.7229 47.9822 90.0895 48.2327C89.4273 48.4946 88.7058 48.8103 88.1867 49.2149C88.0632 49.3112 87.9469 49.4122 87.8303 49.5134C87.7241 49.6057 87.6217 49.6946 87.5138 49.7803C87.39 49.8787 87.2723 49.9819 87.1553 50.0848C87.0829 50.1716 87.0687 50.1929 87.0541 50.2152C87.0322 50.2486 87.0067 50.2859 86.9775 50.326C86.9376 50.3809 86.8909 50.4411 86.8419 50.4956C86.7605 50.5952 86.7168 50.6226 86.6791 50.6349C86.6164 50.6552 86.557 50.6652 86.4994 50.6598C86.4453 50.6547 86.3944 50.6358 86.3441 50.6049C86.0931 50.4504 86.0191 50.1969 86.0266 49.9278C86.0382 49.5194 86.245 49.0673 86.4356 48.7893C86.8789 48.1435 87.4936 47.4721 88.2328 46.9901C89.0763 46.4399 89.9992 46.0234 91.0591 45.7364C91.7178 45.558 92.4805 45.3942 93.1981 45.4149C93.7146 45.4298 94.2078 45.5416 94.615 45.8209C94.8651 45.9923 94.9851 46.2362 94.9851 46.4799C94.9851 46.7284 94.8604 46.9784 94.6132 47.1539ZM111.937 50.3312C111.906 50.3683 111.863 50.3939 111.815 50.4092C111.765 50.4253 111.709 50.43 111.655 50.4234C111.602 50.4168 111.551 50.3991 111.51 50.3721C111.472 50.3462 111.442 50.3119 111.429 50.2698C111.104 49.2313 110.474 48.4587 109.129 47.9605C108.467 47.7154 107.706 47.5597 106.986 47.4355C106.776 47.3994 106.555 47.376 106.332 47.3524C105.634 47.2781 104.931 47.1931 104.476 46.782C104.201 46.5344 104.086 46.2178 104.151 45.9282C104.213 45.6555 104.431 45.4055 104.829 45.2557C105.819 44.8828 107.049 45.2487 108.049 45.5603C108.123 45.5834 108.196 45.6061 108.267 45.628C109.245 45.9286 110.137 46.3254 110.87 46.8928C111.451 47.343 111.99 48.0084 112.207 48.693C112.388 49.2626 112.345 49.844 111.937 50.3312Z" fill="black"/>
</svg>
