<svg width="590" height="901" viewBox="0 0 590 901" fill="none" xmlns="http://www.w3.org/2000/svg">
<path fill-rule="evenodd" clip-rule="evenodd" d="M453.675 505.266C461.308 524.347 470.446 546.006 478.852 564.593C478.179 570.482 475.652 576.504 477.629 582.401C468.916 576.73 459.121 573.17 449.122 570.478L448.559 574.247C447.446 574.211 445.441 574.191 444.314 574.176C444.489 572.677 444.727 570.004 444.835 568.494L444.838 568.495C446.233 552.254 443.628 535.627 440.446 519.756C439.669 514.029 441.564 505.133 448.776 504.986C449.849 505.149 451.614 502.247 452.265 501.685L453.675 505.266ZM352.801 724.769C389.141 726.808 409.919 697.053 427.489 669.214C429.338 670.441 431.388 671.812 433.255 672.92C436.129 677.541 441.979 678.942 447.029 679.454C465.028 680.375 468.883 664.201 473.352 650.287C474.203 650.884 476.106 653.926 477.538 653.259C485.621 651.466 493.49 649.323 502.059 649.858C511.894 647.757 562.859 670.22 558.156 650.63C555.858 642.111 543.214 638.074 536.702 632.193C527.232 621.412 529.538 607.54 525.014 594.702C521.253 581.822 516.858 569.688 508.726 557.848C507.991 513.593 506.335 459.43 494.887 420.073C487.588 392.452 478.545 363.896 482.021 334.913L483.995 334.86C484.859 334.37 486.186 334 487.246 334.163C488.139 333.174 489.796 333.475 491.011 333.075C493.2 312.603 494.044 295.082 491.266 276.511C488.686 245.846 469.348 233.303 441.104 226.624C410.065 216.436 389.004 206.052 372.922 180.718C369.881 175.577 368.032 169.49 363.98 165.155C353.917 152.41 324.978 154.511 317.504 167.931C314.24 175.781 313.959 184.944 311.476 193.105C301.716 227.769 256.825 223.686 233.059 242.639C222.597 250.403 219.226 262.389 217.869 274.59C216.16 289.933 212.896 304.707 213.314 319.957C212.223 320.164 209.723 319.386 209.3 320.952C210.294 324.246 223.038 324.234 226.593 324.817C221.918 349.59 226.157 374.466 222.4 399.317C216.608 427.239 205.212 453.169 196.262 480.144C192.817 489.058 190.511 498.614 185.387 506.733L185.479 506.803C184.669 508.15 183.78 509.459 182.858 510.721C181.908 511.064 180.918 511.622 179.981 511.965L179.773 511.613L179.266 512.293L177.779 511.664C175.595 512.757 173.223 514.023 170.893 515.353C142.256 532.743 123.516 550.39 101.064 572.241L104.043 574.659C102.958 576.169 101.645 578.168 100.591 579.76C99.7121 578.983 97.8352 577.675 96.7537 577.226C77.6098 599.999 75.2691 639.475 84.5929 663.472C87.5587 670.663 92.2506 676.567 97.9171 681.54C100.257 685.061 104.463 689.922 109.837 692.257C109.837 692.257 110.515 693.217 110.538 693.249C110.824 693.288 112.584 693.692 112.687 694.102C126.993 696.516 141.338 702.816 156.162 702.908C180.339 702.697 201.115 683.053 220.507 670.081C232.773 661.326 247.067 655.313 260.313 649.46C259.325 654.505 259.606 656.236 265.088 658.144C269.972 660.089 275.846 658.568 280.389 656.431C280.271 664.795 279.605 673.147 279.835 682.066C279.836 692.864 279.476 706.14 291.103 711.124C310.901 718.928 333.271 724.534 352.801 724.769V724.769Z" fill="#EDB98A"/>
<path fill-rule="evenodd" clip-rule="evenodd" d="M403.273 214.166C403.427 214.5 403.331 214.939 402.877 215.031C402.146 215.182 401.608 215.578 401.208 216.121C401.031 217.021 400.769 217.91 400.415 218.78C400.342 218.957 400.25 219.115 400.146 219.254C399.969 220.551 399.95 221.878 399.858 222.814C399.55 225.985 398.977 229.083 398.108 232.147C396.358 238.309 393.615 244.232 389.992 249.517C382.715 260.116 371.85 268.21 359.369 271.482C346.769 274.78 332.796 273.398 321.469 266.794C310.992 260.686 302.873 250.575 300.496 238.551C299.231 232.162 299.435 225.658 300.627 219.277C300.819 218.253 301.031 217.202 301.269 216.144C293.281 223.014 283.035 227.228 273.15 230.48L272.093 230.826C261.864 234.15 251.433 237.004 242.127 242.573C237.692 245.225 233.485 248.527 230.404 252.726C226.581 257.938 224.931 264.003 223.896 270.308C222.508 278.775 221.496 287.319 220.542 295.844C220.065 300.132 219.623 304.427 219.219 308.722C219.008 310.997 218.804 313.272 218.615 315.55L218.575 316.001C218.444 317.403 218.273 318.557 217.8 319.661C220.823 320.469 223.885 321.077 226.969 321.624C230.612 322.274 234.319 322.651 238.012 322.878C239.915 322.994 241.823 323.032 243.731 323.063C244.681 323.078 245.631 323.055 246.581 323.063C247.123 323.067 247.565 323.213 248.038 323.309C247.615 309.773 252.997 313.843 254.086 329.52L254.169 330.726C255.25 346.491 256.385 362.255 257.338 378.031L257.419 379.391C258.229 393.44 258.461 407.612 256.065 421.53C254.858 428.543 252.865 435.344 250.038 441.875C247.254 448.314 243.319 454.133 240.115 460.357C237.185 466.057 235.104 472.269 236.415 478.358C236.869 480.486 237.638 482.591 238.688 484.227C238.688 484.412 238.727 484.608 238.819 484.808C239.865 487.09 242.365 488.418 244.527 489.446C246.841 490.547 249.223 491.512 251.568 492.551L252.446 492.944C256.377 494.726 260.408 496.112 264.539 497.101C264.615 497.132 264.692 497.167 264.773 497.197C271.5 499.899 278.388 502.181 285.373 504.125C299.527 508.07 314.054 510.591 328.646 512.238C342.781 513.832 357.019 514.744 371.235 515.175C384.139 515.571 397.246 515.287 409.969 512.927C419.081 511.238 428.035 508.443 436.246 504.198C436.908 503.159 437.835 502.27 438.612 501.296C438.515 499.73 439.462 497.982 440.892 497.428C441.446 496.193 441.881 494.907 442.189 493.587C441.854 490.354 441.404 487.137 440.746 483.904C439.594 478.272 438.129 472.711 436.624 467.166L436.058 465.087C432.512 452.074 429.677 439.104 429.204 425.575C428.723 411.874 430.1 398.218 431.985 384.667C433.801 371.595 435.964 358.569 438.289 345.581L438.658 343.531C439.883 336.731 445.085 327.297 444.565 332.158C445.619 331.915 446.758 332.058 447.989 332.081C450.008 332.123 452.027 332.1 454.046 332.111L460.101 332.137L466.158 332.165C473.1 332.196 480.069 332.3 487 332.8C487.427 332.696 487.858 332.593 488.292 332.462C489.95 331.961 490.481 330.776 490.589 329.117C490.869 324.953 490.273 320.634 490.2 316.455C490.131 312.457 490.146 308.46 490.25 304.465L490.289 303.134C490.377 300.228 490.092 296.664 491.769 294.139C491.608 291.838 491.412 289.536 491.169 287.242C490.262 278.629 488.712 269.977 486.046 261.721C484.119 255.755 480.958 250.282 476.412 245.933C467.492 237.412 455.158 234.041 443.635 230.661C429.708 226.574 415.831 221.54 403.273 214.166ZM401.458 213.069C401.465 213.346 401.465 213.627 401.458 213.904C401.808 213.808 402.177 213.754 402.585 213.758C402.204 213.534 401.835 213.296 401.458 213.069Z" fill="#96AFEB"/>
<path fill-rule="evenodd" clip-rule="evenodd" d="M446.355 569.489L446.084 571.302L444.701 571.277L444.424 573.908C444.285 575.226 444.128 576.521 443.951 577.8C443.695 579.667 443.389 581.55 443.033 583.45L442.877 584.266L442.544 585.981L443.908 587.071C445.436 588.293 446.885 589.835 448.59 591.912C451.354 595.284 453.501 599.205 455.005 603.563C456.424 607.673 457.099 611.984 456.976 616.228C456.914 618.3 456.596 620.307 456.02 622.274C455.864 622.802 455.702 623.295 455.529 623.76L455.442 623.99L454.944 625.277L455.632 626.473C455.953 627.03 455.982 627.601 455.8 627.924L455.771 627.97L429.643 666.162L427.885 668.748L430.405 670.343C430.625 670.483 430.855 670.636 431.119 670.82L431.395 671.014L432.828 672.029L434.387 671.223C434.629 671.098 434.94 671.051 435.149 671.093C436.03 671.268 436.632 671.559 437.649 672.262L438.698 673C439.448 673.52 440.084 673.913 440.806 674.28C442.537 675.16 445.376 675.891 447.343 676.012C450.19 676.184 451.987 675.967 454.62 675.13C456.728 674.458 458.893 673.25 460.417 671.844C463.637 668.877 465.413 665.439 467.467 659.413L467.564 659.128L468.135 657.409L468.686 655.724C470.273 650.886 471.281 648.299 472.741 645.701C473.91 643.625 475.301 641.812 476.819 640.434L476.939 640.328C477.249 640.061 477.643 639.774 478.268 639.35L478.934 638.903C481.176 637.395 482.307 636.423 483.215 634.819C484.039 633.364 484.488 631.737 484.813 629.562L484.918 628.812C484.942 628.632 484.967 628.425 485.007 628.093L485.138 626.999C485.165 626.779 485.188 626.596 485.21 626.43L485.243 626.191L485.274 625.982C485.612 623.713 485.872 621.41 486.056 619.073L486.114 618.293L486.155 617.695L486.2 616.96C486.88 605.132 485.278 595.519 480.305 587.77C476.965 582.571 472.298 578.767 466.229 575.869L465.854 575.692L465.463 575.51C461.419 573.65 457.42 572.386 450.445 570.554L449.459 570.297L446.355 569.489ZM283.758 638.937L278.622 641.528L277.924 641.875C274.736 643.444 271.633 644.779 266.146 647L263.937 647.891L258.555 650.056L263.528 653.044C263.792 653.202 264.055 653.384 264.432 653.666L265.33 654.35L265.597 654.551C265.851 654.74 266.072 654.897 266.312 655.06C268.053 656.234 269.78 657.148 271.513 657.753C273.934 658.606 276.453 658.895 279.046 658.667L279.325 658.641L281.709 658.398L281.907 656.008C282.199 652.482 282.546 649.006 282.949 645.579L283.103 644.296L283.758 638.937Z" fill="white"/>
<path fill-rule="evenodd" clip-rule="evenodd" d="M100.668 576.644C101.357 575.605 102.061 574.577 102.784 573.561C101.93 574.489 101.088 575.432 100.268 576.386C100.411 576.459 100.545 576.548 100.668 576.644M180.334 509.841C180.468 509.741 180.618 509.652 180.791 509.583C181.191 509.417 181.591 509.244 181.991 509.079C182.749 508.028 183.461 506.95 184.126 505.85C182.734 507.304 181.322 508.717 179.799 510.041C179.976 509.976 180.157 509.91 180.334 509.841M193.445 504.225C199.937 500.765 206.48 497.398 213.037 494.095C213.603 493.811 214.153 493.818 214.618 494.007C217.437 492.556 220.272 491.124 223.137 489.766C224.88 488.942 226.637 488.165 228.387 487.379C228.522 487.179 228.645 486.971 228.749 486.748C229.799 484.504 228.803 481.718 228.126 479.512C227.953 478.958 228.026 478.477 228.245 478.1C227.876 474.879 228.014 471.638 228.649 468.717C230.157 461.758 233.884 455.415 237.43 449.33C241.072 443.084 244.264 436.81 246.33 429.855C250.48 415.896 250.799 401.282 250.499 386.838C250.168 370.792 249.241 354.75 248.599 338.716C248.407 333.936 248.218 329.156 248.064 324.372C247.691 324.595 247.391 324.826 246.834 324.992C245.926 325.257 244.999 325.476 244.08 325.692C242.245 326.123 240.384 326.423 238.518 326.681C235.011 327.166 231.514 327.385 227.976 327.335C227.541 327.328 227.107 327.316 226.676 327.301C228.722 337.689 228.591 348.688 228.78 359.188C229.003 371.331 229.595 383.593 228.245 395.694C226.926 407.521 223.434 418.813 219.622 430.04C215.699 441.594 211.661 453.114 207.849 464.702C205.699 471.241 203.541 477.78 201.38 484.316C200.341 487.464 199.299 490.612 198.261 493.757C197.122 497.201 196.553 501.254 193.668 503.664C193.349 503.929 192.991 504.133 192.607 504.276C192.541 504.41 192.48 504.541 192.411 504.676C192.757 504.526 193.099 504.376 193.445 504.225M236.407 478.346C236.861 480.475 237.63 482.58 238.68 484.216C238.68 484.4 238.718 484.597 238.811 484.797C239.857 487.079 242.357 488.407 244.518 489.435C247.122 490.674 249.811 491.74 252.437 492.933C256.368 494.715 260.399 496.101 264.53 497.09C264.607 497.121 264.684 497.155 264.764 497.186C271.491 499.888 278.38 502.17 285.364 504.114C299.518 508.059 314.045 510.58 328.637 512.227C342.772 513.821 357.011 514.733 371.226 515.164C384.13 515.56 397.237 515.275 409.961 512.916C419.072 511.226 428.026 508.432 436.237 504.187C436.899 503.148 437.826 502.259 438.603 501.285C438.507 499.719 439.453 497.971 440.884 497.417C441.437 496.182 441.872 494.896 442.18 493.576C441.845 490.343 441.395 487.125 440.737 483.892C439.441 477.557 437.749 471.311 436.049 465.076C432.503 452.063 429.668 439.093 429.195 425.564C428.714 411.862 430.091 398.207 431.976 384.655C433.887 370.896 436.184 357.187 438.649 343.52C440.049 335.749 441.399 327.963 442.88 320.204C444.376 312.356 445.557 304.354 447.507 296.603C447.568 296.353 447.976 296.399 447.964 296.668C447.695 303.635 446.734 310.616 446.061 317.556C445.587 322.424 445.076 327.285 444.557 332.146C445.611 331.904 446.749 332.046 447.98 332.069C449.999 332.112 452.018 332.089 454.037 332.1C458.072 332.116 462.111 332.135 466.149 332.154C473.091 332.185 480.061 332.289 486.991 332.789C487.418 332.685 487.849 332.581 488.284 332.45C489.941 331.95 490.472 330.765 490.58 329.106C490.861 324.941 490.264 320.623 490.191 316.443C490.114 312.002 490.141 307.56 490.28 303.123C490.368 300.217 490.084 296.653 491.761 294.128C491.599 291.827 491.403 289.525 491.161 287.231C490.253 278.618 488.703 269.965 486.037 261.71C484.111 255.744 480.949 250.271 476.403 245.922C467.484 237.401 455.149 234.029 443.626 230.65C429.699 226.563 415.822 221.529 403.264 214.154C403.418 214.489 403.322 214.928 402.868 215.02C402.137 215.17 401.599 215.567 401.199 216.109C401.022 217.01 400.761 217.899 400.407 218.769C400.334 218.946 400.241 219.104 400.137 219.242C399.961 220.539 399.941 221.867 399.849 222.802C399.541 225.974 398.968 229.072 398.099 232.136C396.349 238.298 393.607 244.221 389.984 249.505C382.707 260.105 371.841 268.199 359.361 271.47C346.761 274.769 332.787 273.387 321.461 266.783C310.984 260.675 302.864 250.564 300.487 238.54C299.222 232.151 299.426 225.647 300.618 219.265C300.811 218.242 301.022 217.191 301.261 216.133C293.272 223.003 283.026 227.217 273.141 230.469C262.576 233.945 251.745 236.801 242.118 242.562C237.684 245.214 233.476 248.516 230.395 252.715C226.572 257.926 224.922 263.992 223.888 270.296C222.499 278.764 221.487 287.308 220.534 295.833C220.057 300.121 219.614 304.416 219.211 308.711C218.999 310.986 218.795 313.26 218.607 315.539C218.468 317.148 218.314 318.429 217.791 319.649C220.814 320.458 223.876 321.066 226.961 321.612C230.603 322.263 234.311 322.64 238.003 322.867C239.907 322.982 241.814 323.021 243.722 323.052C244.672 323.067 245.622 323.044 246.572 323.052C247.114 323.056 247.557 323.202 248.03 323.298C247.607 309.762 247.468 296.214 248.287 282.697C248.307 282.355 248.861 282.232 248.922 282.613C251.63 298.508 253.061 314.638 254.161 330.715C255.241 346.479 256.376 362.244 257.33 378.02C258.203 392.515 258.53 407.152 256.057 421.519C254.849 428.531 252.857 435.332 250.03 441.864C247.245 448.303 243.311 454.122 240.107 460.346C237.176 466.046 235.095 472.258 236.407 478.346M256.481 624.582C262.195 622.923 267.589 620.541 272.912 617.897C278.048 615.345 283.494 612.627 287.847 608.86C287.941 608.778 287.841 608.607 287.724 608.649C282.357 610.567 277.271 613.412 272.043 615.705C266.612 618.087 261.057 620.171 255.605 622.505C254.398 623.021 255.28 624.93 256.481 624.582M267.922 652.673C269.326 653.62 270.868 654.478 272.468 655.037C274.641 655.802 276.841 655.999 279.03 655.775C279.357 651.83 279.757 647.885 280.237 643.952C275.311 646.438 270.157 648.505 265.011 650.575C266.03 651.188 266.907 651.984 267.922 652.673M288.105 632.347C288.252 633.941 290.375 633.905 290.557 632.347C291.382 625.294 291.794 618.182 292.502 611.115C293.757 598.583 295.834 586.248 298.689 573.984C299.409 570.887 300.161 567.8 300.993 564.73C301.424 563.139 302.89 560.344 301.904 558.716C300.691 556.714 299.013 559.547 300.308 559.708C300.44 559.725 300.439 559.536 300.337 559.496C301.344 559.896 300.644 560.803 300.38 561.52C300.126 562.21 299.865 562.898 299.612 563.589C299.107 564.97 298.614 566.355 298.136 567.745C297.098 570.754 296.125 573.78 295.264 576.844C293.582 582.837 292.102 588.901 290.964 595.022C288.695 607.225 286.959 619.919 288.105 632.347M433.061 668.665C433.872 668.245 434.849 668.095 435.711 668.268C438.549 668.834 439.676 670.477 442.111 671.713C443.541 672.44 446.014 673.045 447.514 673.137C450.011 673.287 451.453 673.114 453.741 672.386C455.407 671.855 457.222 670.87 458.461 669.727C461.757 666.69 463.384 662.487 464.826 658.219C466.414 653.512 467.78 648.643 470.226 644.29C471.457 642.104 473.018 639.991 474.88 638.302C476.649 636.697 479.499 635.531 480.703 633.402C481.945 631.208 482.049 628.029 482.418 625.562C482.788 623.087 483.057 620.597 483.234 618.103C483.922 608.397 483.276 597.751 477.876 589.337C471.095 578.78 458.818 575.717 447.438 572.761C447.264 574.577 447.057 576.39 446.807 578.199C446.503 580.416 446.134 582.625 445.707 584.823C447.757 586.462 449.561 588.556 450.818 590.088C453.876 593.817 456.157 598.07 457.73 602.627C459.245 607.019 459.991 611.676 459.857 616.321C459.788 618.631 459.434 620.882 458.784 623.099C458.603 623.711 458.388 624.373 458.13 625.039C458.934 626.436 459.084 628.241 458.149 629.607C449.799 641.812 441.449 654.013 433.099 666.217C432.714 666.779 432.33 667.345 431.945 667.91C432.322 668.149 432.691 668.403 433.061 668.665M447.495 572.141C448.076 572.149 448.657 572.164 449.241 572.18C448.672 572.022 448.103 571.864 447.534 571.706C447.522 571.852 447.511 571.995 447.495 572.141M447.83 567.796C453.003 569.212 458.168 570.671 463.18 572.591C466.111 573.715 469.568 574.924 472.499 576.698C473.364 577.11 474.207 577.556 475.03 578.045C474.914 577.437 474.918 576.794 475.064 576.148C475.741 573.119 476.245 570.055 476.811 567.003C476.872 566.676 476.945 566.014 477.068 565.252C476.514 564.247 476.099 563.154 475.63 562.065C474.776 560.091 473.922 558.112 473.064 556.138C471.457 552.416 469.849 548.694 468.241 544.976C464.945 537.352 461.664 529.708 458.503 522.026C456.361 516.815 454.214 511.6 452.149 506.354C451.576 507.027 450.688 507.489 449.48 507.535C443.653 507.743 442.88 515.456 443.361 519.74C443.726 523 444.599 526.206 445.211 529.427C445.834 532.718 446.349 536.024 446.795 539.342C448.053 548.775 448.414 558.312 447.83 567.796M496.607 644.444C503.664 644.033 510.772 644.71 517.664 646.265C524.326 647.766 530.799 650.01 537.468 651.503C540.718 652.23 544.007 652.731 547.345 652.808C548.949 652.842 550.568 652.8 552.164 652.619C552.364 652.596 552.618 652.527 552.876 652.461C552.418 651.057 551.599 649.875 550.426 648.693C548.795 647.05 547.422 646.142 545.395 644.841C541.314 642.224 537.064 639.853 533.684 636.312C529.357 631.774 527.307 625.955 526.237 619.878C525.091 613.365 524.353 606.784 523.253 600.264C522.349 594.88 521.311 589.495 520.037 584.176C518.545 579.492 516.599 574.958 514.387 570.548C512.691 567.168 510.814 563.897 508.984 560.595C507.453 562.015 505.168 561.753 503.872 559.917C503.272 559.067 502.561 558.243 502.28 557.219C502.011 556.246 502.099 555.122 502.091 554.125C502.076 552.251 502.061 550.376 502.045 548.498C502.011 544.622 501.968 540.743 501.914 536.867C501.811 529.362 501.657 521.857 501.403 514.352C500.891 499.261 500.072 484.177 498.372 469.167C495.037 439.697 486.568 411.154 482.918 381.734C482.468 378.116 482.076 374.456 481.787 370.769C480.199 359.457 479.926 347.976 480.995 336.58C468.599 336.472 456.207 337.096 443.88 338.447C442.391 352.306 440.691 366.127 438.934 379.948C437.211 393.469 435.734 407.105 435.891 420.753C435.968 427.469 436.426 434.201 437.53 440.828C438.595 447.233 440.214 453.525 441.937 459.78C443.668 466.049 445.53 472.288 447.057 478.612C449.372 484.423 451.891 490.15 454.484 495.843C461.022 510.203 467.784 524.455 474.187 538.876C476.034 543.04 477.861 547.213 479.699 551.381C480.618 553.467 481.537 555.553 482.457 557.635C483.491 559.983 484.83 562.273 484.818 564.898C484.811 566.464 483.88 567.6 482.668 568.104C483.184 571.133 483.353 574.204 483.387 577.275C483.407 579.107 482.203 580.616 480.611 581.205C480.614 581.601 480.626 581.994 480.645 582.39C480.668 582.414 480.691 582.437 480.714 582.456C489.072 590.915 491.345 603.182 491.276 614.655C491.241 620.655 490.63 626.705 489.607 632.613C488.98 636.239 487.399 639.229 484.499 641.523C482.449 643.143 480.118 644.71 478.784 646.681C478.511 647.088 478.253 647.501 478.007 647.92C483.737 645.514 490.58 644.795 496.607 644.444M401.449 213.057C401.457 213.334 401.457 213.615 401.449 213.893C401.799 213.796 402.168 213.742 402.576 213.746C402.195 213.523 401.826 213.284 401.449 213.057M83.8644 595.911C86.6337 588.564 90.7759 581.932 95.7106 575.855C100.676 569.739 106.368 564.266 112.195 558.982C118.341 553.409 124.572 547.917 130.861 542.505C143.241 531.852 156.157 521.653 170.376 513.586C170.38 513.578 170.384 513.57 170.391 513.563C170.414 513.551 170.437 513.543 170.464 513.532C172.776 512.223 175.122 510.961 177.507 509.772C178.087 509.483 178.645 509.502 179.118 509.702C179.13 509.687 179.137 509.668 179.153 509.656C180.857 508.059 182.649 506.635 184.503 505.218C186.037 502.59 187.322 499.822 188.303 496.909C188.399 496.624 188.553 496.393 188.734 496.197C189.118 495.142 189.549 494.095 189.93 493.045C190.968 490.162 191.984 487.272 193.011 484.385C195.064 478.612 197.114 472.835 199.176 467.065C203.295 455.531 207.253 443.938 211.245 432.357C214.995 421.48 218.841 410.558 220.745 399.177C222.718 387.4 222.268 375.28 222.426 363.387C222.514 356.521 222.557 349.635 222.911 342.781C223.18 337.539 223.526 332.312 224.476 327.174C221.795 326.977 219.126 326.62 216.48 326.162C213.568 325.653 207.487 325.284 207.614 321.12C207.664 319.549 208.864 318.456 210.318 318.056C210.657 317.96 210.999 317.921 211.345 317.917C211.037 315.293 211.68 312.444 211.93 309.85C212.307 305.932 212.714 302.014 213.157 298.104C214.045 290.222 215.068 282.351 216.207 274.499C217.241 267.371 218.299 260.201 221.63 253.716C224.161 248.786 227.918 244.494 232.249 241.069C250.257 226.824 274.614 226.47 293.545 214.07C298.441 210.86 302.822 206.845 305.987 201.888C307.795 199.052 309.007 195.996 309.868 192.751C310.426 190.657 310.949 188.61 311.618 186.551C312.276 184.538 312.461 182.887 313.703 181.112C313.837 180.92 314.126 180.989 314.141 181.228C314.261 183.06 313.93 184.669 313.837 186.493C313.745 188.394 313.807 190.269 313.614 192.182C313.568 192.663 313.511 193.144 313.453 193.621C313.518 193.736 313.572 193.863 313.614 194.002C314.495 196.812 314.014 199.856 312.518 202.285C312.537 202.539 312.518 202.797 312.449 203.054C311.695 205.86 310.326 208.454 309.303 211.175C308.334 213.758 307.511 216.398 306.872 219.085C305.668 224.153 305.199 229.365 305.703 234.561C306.787 245.699 313.391 255.19 322.637 261.236C332.903 267.949 345.922 269.619 357.737 266.709C369.787 263.742 379.753 256.044 386.791 245.957C390.703 240.353 393.695 234.06 395.561 227.486C396.276 224.965 396.699 222.318 397.384 219.777C396.714 219.412 396.311 218.692 396.699 217.745C397.714 215.267 397.876 212.823 397.126 210.282C390.291 205.648 383.941 200.229 378.53 193.987C373.149 187.779 367.572 180.239 365.249 172.264C364.337 169.131 369.034 167.037 370.587 170.013C372.287 173.265 373.68 176.617 375.537 179.796C377.403 182.998 379.537 186.039 381.903 188.891C386.611 194.572 392.084 199.644 398.061 203.97C411.387 213.615 426.791 219.812 442.411 224.658C454.507 228.41 467.161 231.682 477.203 239.81C488.276 248.774 492.087 262.868 494.168 276.401C495.049 282.124 495.561 287.882 495.791 293.659C496.034 294.12 496.091 294.663 495.845 295.171C496.187 306.009 495.564 316.894 494.53 327.686C494.534 328.829 494.449 329.956 494.195 331.026C494.072 332.216 493.945 333.405 493.814 334.59C493.784 334.891 493.637 335.095 493.353 335.198C492.261 335.591 491.168 335.826 490.064 335.899C489.876 335.964 489.684 336.022 489.491 336.076C489.184 336.472 488.699 336.738 488.034 336.719C487.653 336.707 487.272 336.699 486.895 336.688C486.461 336.811 486.037 336.961 485.637 337.173C485.337 337.331 485.041 337.4 484.761 337.408C484.276 342.915 484.107 348.438 484.249 353.946C484.676 361.701 485.634 369.422 487.145 377.154C489.949 391.502 494.022 405.597 497.741 419.725C505.418 448.865 508.968 478.673 510.341 508.732C510.73 517.227 510.914 525.736 511.053 534.238C511.122 538.368 511.172 542.494 511.214 546.624C511.234 548.748 511.253 550.873 511.272 553.001C511.284 553.994 511.353 555.01 511.287 555.999C511.272 556.246 511.237 556.473 511.195 556.696C511.199 556.704 511.203 556.711 511.207 556.723C515.23 562.207 518.295 568.535 520.98 574.758C523.726 581.116 526.061 587.652 527.864 594.341C529.672 601.042 530.984 607.808 532.245 614.628C533.299 620.312 534.522 626.613 538.907 630.754C542.218 633.879 546.834 635.985 550.745 638.521C555.207 641.415 559.203 644.952 560.961 650.125C562.184 653.712 561.591 657.827 557.968 659.705C554.849 661.321 550.426 661.198 546.999 661.04C539.757 660.702 532.711 658.739 525.772 656.768C518.145 654.601 510.587 652.623 502.618 652.408C498.626 652.3 494.591 652.488 490.645 653.112C486.545 653.755 482.614 655.125 478.534 655.779C477.176 656.002 475.818 655.714 474.914 654.79C472.318 662.133 470.83 670.135 464.88 675.796C460.303 680.146 453.795 682.366 447.514 682.001C444.126 681.801 440.911 680.973 437.857 679.487C436.395 678.775 435.076 677.856 433.811 676.836C433.034 676.212 432.491 675.539 432.114 674.792C430.976 674.099 429.853 673.384 428.745 672.648C422.48 681.97 416.253 691.369 409.257 700.133C401.341 710.047 391.784 718.157 379.872 722.782C368.768 727.093 356.484 727.944 344.703 726.939C332.272 725.877 320.057 723.048 308.137 719.438C302.314 717.675 296.268 716.047 290.745 713.457C284.849 710.693 280.768 705.828 279.384 699.424C278.022 693.128 278.184 686.396 278.137 679.988C278.091 673.376 278.253 666.748 278.699 660.151C278.703 660.132 278.703 660.116 278.703 660.097C276.534 660.975 274.176 661.44 271.849 661.56C269.511 661.679 267.08 661.383 264.887 660.544C262.272 659.547 258.657 657.903 258.18 654.79C258.107 654.336 258.103 653.855 258.161 653.381C256.568 654.055 254.984 654.748 253.422 655.475C248.53 657.746 243.653 660.063 238.853 662.522C236.453 663.75 234.095 665.101 231.657 666.251C231.003 666.559 230.345 666.902 229.68 667.248C227.253 668.869 224.849 670.524 222.457 672.209C215.691 676.978 209.007 681.858 202.211 686.577C195.222 691.43 188.099 696.222 180.349 699.779C172.395 703.431 163.941 705.755 155.13 705.428C145.726 705.082 136.561 702.422 127.507 700.086C122.984 698.924 118.461 697.758 113.937 696.591C113.307 696.872 112.541 696.83 111.903 696.203C111.841 696.141 111.78 696.08 111.718 696.018C111.068 695.852 110.418 695.683 109.768 695.518C109.484 695.125 109.207 694.725 108.926 694.329C103.953 691.981 99.7875 687.758 96.6259 683.074C96.3875 682.871 96.1452 682.674 95.9106 682.466C90.3183 677.555 85.9952 671.463 83.0913 664.616C77.2875 650.929 76.9644 635.454 78.5452 620.874C79.4644 612.415 80.8529 603.901 83.8644 595.911Z" fill="black"/>
<path fill-rule="evenodd" clip-rule="evenodd" d="M282.743 55.6008C283.597 53.4435 285.108 50.7321 287.633 50.6239C289.586 44.6487 294.442 38.5634 301.197 38.725C321.023 18.4365 345.983 19.393 372.079 23.6878C385.847 26.243 399.827 31.2464 410.095 41.1201C422.394 52.7442 427.183 73.0269 417.552 87.7258C425.875 92.1892 426.037 102.781 422.477 110.424C426.756 113.385 427.016 120.572 422.198 122.83C422.454 123.88 422.273 124.965 421.784 125.898C424.173 127.888 427.283 129.358 429.853 130.622C430.989 131.18 431.644 132.092 431.917 133.12C440.357 138.661 461.402 152.202 461.151 162.979C461.275 168.601 457.108 172.301 452.043 173.775C455.056 179.803 457.344 186.844 454.459 193.347C453.662 195.312 447.688 201.086 447.387 201.193C446.861 201.644 438.291 197.707 434.126 195.698C433.318 200.956 427.7 203.71 422.857 201.909C418.265 200.524 415.443 196.634 412.546 193.095C408.702 201.487 397.392 201.583 390.082 197.965C383.517 194.931 378.526 189.368 375.746 182.666C360.984 189.897 343.712 192.005 327.674 189.117C326.645 190.939 324.366 192.164 322.337 191.459C313.808 188.893 304.379 188.749 297.149 182.871C282.081 172.048 280.812 152.094 281.862 135.085C282.794 118.126 281.979 101.026 285.059 84.2503C283.722 79.3112 281.499 74.9447 279.441 70.3047C277.206 65.439 277.252 58.206 282.743 55.6008Z" fill="#EDB98A"/>
<path fill-rule="evenodd" clip-rule="evenodd" d="M351.154 21.938L350.568 21.9404C349.6 21.9467 348.633 21.9659 347.669 21.9977C342.573 22.1655 337.258 22.8271 331.274 23.9595L330.364 24.1344C328.876 24.426 327.543 24.7186 325.416 25.2156L321.196 26.2109C319.047 26.712 317.465 27.0586 316.006 27.3376L315.815 27.3737C315.815 27.3737 304.568 32.7681 300.936 36.317L300.573 36.6739L300.419 36.8282L298.84 36.8781L298.824 37.0776L298.811 37.0796C297.243 37.3238 295.825 38.1364 294.505 39.4016L294.364 39.5389L294.229 39.6749C293.201 40.7209 292.382 41.8355 291.253 43.6021L290.996 44.0057L290.537 44.7345L290.166 45.3196C289.924 45.7024 289.692 46.0811 289.469 46.4562L289.249 46.8303L289.091 47.1052L285.014 49.4853C284.426 49.8282 283.892 50.2721 283.403 50.8036L283.27 50.9507L283.14 51.1021L282.029 52.425L282.253 52.6583L282.145 52.8008L281.951 53.0666L281.762 53.3361L281.577 53.6091L281.498 53.7291L281.378 53.9881L281.32 54.1175L281.274 54.2239L281.134 54.2956L280.851 54.807C279.381 57.461 278.589 60.475 278.536 63.5722C278.499 65.7086 278.762 67.6488 279.388 69.5205C279.82 70.8146 280.4 71.8315 281.402 73.2316L282.195 74.3188L282.356 74.5431L282.55 74.8161C282.58 74.8598 282.61 74.9029 282.64 74.9457C283.928 76.8125 294.936 80.346 301.702 80.5169L301.906 80.521L302.166 80.5235C302.812 80.5263 303.436 80.5032 304.037 80.4529C306.64 80.2351 309.074 79.687 311.901 78.7908L312.487 78.6011L315.602 77.5541C315.701 77.5212 315.781 77.495 315.837 77.4773L316.121 77.3883C316.807 77.1778 317.305 77.0567 317.645 77.0129L317.714 77.0045L317.721 77.1334L317.724 77.2549L317.723 77.3538C317.704 78.7883 318.574 79.834 319.925 80.5004C320.785 80.9248 321.893 81.2278 323.284 81.4553L323.506 81.4906C325.779 81.8421 328.49 81.9922 333.026 82.0951C333.199 82.099 333.373 82.0968 333.548 82.0887C334.522 82.0441 335.287 81.878 336.71 81.4693L337.383 81.2762L337.747 81.1753C338.424 80.9924 338.801 80.9194 339.157 80.8995L339.26 80.8951L339.363 80.8934C339.791 80.8927 340.099 80.988 340.403 81.2201L340.559 81.3447L342.65 83.0976C342.922 83.3244 343.166 83.5255 343.345 83.6682L343.418 83.7256C346.288 85.9773 349.024 87.2636 352.248 87.3859L352.463 87.3924L352.688 87.3949C352.852 87.3952 353.016 87.3922 353.181 87.386C354.538 87.3343 355.948 86.8308 357.872 85.8598L358.271 85.6557L358.55 85.51C358.692 85.435 358.841 85.3561 359.002 85.2698L360.437 84.5012L361.171 84.1176C362.048 83.6667 362.536 83.4489 362.865 83.3592L362.919 83.345L362.95 83.3747C363.711 84.1186 364.364 85.0547 365.067 86.347L365.173 86.5435L365.327 86.8364L366.326 88.8256L366.514 89.1955C367.256 90.6313 367.842 91.549 368.609 92.3541C369.723 93.5226 371.072 94.2005 372.724 94.3094L372.891 94.3183L373.088 94.3232C373.866 94.3308 374.69 94.2112 375.585 93.9627L375.792 93.903L375.995 93.841C377.327 93.42 379.433 93.6821 381.105 94.5703C382.922 95.5351 383.922 97.007 383.878 98.8882C383.856 99.8226 383.748 100.824 383.559 101.91L383.506 102.208C383.258 103.55 382.922 104.897 382.404 106.693L381.291 110.451L381.165 110.889L381.039 111.34C380.859 111.998 380.715 112.57 380.596 113.109C380.142 115.17 380.066 116.718 380.521 118.036C382.529 123.85 386.013 126.939 389.98 127.069L390.117 127.073L390.286 127.073C393.333 127.04 396.094 125.053 396.061 122.479C396.058 122.21 396.007 121.958 395.917 121.731L395.877 121.635L395.857 121.594L395.889 121.517C396.825 119.274 398.991 117.636 401.534 117.315L401.679 117.298L401.821 117.285C401.961 117.273 402.1 117.264 402.232 117.26L402.361 117.256L402.516 117.255C405.905 117.26 409.259 119.518 411.898 123.212C412.448 123.982 412.959 124.823 413.417 125.711L413.568 126.009L414.302 127.511L414.798 128.963C417.528 136.961 416.145 145.329 410.817 149.656L410.654 149.786C408.734 151.292 406.476 152.208 404.066 152.454C403.788 152.483 403.509 152.501 403.241 152.508L403.041 152.511L402.812 152.51C402.027 152.5 401.276 152.402 400.601 152.22C400.05 152.071 399.667 151.891 399.401 151.661C399.331 151.601 399.274 151.546 399.226 151.491L399.185 151.442L399.169 151.421L395.527 151.962C394.908 155.897 393.118 159.974 390.207 164.65L390.024 164.943L389.704 165.447L389.378 165.952C385.953 171.224 382.132 175.664 377.933 179.07L377.64 179.306L377.246 179.619L376.885 179.902C376.183 180.447 375.599 180.871 375.014 181.249L374.867 181.343L373.486 182.219L374.127 183.723C375.623 187.234 377.687 190.426 380.231 193.144L380.471 193.397L382.24 195.222L383.6 193.49C383.61 193.476 383.641 193.46 383.677 193.453L383.702 193.45H383.716L383.734 193.452L383.756 193.458L383.778 193.468C384.796 194.02 385.355 194.442 386.159 195.269L386.275 195.39L386.411 195.533L386.598 195.728C387.433 196.583 388.325 197.312 389.297 197.919C391.542 199.319 394.035 200.098 396.616 200.168L396.858 200.172L397.102 200.172C397.19 200.172 397.277 200.17 397.365 200.168C402.75 200.018 407.576 196.566 409.947 191.506C410.042 191.305 410.128 191.24 410.288 191.226L410.333 191.224L410.39 191.223C410.786 191.226 411.271 191.461 411.541 191.778L411.589 191.838L412.497 193.059L412.845 193.519C416.083 197.774 418.742 200.101 422.313 200.808C422.595 200.863 422.892 200.897 423.208 200.911L423.4 200.919H423.512C425.048 200.923 426.817 200.478 428.197 199.694C430.022 198.657 431.15 197.062 431.007 195.085L430.996 194.959L430.971 194.747C430.852 193.692 431.696 193.118 432.342 193.636L432.385 193.673L432.439 193.722C435.1 196.219 438.16 198.135 441.456 199.317L441.747 199.419L442.181 199.567C444.259 200.269 445.725 200.617 447.268 200.644C448.604 200.668 449.715 200.185 450.518 199.259C451.054 198.64 451.381 197.953 451.708 196.951L451.763 196.781L451.882 196.391L451.956 196.137C452.912 192.77 452.933 189.17 452.182 185.197C451.622 182.23 450.729 179.363 449.227 175.345L448.936 174.571L448.335 172.99C448.274 172.832 448.635 172.279 448.859 172.216L448.885 172.211L449.089 172.233C449.232 172.247 449.376 172.256 449.524 172.262L449.749 172.267H449.896C454.773 172.218 458.498 167.432 458.463 162.363C458.426 157.614 456.039 153.531 451.482 148.684L451.087 148.267L450.658 147.822L450.235 147.389C446.186 143.264 442.047 139.662 437.736 136.574L437.379 136.319L436.982 136.039C435.53 135.02 434.119 134.096 432.166 132.881L431.016 132.171L426.357 126.668C426.245 126.605 426.135 126.542 426.026 126.479L425.967 124.57L421.477 124.662C422.617 124.078 423.56 123.368 424.327 122.459C426.875 119.435 426.556 115.234 423.457 113.171L423.348 113.099L422.042 112.292L420.973 113.231C420.042 114.048 419.055 114.59 418.025 114.84L417.862 114.877L417.057 115.048L416.9 115.302L416.809 115.17C416.81 115.157 416.812 115.144 416.816 115.131L416.824 115.113L416.841 115.086L416.943 114.962L417.055 114.828C417.413 114.406 417.816 113.997 418.546 113.293L419.059 112.8L419.458 112.411C420.505 111.382 421.062 110.745 421.655 109.86C423.131 107.657 423.964 105.174 423.998 102.651C424.071 97.4064 420.811 92.4476 415.98 90.1843C415.811 90.1051 415.686 89.5417 415.889 89.1694C420.566 80.581 421.864 70.2862 419.515 60.7095C417.322 51.7745 411.868 43.8878 404.059 37.8465C390.653 27.4747 372.057 22.1262 352.326 21.9421L351.728 21.938H351.154Z" fill="#ECDCBF"/>
<path fill-rule="evenodd" clip-rule="evenodd" d="M422.843 127.586C421.954 127.362 421.478 128.557 422.231 129.037C427.018 132.083 431.962 134.804 436.585 138.118C440.983 141.269 445.044 144.858 448.832 148.717L449.252 149.147C452.676 152.672 456.468 157.157 456.507 162.357C456.536 166.399 453.422 170.811 449.077 170.28C447.44 170.08 445.936 172.158 446.507 173.656L447.108 175.235C449.525 181.626 451.985 188.867 450.075 195.591L450.005 195.831C449.543 197.37 449.056 198.731 447.271 198.7C445.613 198.671 443.889 198.112 442.337 197.578C439.118 196.47 436.2 194.622 433.723 192.298C431.533 190.243 428.734 192.331 429.029 194.943L429.039 195.027C429.443 197.958 424.776 199.319 422.655 198.9C418.466 198.071 415.479 193.871 413.101 190.669C411.957 189.131 409.18 188.525 408.175 190.669C406.184 194.916 402.081 198.091 397.281 198.224C394.787 198.293 392.395 197.583 390.283 196.265C389.421 195.728 388.65 195.088 387.943 194.363L387.768 194.18C386.721 193.071 385.999 192.481 384.663 191.756C383.347 191.042 381.644 191.927 381.652 193.485C381.663 195.502 382.253 196.844 383.644 198.307C384.794 199.519 386.161 200.583 387.598 201.433C390.486 203.14 393.919 204.101 397.281 203.99C402.58 203.814 407.638 201.171 410.917 197.061C414.264 201.066 418.417 204.746 423.814 204.647C427.854 204.573 431.619 202.469 433.423 199.208C435.969 200.965 438.764 202.339 441.754 203.236L442.02 203.315C446.253 204.547 451.123 205.037 453.848 200.833C456.405 196.885 456.596 191.419 456.01 186.907C455.486 182.877 454.247 179.049 452.824 175.274C456.875 174.063 460.019 170.256 461.099 166.151C462.733 159.945 459.563 153.926 455.645 149.314C451.388 144.305 446.031 140.068 440.634 136.359C435.251 132.661 429.22 129.185 422.843 127.586ZM284.431 79.0399C284.421 78.8675 284.139 78.8071 284.113 78.9965C282.253 92.4972 281.177 105.971 280.286 119.564C279.834 126.451 279.321 133.33 278.759 140.209C278.22 146.804 277.323 153.575 277.526 160.198C277.843 170.568 282.876 179 291.127 185.068C299.034 190.883 308.842 193.758 318.466 194.973C324.055 195.678 329.721 195.712 335.316 195.05C338.222 194.705 341.124 194.247 343.97 193.559L345.201 193.251C347.442 192.678 349.945 191.901 350.265 189.244C350.42 187.957 349.736 187.008 348.633 186.362C347.195 185.52 345.546 186.016 344.065 186.4C341.567 187.046 339.043 187.601 336.491 187.985C331.009 188.81 325.374 188.859 319.864 188.288C310.595 187.327 300.818 184.318 293.672 178.106C290.566 175.406 287.866 172.117 286.446 168.209C284.619 163.184 284.89 157.703 284.951 152.442C285.093 140.209 284.968 127.975 285.138 115.741C285.309 103.469 285.16 91.2937 284.431 79.0399ZM377.636 21.8683C366.806 19.0734 355.815 18.3471 344.691 19.1884C334.199 19.9813 322.248 22.3302 313.68 28.7873C313.264 29.1006 313.513 29.6937 314.028 29.6117C319.756 28.698 325.34 27.0361 331.044 25.9365C336.53 24.8789 342.115 24.0849 347.701 23.9009C366.594 23.2778 387.617 27.5619 402.851 39.3487C409.995 44.8752 415.446 52.3064 417.616 61.1483C419.841 70.2171 418.637 80.0246 414.169 88.2283C413.526 89.4095 413.791 91.2781 415.133 91.9069C419.206 93.8152 422.108 98.0427 422.044 102.605C422.014 104.817 421.252 106.939 420.027 108.768C418.731 110.702 416.759 112.055 415.311 113.862C414.74 114.573 414.718 115.552 415.17 116.207C414.323 116.579 413.409 116.778 412.575 117.217C411.868 117.589 411.848 118.751 412.575 119.117C414.414 120.044 416.401 119.06 417.642 117.567C417.864 117.3 418.055 117.023 418.23 116.739C419.716 116.424 421.048 115.678 422.21 114.657C424.426 115.985 424.729 118.94 422.826 121.198C421.854 122.351 420.473 123.062 419.078 123.574L418.91 123.634C417.552 124.117 416.308 124.386 415.426 125.473C414.844 124.259 414.176 123.115 413.431 122.073C410.724 118.283 406.563 114.92 401.624 115.347C397.756 115.681 394.405 118.452 393.613 122.275C393.554 122.558 393.98 122.779 394.107 122.484C395.963 118.154 401.835 117.995 405.333 120.251C409.446 122.905 411.694 127.907 412.596 132.565C413.484 137.154 412.971 142.734 409.539 146.224C408.134 147.653 406.224 148.64 404.23 148.9C403.256 149.028 402.396 148.903 401.464 148.715L400.846 148.586C400.418 148.497 399.992 148.425 399.542 148.465L398.873 148.555V148.555L398.492 148.733C398.162 148.882 398.192 148.841 398.581 148.611C397.444 148.518 396.856 149.359 396.793 150.282C396.757 150.305 396.722 150.33 396.693 150.366C392.375 155.653 389.169 161.731 384.588 166.845L383.246 168.343C379.798 172.182 375.862 176.343 371.177 178.334L370.62 178.565C369.257 179.141 367.889 179.929 367.715 181.573C367.559 183.046 368.719 184.154 370.056 184.497C373.102 185.279 376.573 182.571 378.804 180.794C383.6 176.974 387.631 172.104 390.959 166.981L391.289 166.471C394.025 162.194 396.597 157.317 397.396 152.241L397.54 152.475C397.551 152.492 397.559 152.504 397.565 152.512C397.728 152.733 397.908 152.921 398.116 153.1C398.676 153.584 399.359 153.866 400.069 154.058C401.401 154.418 402.861 154.489 404.23 154.348C407.011 154.064 409.611 153.005 411.809 151.28C418.503 146.027 419.294 136.251 416.586 128.321C418.808 128.852 421.338 127.356 423.073 126.074C425.062 124.603 426.703 122.479 427.094 119.982C427.484 117.503 425.904 114.221 423.562 113.264C425.993 110.344 427.408 106.2 427.554 102.882C427.808 97.1105 424.743 91.6552 420.039 88.5062C424.463 79.0185 425.315 68.0114 422.336 57.9376C416.425 37.9474 396.624 26.7686 377.636 21.8683ZM394.491 173.75L394.435 173.575C393.964 172.029 393.356 168.954 391.047 170.124C388.842 171.242 390.25 174.552 391.021 176.163C391.944 178.091 393.537 179.637 395.677 180.051C397.418 180.388 399.33 179.955 400.547 178.609C400.902 178.217 401.103 177.787 401.313 177.312C401.395 177.127 401.432 177 401.447 176.918C401.467 177.008 401.524 177.143 401.67 177.302C402.641 178.364 403.559 179.6 404.264 180.857C404.431 181.154 404.957 180.946 404.824 180.621C404.003 178.611 404.141 175.503 402.311 174.049C400.697 172.768 399.181 173.776 398.328 175.269L398.284 175.346C397.037 177.613 395.049 175.46 394.491 173.75ZM412.04 166.488L411.872 166.254C410.147 163.895 407.237 161.057 404.326 163.251C403.401 163.949 403.366 165.114 404.326 165.806L404.69 166.066C405.961 166.968 407.228 167.82 408.162 169.114C409.177 170.52 410.088 172.01 411.453 173.113C413.866 175.065 417.767 175.45 419.861 172.819L420.067 172.558C420.242 172.332 420.443 172.06 420.606 171.789L420.733 171.965C420.746 171.983 420.758 172 420.768 172.016L420.798 172.06C421.658 173.437 422.746 174.57 424.1 175.465C426.674 177.164 429.574 177.4 432.486 176.501C432.771 176.412 432.694 176.03 432.419 176.005C428.968 175.682 425.606 173.229 424.203 170.07L424.044 169.716C423.476 168.459 422.84 167.265 421.437 166.772C420.071 166.292 418.638 166.799 417.701 167.833C416.918 168.697 416.716 170.415 415.304 170.036C413.757 169.621 412.886 167.682 412.04 166.488ZM421.923 145.504C421.159 144.922 419.962 145.546 419.751 146.388C418.798 150.201 422.758 154.693 426.563 154.811C427.543 154.842 428.485 154.604 429.353 154.151C430.026 153.799 430.823 152.9 431.561 152.751C432.516 152.559 433.361 153.83 434.033 154.483C434.866 155.293 435.691 156.045 436.625 156.736C436.998 157.012 437.577 156.548 437.419 156.125L437.103 155.282C435.96 152.283 433.99 147.906 430.305 149.15C428.499 149.76 427.14 151.816 425.238 150.188C423.716 148.884 423.574 146.759 421.923 145.504ZM405.662 130.155C402.226 126.208 394.15 128.293 392.618 133.094C392.28 134.155 392.633 135.533 393.46 136.283C394.551 137.272 396.106 137.572 397.43 136.796C398.569 136.129 399.037 135.038 399.874 134.101C401.102 132.729 402.773 131.967 404.494 131.422C404.924 131.648 405.325 131.945 405.684 132.304C405.868 132.488 406.215 132.236 406.052 132.02C405.83 131.726 405.56 131.449 405.251 131.194L405.4 131.15V131.15C405.853 131.024 405.951 130.487 405.662 130.155ZM383.332 86.5812C382.562 86.5824 381.665 87.306 381.764 88.1508L381.793 88.3853C382.015 89.9937 382.531 90.9044 384.14 91.6516C385.505 92.2847 386.939 92.6346 388.435 92.7732C389.001 92.8255 389.601 92.8286 390.208 92.7835L390.336 93.5219C390.59 94.9984 390.825 96.476 390.869 97.9809C390.951 100.771 389.911 103.07 388.795 105.561C386.653 110.346 386.413 115.122 388.744 119.9C389.086 120.599 390.051 121.168 390.831 121.097C391.841 121.006 392.329 120.713 392.917 119.9C393.41 119.217 393.297 118.252 392.956 117.538L392.917 117.46C391.742 115.182 391.371 112.608 391.971 110.104C392.535 107.75 393.813 105.635 394.383 103.289C395.312 99.467 394.323 95.6759 392.389 92.3971C393.848 91.9765 395.198 91.2267 396.099 90.0832L396.095 90.0817V90.0817C396.439 89.7141 396.251 88.9463 395.648 88.9925L394.965 89.0476C393.013 89.2109 391.216 89.3807 389.242 88.8362C388.23 88.5568 387.357 88.0909 386.488 87.5268L386.302 87.4045C385.215 86.6817 384.612 86.5797 383.332 86.5812ZM378.66 58.3339C373.766 58.0557 369.588 61.2875 367.557 65.5897C365.351 70.2603 366.276 75.6195 368.224 80.2149L368.777 81.5011C369.745 83.7294 371.017 86.3794 373 87.5751C375.228 88.9183 377.154 87.3607 376.497 84.8848C376.105 83.4103 375.045 82.273 374.188 81.056C373.388 79.9195 372.642 78.7433 371.987 77.5163C370.705 75.11 369.747 72.429 369.758 69.6721C369.776 64.6402 373.098 58.8735 378.66 58.9474C379.057 58.9521 379.051 58.3559 378.66 58.3339ZM353.909 50.2147C354.214 49.983 353.941 49.4677 353.6 49.6851C347.925 53.2968 343.688 60.0811 342.835 66.746C342.361 70.4439 342.723 74.3958 344.297 77.8086C345.199 79.7668 346.749 81.6362 348.915 82.1731C350.906 82.6661 352.959 81.528 353.577 79.5828C353.817 78.8281 353.404 78.0387 352.782 77.6265C350.762 76.2906 349.137 74.6048 348.185 72.3371C347.196 69.9794 346.801 67.4773 346.789 64.934C346.76 58.978 349.135 53.8449 353.909 50.2147ZM284.586 52.7961C284.848 52.5048 284.518 52.0752 284.17 52.2577C280.068 54.4168 277.461 58.5527 276.714 63.0824C275.982 67.5169 276.966 73.5541 280.397 76.7613C282.333 78.5718 285.8 76.164 284.191 73.832C283.056 72.1874 281.83 70.8331 281.18 68.8898C280.601 67.1559 280.396 65.4074 280.428 63.5854C280.496 59.6104 281.916 55.7597 284.586 52.7961ZM334.746 47.243C327.737 46.909 323.489 54.9163 322.516 60.8847C321.915 64.5722 322.366 68.3702 324.401 71.5685L324.521 71.7547C326.2 74.3097 329.252 77.2514 332.541 76.0416C333.933 75.53 334.303 74.0379 333.368 72.9059C331.937 71.1732 329.726 70.467 328.381 68.6169C326.871 66.542 326.377 63.9425 326.464 61.4193L326.476 61.1405C326.71 56.4991 328.922 47.5907 334.746 47.7484C335.073 47.7568 335.069 47.258 334.746 47.243ZM312.821 45.9126C306.041 45.0454 301.912 53.0271 300.638 58.5254C299.843 61.9628 299.669 65.7973 300.686 69.2089L300.762 69.4519C301.59 71.998 304.033 76.3606 307.223 75.0594C308.097 74.703 308.989 73.732 308.57 72.6851C308.036 71.3469 307.265 70.9997 306.237 70.1434C305.446 69.4841 304.893 68.5377 304.486 67.6055C303.402 65.1211 303.161 62.2187 303.309 59.5415L303.329 59.2246C303.712 53.9954 306.546 46.2022 312.821 46.3456C313.107 46.3521 313.088 45.9464 312.821 45.9126ZM300.408 38.4089C296.634 36.971 293.543 40.5816 291.374 43.1583C288.656 46.3871 286.191 49.8652 284.798 53.8845C283.557 57.4658 283.338 61.4477 284.456 65.0933C285.01 66.8984 285.872 68.5722 287.049 70.0455L287.199 70.2314C288.424 71.7259 289.607 72.6443 291.613 72.1092C292.43 71.891 292.775 71.0832 292.634 70.3111C292.331 68.6615 291.482 68.2331 290.381 67.0816C289.411 66.0659 288.691 64.815 288.207 63.4999C287.208 60.7869 287.156 57.8476 287.827 55.0526C288.577 51.9237 290.053 49.0343 291.761 46.3267L292.129 45.7467C293.939 42.8842 296.519 38.4759 300.336 38.9404C300.663 38.9805 300.667 38.5074 300.408 38.4089Z" fill="black"/>
<path fill-rule="evenodd" clip-rule="evenodd" d="M332.635 148.676C330.483 145.134 325.897 153.81 325.41 155.302C324.978 156.623 324.693 157.977 324.549 159.346C322.881 159.72 321.148 159.721 319.439 159.393C316.899 158.905 315.346 157.539 313.138 156.365C311.613 155.555 309.692 156.505 308.899 157.85C307.966 159.433 308.56 161.076 309.787 162.256C312.113 164.493 316.691 165.008 319.728 164.413C321.468 164.073 323.063 163.42 324.471 162.471C324.48 162.648 324.486 162.825 324.5 163.002L324.527 163.309C324.761 165.791 325.442 168.911 327.369 170.526C330.528 173.175 334.427 168.08 331.357 165.435L331.262 165.355C329.354 163.812 328.937 159.673 329.04 157.393C329.108 155.905 329.379 154.398 329.848 152.981L329.945 152.698C330.086 152.298 331.627 148.5 332.184 148.984L332.21 149.011C332.44 149.286 332.811 148.966 332.635 148.676ZM315.456 128.691C312.552 130.457 308.126 134.577 311.251 138.956C314.929 142.818 320.224 138.39 322.833 136.388C325.253 134.836 327.971 138.827 325.726 140.639C306.871 154.609 299.219 129.153 313.987 126.614C315.613 126.334 316.217 128.144 315.456 128.691ZM346.47 112.362C343.631 111.858 340.724 112.564 338.375 114.226L338.197 114.354C335.934 116.01 333.402 118.918 334.701 121.773C335.222 122.919 336.783 123.098 337.773 122.579C339.422 121.714 339.721 119.585 341.192 118.407C342.398 117.441 344.023 116.855 345.577 116.997C349.227 117.328 351.473 120.931 352.606 124.036C352.751 124.433 353.334 124.588 353.562 124.161C356.235 119.161 351.503 113.255 346.47 112.362ZM301.004 110.474C295.567 110.026 289.203 115.667 290.634 121.41C291.321 124.166 295.406 124.087 296.132 121.41C296.532 119.937 296.492 118.634 297.551 117.411C298.426 116.401 299.668 115.814 301.004 115.904C302.477 116.004 303.835 116.74 304.867 117.775C305.798 118.709 306.356 120.077 307.321 120.904C307.559 121.107 307.877 121.12 308.112 120.904C309.773 119.371 308.776 116.18 307.722 114.579C306.215 112.289 303.76 110.702 301.004 110.474ZM356.824 102.176C353.336 99.0858 346.998 96.1019 342.294 97.6225C339.59 98.4966 338.411 102.857 341.43 104.239C344.926 105.839 348.956 105.188 352.514 106.847C354.009 107.544 355.414 108.415 356.454 109.692C357.274 110.699 358.108 112.024 359.293 112.604C359.605 112.757 360.027 112.761 360.276 112.478C362.875 109.536 359.093 104.185 356.824 102.176ZM306.999 97.4692C304.844 96.8637 302.452 96.8761 300.262 97.2563C298.073 97.6366 295.85 98.5445 294.063 99.8689L293.855 100.024C291.904 101.495 289.576 103.636 289.701 106.242C289.805 108.419 292.093 109.891 294.068 108.75C295.679 107.82 296.436 105.956 297.8 104.716C298.925 103.691 300.246 102.884 301.656 102.318C303.223 101.69 304.791 101.395 306.472 101.367C307.766 101.346 309.068 101.771 310.338 101.906C310.234 102.121 311.238 102.021 311.813 101.831C312.239 101.649 312.241 101.11 312.094 100.76C311.361 99.0268 308.695 97.9449 306.999 97.4692Z" fill="black"/>
</svg>
