<svg width="1766" height="1139" viewBox="0 0 1766 1139" fill="none" xmlns="http://www.w3.org/2000/svg">
<path fill-rule="evenodd" clip-rule="evenodd" d="M1417.32 499.327L1428.36 526.602L1422.28 613.055L1417.75 613.76C1369.96 621.165 1337.48 624.905 1320.32 624.982L1319.79 624.983C1302.51 624.983 1281.8 621.125 1257.67 613.408L1256.57 613.055L1253.79 548.321H1260.36L1272.24 520.472L1272.23 520.463C1272.1 520.686 1271.96 520.902 1271.82 521.112C1266.86 528.437 1263.99 522.521 1252.35 525.112C1238.41 528.214 1232.23 542.293 1219.96 552.815C1214.26 557.701 1202.3 560.003 1196.58 563.362L1190.57 566.892C1171.74 577.996 1150.09 591.483 1138.72 609.054C1125.4 629.652 1116.22 649.2 1107.74 672.114C1089.45 721.503 1076.77 771.902 1067.7 823.733C1058.51 876.264 1052.99 929.447 1048.77 982.588C1046.82 1007.21 1045.16 1031.86 1043.78 1056.53L1043.45 1062.69C1042.72 1076.11 1043.35 1089.24 1055.56 1097.51C1064.31 1103.43 1075.91 1104.33 1086.18 1104.94L1086.73 1104.97C1162.6 1109.42 1238.47 1113.83 1314.34 1118.26L1428.15 1124.91C1447.09 1126.02 1466.02 1127.12 1484.96 1128.21L1531.18 1130.88C1552.96 1132.12 1574.78 1133.19 1596.59 1133.06C1624.04 1132.9 1651.36 1130.88 1678.56 1127.22L1680.95 1126.9C1698.06 1124.53 1722.87 1118.56 1725.94 1098.05C1726.38 1095.11 1723.79 1093.27 1721.61 1093.69C1722.33 1090.36 1722.77 1087.01 1723.2 1084.11C1725.02 1071.7 1726.17 1059.21 1726.73 1046.69C1727.87 1021.62 1726.91 996.434 1724.4 971.476C1720.26 930.186 1714.44 888.967 1708.43 847.892L1707.1 838.767C1700.7 795.249 1693.1 751.804 1681.19 709.415C1670.19 670.256 1653.04 629.52 1629.43 604.758C1605.82 579.997 1572.16 558.484 1537.58 545.307C1534.58 544.165 1475.07 531.142 1471.06 533.039L1470.34 532.475C1458.48 523.113 1441.55 506.667 1424.13 511.846L1424.09 511.781C1423.68 511.025 1422.07 505.973 1419.84 499.327L1417.32 499.327Z" fill="#728669"/>
<path fill-rule="evenodd" clip-rule="evenodd" d="M1404.74 463.025C1390.32 444.761 1375.13 438.954 1352.68 440.315C1337.45 439.771 1322.27 443.721 1309.38 452.447C1297.57 458.616 1287.09 467.108 1279.62 478.039C1273.22 487.385 1278.08 510.479 1272.24 520.472C1272.3 521.559 1272.33 522.551 1272.33 523.446C1272.33 532.093 1266.3 541.742 1254.26 552.394L1253.79 552.815V615.65C1274.03 621.872 1299.09 624.983 1328.98 624.983C1358.41 624.983 1389.03 620.042 1420.83 610.162L1422.28 609.709L1428.36 541.419L1422.28 522.521L1422.28 506.693L1419.93 499.613C1415.77 487.165 1409.4 468.933 1404.74 463.025Z" fill="#D08B5B"/>
<path fill-rule="evenodd" clip-rule="evenodd" d="M1422.28 609.709C1422.28 609.709 1368.83 625.267 1332.34 625.267C1295.85 625.267 1256.57 609.709 1256.57 609.709L1262.94 1121.84L1365.5 1123.09L1422.28 609.709Z" fill="#C5D3DC"/>
<path fill-rule="evenodd" clip-rule="evenodd" d="M1598.23 833.321C1598.63 832.582 1597.71 831.917 1597.1 832.45C1583.29 844.568 1576.05 864.029 1574.54 882.018C1572.93 901.093 1575.21 920.843 1576.08 939.91C1577.05 961.148 1577.92 982.395 1579.1 1003.62C1580.3 1025.16 1581.6 1046.69 1582.7 1068.23L1585.2 1116.69V1116.69C1585.46 1121.86 1584.89 1128.21 1586.87 1133.03C1589.94 1140.5 1599.07 1139.35 1600.99 1133.1L1601.05 1132.89L1601.23 1133.03C1602.92 1127.4 1601.65 1120.72 1601.36 1114.9L1598.75 1061.95V1061.95C1596.9 1024.53 1595.26 987.105 1593.27 949.689L1592.6 937.217C1591.67 920.428 1590.96 903.681 1590.39 886.896L1590.21 881.3C1589.66 864.448 1590.09 848.538 1598.23 833.321ZM1263.32 522.648C1255.63 521.917 1249.82 524.468 1242.83 527.156C1239.78 528.325 1236.9 529.677 1233.98 531.076C1230.33 532.829 1227.97 535.927 1225.72 539.202L1224.52 540.967C1215.14 554.696 1208.84 570.534 1201.72 585.481C1193.4 602.966 1184.99 620.412 1176.85 637.98L1172.83 646.635C1170.82 650.963 1168.81 655.293 1166.84 659.637L1163.43 667.198C1160 674.865 1156.93 682.977 1161.81 690.887C1166.35 698.244 1174.41 703.936 1180.78 709.622C1186.1 714.367 1191.42 719.112 1196.74 723.855C1185.74 734.862 1178.36 748.721 1174.02 763.584C1167.85 761.017 1160.33 760.525 1153.95 759.414C1145.03 757.859 1143.93 771.362 1152.36 771.197C1158.58 771.075 1165.87 771.71 1172.25 770.401C1171.14 775.285 1170.34 780.243 1169.83 785.214C1167.15 811.271 1173 837.48 1179.12 862.691L1179.62 864.761C1186.25 892.048 1192.55 919.407 1198.17 946.921C1203.82 974.494 1208.89 1002.18 1213.4 1029.96C1217.98 1058.24 1221.22 1086.67 1224.71 1115.1C1225.24 1119.4 1227.95 1123.09 1232.7 1123.09C1236.67 1123.09 1241.2 1119.39 1240.7 1115.1C1237.1 1084.14 1232 1053.35 1226.93 1022.61C1218.2 969.66 1207.21 917.175 1194.56 865.035L1192.35 855.955C1186.67 832.405 1181.51 808.14 1184.36 783.849C1186.68 764.069 1194.96 742.979 1211.31 730.694L1211.81 730.324C1215.63 727.524 1217.1 722.169 1213.34 718.482C1210.94 716.135 1208.54 713.791 1206.15 711.449L1191.75 697.401L1188.85 694.564C1186.43 692.202 1184 689.855 1181.49 687.58C1179.98 686.204 1175.87 683.58 1175.57 681.316C1175.37 679.839 1177.12 677.244 1177.83 675.884L1181.08 669.328V669.328C1182.93 665.59 1184.71 661.825 1186.52 658.066C1190.25 650.278 1194.04 642.514 1197.69 634.688L1219.63 587.694V587.694C1225.82 574.436 1231.33 560.44 1239.43 548.183L1241.02 545.794C1242.36 543.782 1243.53 541.846 1244.37 539.385C1245.18 537.018 1246.2 534.419 1247.69 532.399C1251.2 527.659 1257.9 524.97 1263.5 523.977C1264.31 523.832 1264.02 522.714 1263.32 522.648ZM1432.08 510.305C1431.6 510.305 1431.52 511 1431.97 511.135C1438.74 513.168 1445.2 516.448 1450.47 521.182C1452.99 523.447 1455.53 526.018 1457.09 529.068C1457.69 530.235 1458.02 531.468 1458.26 532.746L1458.34 533.174C1458.74 535.483 1459.31 536.768 1460.49 538.617L1460.69 538.931C1467.39 549.273 1472.08 560.761 1476.38 572.263L1485.73 597.343V597.343L1495.07 622.425C1498.08 630.507 1501.09 638.589 1504.11 646.671C1505.77 651.133 1507.48 655.576 1509.19 660.02C1509.93 661.945 1510.73 663.856 1511.4 665.805C1511.5 666.071 1511.79 667.675 1512.01 668.065L1511.94 668.197V668.197C1510.05 671.366 1505.03 674.014 1502.18 676.316L1492.37 684.243V684.243C1485.37 689.897 1478.2 695.391 1471.41 701.297C1467.15 705.005 1469.8 711.645 1474.56 713.194C1482.52 715.787 1490.32 718.891 1498.17 721.826C1501.34 723.011 1504.64 724.042 1507.77 725.349L1509.68 726.172C1510.42 726.507 1510.06 726.504 1510.03 727.877C1510 729.318 1509.6 730.82 1509.36 732.236C1506.72 748.206 1503.92 764.149 1500.96 780.065C1490.5 836.345 1478.01 892.215 1463.76 947.655C1456.56 975.652 1448.84 1003.51 1441.48 1031.47C1434.15 1059.35 1424.49 1086.83 1415.27 1114.14C1412.67 1121.84 1424.89 1125.15 1427.43 1117.49C1438.05 1085.37 1447.77 1052.97 1457.81 1020.68C1475.64 963.286 1489.69 904.651 1502.12 845.874C1508.28 816.744 1513.92 787.501 1519.02 758.166C1519.99 752.613 1520.93 747.056 1521.86 741.496L1523.21 733.318C1524.14 727.488 1524.67 721.416 1520.14 716.803C1515.71 712.3 1508.11 710.704 1502.28 708.592L1501.86 708.437C1498.16 707.055 1494.42 705.723 1490.7 704.349C1496.18 700.039 1501.59 695.633 1507.06 691.325C1511.46 687.849 1515.94 684.444 1520.29 680.89C1523.87 677.957 1526.79 674.192 1527.16 669.424C1527.55 664.55 1525.46 660.027 1523.77 655.557L1523.61 655.125C1521.95 650.662 1520.3 646.202 1518.59 641.756L1508.07 614.235V614.235C1501.37 596.747 1494.97 579.117 1487.93 561.765C1485.14 554.898 1482.11 548.14 1478.53 541.649C1476.8 538.518 1474.94 535.455 1472.93 532.501C1470.67 529.188 1468.62 527.573 1465.12 525.745C1459.53 522.822 1455.14 517.922 1449.53 514.909C1444.01 511.951 1438.34 510.373 1432.08 510.305ZM1413.93 479.105C1413.71 478.738 1413.15 478.901 1413.14 479.318C1412.99 488.01 1415.06 496.891 1416.33 505.485C1417.61 514.11 1418.02 523.213 1419.87 531.746C1419.9 532.143 1419.98 532.535 1420.09 532.92L1420.18 533.212V533.212C1420.96 535.603 1422.98 537.629 1425.47 538.262C1424.69 542.594 1423.95 546.933 1423.33 551.296C1422.27 558.795 1421.3 566.305 1420.34 573.817L1419.2 582.833C1418.12 591.33 1417.07 599.83 1416.03 608.331C1413.39 609.434 1410.69 610.345 1407.93 611.134C1401.58 612.952 1395.07 613.692 1388.51 614.335C1375.15 615.644 1361.69 616.251 1348.29 616.995L1345.41 617.156C1330.34 618.019 1315.19 618.173 1300.16 616.627C1292.7 615.86 1285.31 614.575 1278.04 612.752C1274.35 611.826 1270.76 610.443 1267.07 609.537C1265.85 609.237 1264.76 608.544 1263.53 607.805C1262.99 607.118 1262.22 606.597 1261.23 606.396L1260.96 606.349V606.349L1260.69 606.311L1260.6 606.269L1260.61 606.298C1259.85 606.196 1259.14 606.197 1258.46 606.289C1258.19 599.661 1257.9 593.033 1257.54 586.407C1256.55 568.609 1253.85 550.044 1257.46 532.401C1257.58 531.808 1256.78 531.599 1256.56 532.154C1249.47 550.831 1250.27 571.253 1249.91 590.91C1249.56 610.133 1249.77 629.37 1249.87 648.598C1248.49 649.184 1247.26 649.978 1246.29 651.093C1244.35 653.32 1243.79 657.192 1246.29 659.342C1247.4 660.295 1248.63 660.957 1249.93 661.416C1250 678.12 1250.12 694.825 1250.29 711.53C1247.11 713.983 1246.81 719.81 1250.41 722.231C1251 776.327 1251.99 830.424 1252.8 884.511L1254.51 997.989V997.989C1254.74 1013.11 1255.12 1028.23 1255.25 1043.34L1255.14 1043.39V1043.39L1254.77 1043.56C1254.13 1043.86 1253.18 1044.34 1252.98 1044.84C1252.93 1044.97 1252.92 1045.06 1252.93 1045.12C1251.88 1045.27 1250.85 1045.76 1249.96 1046.61C1247.75 1048.7 1248.2 1051.86 1249.96 1054L1250.43 1054.57V1054.57C1251.52 1055.9 1253.6 1056.41 1255.3 1056.14C1255.29 1065.58 1255.23 1075.01 1255.26 1084.45C1255.27 1087.33 1255.31 1090.21 1255.36 1093.09L1255.48 1100C1255.56 1103.95 1255.91 1108.96 1259.95 1110.73C1264.51 1112.73 1268.59 1111.09 1270.44 1106.46C1270.94 1105.21 1270.83 1104.04 1270.65 1102.8C1270.71 1100.94 1271 1098.78 1270.96 1097.06L1270.81 1089.85V1089.85C1270.79 1088.74 1270.74 1087.63 1270.71 1086.52L1270.84 1086.53V1086.53C1287.04 1087.32 1303.35 1086.94 1319.58 1086.93L1326.79 1086.94C1332.82 1086.94 1338.85 1086.91 1344.86 1086.68L1347.12 1086.58C1351.62 1086.37 1356.35 1086.3 1361.02 1085.9C1360.42 1090.69 1359.87 1095.48 1359.37 1100.28C1358.9 1104.82 1363.6 1108.69 1367.79 1108.69C1372.76 1108.69 1375.61 1104.78 1376.2 1100.28C1379.01 1079.03 1380.16 1057.59 1382.85 1036.34C1385.26 1017.3 1387.34 998.219 1389.46 979.144L1390.17 972.786C1397.93 903.371 1405.46 833.93 1412.67 764.455L1416.02 731.978C1419.41 699.243 1422.82 666.507 1425.69 633.725C1427.34 614.982 1428.85 596.236 1430.28 577.476C1431.32 563.693 1431.98 549.987 1432.41 536.231C1434.09 534.497 1434.94 531.965 1434.19 529.35C1433.76 527.824 1433.25 526.306 1432.71 524.791C1432.75 523.302 1432.78 521.814 1432.81 520.324C1432.84 518.913 1431.4 518.188 1430.26 518.421C1428.17 513.378 1425.88 508.377 1423.96 503.382C1420.86 495.297 1418.31 486.585 1413.93 479.105ZM1587.06 566.488C1554.65 546.189 1516.08 531.582 1477.44 533.155C1476.56 533.191 1476.31 534.529 1477.23 534.732C1497.84 539.331 1518.67 544.933 1538.18 553.086C1557.75 561.263 1576.35 572.274 1592.92 585.505C1623.5 609.918 1647.26 641.672 1662.91 677.466C1672.07 698.434 1678.5 720.571 1684.11 742.716C1690.04 766.152 1694.94 789.841 1699.01 813.672C1707.04 860.745 1711.72 908.337 1714.21 956.012C1716.74 1004.51 1715.7 1053.04 1717.5 1101.54C1717.81 1109.94 1729.83 1109.78 1730.44 1101.54C1734.53 1046.4 1732.27 990.371 1728.48 935.265C1725.08 885.727 1719.14 836.293 1709.57 787.552L1708.73 783.328C1699.79 738.233 1689 692.046 1667.37 651.208C1648.9 616.342 1620.4 587.375 1587.06 566.488ZM1137.05 782.009C1136.88 781.526 1136.24 781.532 1136.07 782.009C1132.38 792.345 1132.24 804.009 1131.26 814.904L1131.18 815.741C1130.24 825.679 1129.53 835.629 1128.87 845.587L1128.63 849.322C1125.98 889.947 1122.68 930.527 1117.69 970.938C1112.72 1011.2 1106.01 1051.17 1098.75 1091.07C1097.94 1095.52 1099.91 1100.04 1104.57 1101.32C1108.68 1102.45 1113.95 1099.92 1114.82 1095.5C1119.33 1072.6 1122.97 1049.67 1126.23 1026.57C1131.95 985.894 1136.22 945.03 1138.97 904.044C1140.35 883.46 1141.2 862.883 1141.54 842.254C1141.69 832.683 1141.44 823.088 1140.93 813.527L1140.81 811.321C1140.25 801.549 1140.31 791.329 1137.05 782.009ZM1487.22 1040.77C1486.78 1040.53 1486.25 1041.01 1486.52 1041.46C1492.8 1051.65 1501.29 1060.44 1509.49 1069.1C1518.07 1078.16 1526.43 1087.49 1535.18 1096.36C1541.51 1102.78 1551.68 1092.43 1545 1086.55C1535.62 1078.28 1525.82 1070.42 1516.27 1062.33L1512.09 1058.79C1504.26 1052.18 1496.2 1045.63 1487.22 1040.77ZM1189.18 1035.66C1189.65 1034.77 1188.58 1034.05 1187.85 1034.64C1182.79 1038.75 1178.26 1043.66 1173.37 1048C1168.53 1052.3 1163.51 1056.31 1158.35 1060.22C1153.17 1064.15 1147.88 1067.92 1142.44 1071.49C1137.93 1074.45 1133.29 1076.82 1128.57 1079.28C1126.38 1079.56 1124.36 1080.63 1122.74 1082.67C1120.17 1085.88 1119.9 1091.94 1123.46 1094.74L1124.09 1095.24V1095.24C1128.24 1098.5 1133.16 1098.89 1137.25 1095.24C1141.81 1091.16 1146.11 1086.67 1150.49 1082.36L1151.81 1081.07C1156.51 1076.5 1161.1 1071.78 1165.43 1066.85L1169.34 1062.4C1176.61 1054.11 1184.18 1045.19 1189.18 1035.66ZM1212.5 558.142C1213.34 557.584 1212.82 556.084 1211.78 556.442L1209.87 557.1C1201.91 559.867 1193.71 562.935 1186.48 567.194C1178.71 571.77 1171.54 577.222 1164.68 583.071C1150.49 595.178 1138.42 610.065 1128.16 625.582C1107.58 656.719 1094.85 692.379 1084.57 728.059C1073.61 766.103 1065.17 804.966 1058.28 843.939C1051.28 883.546 1045.88 923.51 1042.33 963.575C1040.59 983.311 1039.41 1003.06 1038.82 1022.86C1038.52 1033.05 1038.53 1043.23 1038.61 1053.42C1038.63 1056.05 1038.62 1058.67 1038.59 1061.28L1038.49 1069.15C1038.43 1074.11 1037.84 1079.34 1039.02 1084.19C1040.92 1092.01 1053.85 1090.55 1053.43 1082.56C1053.82 1079.9 1053.83 1077.16 1053.73 1074.41C1053.79 1074.05 1053.86 1073.69 1053.93 1073.32C1054.14 1072.26 1053.96 1071.29 1053.55 1070.45C1053.48 1069.13 1053.42 1067.81 1053.4 1066.52C1053.31 1061.28 1053.32 1056.05 1053.46 1050.8C1053.77 1039.74 1054.21 1028.68 1054.66 1017.63C1055.54 995.533 1056.78 973.43 1058.57 951.391C1064.81 874.677 1077.97 797.526 1100.08 723.722C1110.35 689.449 1124.51 655.805 1144.81 626.189C1153.83 613.041 1164 600.897 1175.27 589.625C1186.61 578.284 1199.11 567.001 1212.5 558.142ZM1365.5 1052.67L1363.97 1063.75C1363.2 1069.29 1362.44 1074.83 1361.72 1080.38C1356.83 1079.71 1351.83 1079.43 1347.12 1079.01C1338.86 1078.28 1330.56 1077.93 1322.28 1077.59C1305.17 1076.88 1287.97 1075.66 1270.84 1075.74C1270.67 1075.74 1270.5 1075.76 1270.34 1075.77L1269.49 1053.91V1053.91L1281.52 1053.89V1053.89C1291.72 1053.88 1301.91 1053.79 1312.11 1053.7C1321.29 1053.62 1330.48 1053.61 1339.66 1053.42L1343.6 1053.33C1350.56 1053.14 1358.25 1053.53 1365.5 1052.67ZM1268.48 1020.95C1268.97 1021 1269.47 1021.05 1270 1021.08C1272.38 1021.18 1274.78 1021.11 1277.17 1021.13C1282.25 1021.17 1287.33 1021.2 1292.41 1021.2C1302.57 1021.2 1312.72 1021.26 1322.88 1021.39C1333.34 1021.51 1343.79 1021.69 1354.24 1021.72C1359.31 1021.72 1364.36 1021.59 1369.43 1021.45C1368.61 1028.64 1367.75 1035.83 1366.81 1043C1358.94 1041.94 1350.48 1042.48 1342.79 1042.4L1341.8 1042.39C1331.3 1042.21 1320.8 1042.34 1310.31 1042.36C1299.51 1042.37 1288.72 1042.4 1277.92 1042.49L1269.05 1042.57V1042.57L1269.04 1042.12V1042.12C1268.78 1035.07 1268.61 1028.01 1268.48 1020.95ZM1373.33 986.53C1372.35 995.022 1371.42 1003.53 1370.48 1012.03C1369.86 1011.94 1369.22 1011.85 1368.58 1011.79C1363.5 1011.25 1358.44 1010.8 1353.35 1010.48C1343.2 1009.86 1333.05 1009.52 1322.88 1009.25C1312.43 1008.97 1301.97 1008.76 1291.51 1008.61C1286.43 1008.54 1281.35 1008.54 1276.27 1008.58C1273.89 1008.6 1271.48 1008.52 1269.1 1008.68C1268.82 1008.7 1268.55 1008.73 1268.28 1008.76L1268.1 995.993C1268.07 993.866 1268.04 991.738 1268 989.611C1275.86 990.095 1283.84 989.911 1291.69 989.913L1293.49 989.917C1303.35 989.962 1313.22 989.827 1323.08 989.622C1333.25 989.41 1343.4 989.078 1353.55 988.427C1357.66 988.165 1361.75 987.814 1365.84 987.363L1367.88 987.13C1369.66 986.92 1371.5 986.75 1373.33 986.53ZM1267.19 950.501C1286.1 952.001 1304.92 952.628 1323.88 952.814L1326.73 952.839C1343.48 952.966 1360.38 953.657 1377.18 953.213C1376.17 961.916 1375.17 970.619 1374.16 979.32C1371.76 979.209 1369.34 979.208 1366.99 979.123C1362.2 978.951 1357.44 978.907 1352.65 978.896C1342.79 978.874 1332.94 978.96 1323.08 978.94C1312.92 978.918 1302.76 978.747 1292.6 978.556C1284.36 978.401 1276.04 977.782 1267.78 977.804L1267.19 950.501V950.501ZM1266.39 913.371C1268.58 914.098 1271.17 914.145 1274.01 914.275L1281.33 914.64C1284.72 914.806 1288.12 914.962 1291.51 915.086C1302.83 915.5 1314.14 915.887 1325.46 916.247C1337.05 916.615 1348.7 916.828 1360.3 916.463C1365.98 916.284 1371.62 915.986 1377.28 915.513C1378.68 915.395 1380.11 915.319 1381.54 915.218C1380.22 926.749 1378.9 938.278 1377.57 949.807C1360.85 947.756 1344.01 946.479 1327.31 944.359L1312.21 942.432C1297.12 940.507 1282.05 938.618 1266.9 937.026L1266.39 913.371V913.371ZM1265.59 875.831C1268.8 876.625 1272.47 876.585 1275.55 876.78L1276.13 876.819C1281.98 877.263 1287.84 877.485 1293.71 877.629C1305.2 877.912 1316.7 878.054 1328.2 878.124L1335.11 878.167C1344.33 878.221 1353.54 878.244 1362.76 878.029C1368.68 877.892 1374.58 877.603 1380.49 877.307C1382.26 877.218 1384.07 877.159 1385.88 877.068C1384.65 887.985 1383.4 898.899 1382.15 909.814C1380.21 909.506 1378.26 909.271 1376.4 908.958C1371.64 908.153 1366.89 907.511 1362.09 906.937C1351.7 905.692 1341.26 904.797 1330.82 904.041C1320.1 903.265 1309.38 902.608 1298.66 901.857L1291.07 901.322C1288.54 901.147 1286.01 900.977 1283.47 900.822C1279.15 900.557 1274.13 900.856 1269.84 899.916C1268.68 899.432 1267.39 899.321 1266.1 899.597L1265.59 875.831V875.831ZM1264.61 831.89C1265.72 833.302 1267.39 834.043 1269.37 834.299C1279.69 835.637 1290.27 835.852 1300.68 836.483L1302.52 836.598C1313.26 837.306 1324.02 837.862 1334.77 838.433C1345.82 839.019 1356.86 839.497 1367.92 839.882C1372.61 840.045 1377.33 840.064 1382.03 840.004L1384.04 839.974C1385.98 839.941 1388 839.946 1390.02 839.88C1388.9 850.088 1387.77 860.295 1386.62 870.5C1384.56 870.275 1382.49 870.104 1380.49 869.892C1374.58 869.268 1368.68 868.651 1362.76 868.185C1351.55 867.301 1340.32 866.77 1329.09 866.214C1317.59 865.645 1306.09 865.267 1294.59 864.73C1289.01 864.47 1283.44 864.146 1277.88 863.634C1273.99 863.276 1269.36 861.95 1265.29 862.437C1265.07 852.254 1264.84 842.072 1264.61 831.89ZM1263.71 792.528C1263.88 792.8 1264.09 793.063 1264.34 793.309C1268.88 797.796 1274.48 797.45 1280.5 797.92L1280.87 797.95C1286.77 798.446 1292.68 798.918 1298.58 799.343C1310.39 800.196 1322.23 800.792 1334.05 801.323C1346.15 801.867 1358.33 802.241 1370.45 801.994C1378.21 801.835 1386.33 801.863 1394.25 801.107C1393.03 812.35 1391.81 823.591 1390.58 834.832C1388.35 834.413 1386.11 834.092 1383.99 833.758C1378.65 832.917 1373.3 832.072 1367.92 831.454C1357.18 830.217 1346.43 829.061 1335.67 828.018C1326.46 827.126 1317.26 826.22 1308.05 825.405L1302.52 824.928C1291.53 824.003 1280.39 822.479 1269.37 822.254C1267.55 822.217 1265.5 823.205 1264.45 824.765C1264.21 814.019 1263.96 803.273 1263.71 792.528ZM1262.94 760.662C1265.75 761.003 1268.77 760.809 1271.36 760.894C1277.91 761.107 1284.46 761.306 1291.01 761.499L1330.31 762.658V762.658C1343.69 763.052 1357.12 763.348 1370.51 763.159C1376.4 763.076 1382.31 763.066 1388.2 762.746L1390.16 762.628C1392.58 762.466 1395.55 762.444 1398.46 762.149L1395.03 793.88V793.88C1387.15 792.743 1379.04 792.317 1371.23 791.65L1369.56 791.503C1358.05 790.455 1346.48 789.761 1334.94 788.98C1323.1 788.18 1311.29 787.207 1299.47 786.213C1293.56 785.717 1287.66 785.222 1281.76 784.679L1281.03 784.607C1275.45 784.025 1270.21 782.787 1265.27 786.073C1264.55 786.553 1263.98 787.195 1263.59 787.913C1263.38 778.83 1263.17 769.745 1262.94 760.662ZM1262.03 723.631C1285.96 724.594 1309.9 725.324 1333.85 725.645C1347.33 725.825 1360.8 725.698 1374.28 725.417C1380.13 725.294 1386.02 725.015 1391.86 724.567L1394.05 724.392C1396.83 724.158 1399.74 723.989 1402.65 723.709C1401.45 734.619 1400.26 745.53 1399.07 756.443C1396.22 755.912 1393.23 755.668 1390.73 755.347L1390.16 755.272C1383.93 754.416 1377.65 753.917 1371.4 753.367C1359.22 752.295 1346.99 751.604 1334.78 751.017C1322.28 750.416 1309.77 749.906 1297.27 749.351L1284.76 748.791C1282.68 748.699 1280.59 748.608 1278.51 748.52C1275.53 748.395 1272.55 748.275 1269.58 748.152C1268.11 748.091 1266.58 747.892 1265.11 747.968L1264.69 747.911C1264.5 747.887 1264.33 747.867 1264.17 747.85C1263.77 747.546 1263.34 747.294 1262.89 747.102L1262.61 746.995L1262.03 723.631ZM1406.57 688.537C1405.46 698.358 1404.36 708.182 1403.28 718.007C1399.86 717.617 1396.41 717.402 1393.15 717.109C1386.58 716.52 1379.97 716.004 1373.38 715.701L1360.21 715.09C1351.42 714.684 1342.64 714.291 1333.85 713.971C1309.8 713.093 1285.74 712.088 1261.7 710.861C1261.53 704.197 1261.36 697.534 1261.18 690.871C1262.33 692.106 1264 692.919 1266.19 692.913C1291.43 692.846 1316.69 692.992 1341.92 692.577C1354.56 692.369 1367.17 692.063 1379.79 691.416C1385.96 691.099 1392.17 690.453 1398.3 689.605C1400.91 689.243 1403.77 688.985 1406.57 688.537ZM1410.61 653.54C1409.43 663.6 1408.26 673.664 1407.12 683.73C1403.98 683.171 1400.74 682.873 1397.82 682.475C1391.54 681.621 1385.22 680.941 1378.89 680.584C1366.57 679.888 1354.25 679.537 1341.92 679.276C1316.69 678.74 1291.43 678.744 1266.19 678.545C1263.82 678.526 1262.06 679.463 1260.91 680.863C1260.73 674.58 1260.55 668.298 1260.36 662.014C1262.79 661.757 1265.21 661.393 1267.45 661.237C1274.32 660.757 1281.2 660.319 1288.08 659.925C1302.43 659.101 1316.8 658.399 1331.17 657.774C1345.54 657.149 1359.91 656.539 1374.28 656.007L1380.57 655.777C1390.57 655.405 1400.73 654.936 1410.61 653.54ZM1415.13 615.65C1413.9 625.839 1412.68 636.03 1411.47 646.223L1411.1 649.378V649.378C1399.08 647.042 1386.41 646.358 1374.28 645.843C1359.91 645.231 1345.56 644.917 1331.17 644.961C1316.79 645.004 1302.44 645.344 1288.08 645.937C1280.9 646.233 1273.72 646.576 1266.55 646.965C1264.58 647.072 1262.27 647.015 1259.89 647.049C1259.83 645.448 1259.79 643.846 1259.74 642.245C1259.52 635.758 1259.3 629.271 1259.08 622.784C1263.93 625.275 1270.24 626.279 1275.11 627.341L1275.67 627.464C1283.72 629.271 1291.94 630.442 1300.16 631.158C1316.3 632.565 1332.6 632.039 1348.72 630.677L1351.55 630.435C1365.7 629.208 1380.38 627.653 1394.1 624.151C1400.64 622.484 1407.4 620.15 1413.26 616.768C1413.87 616.416 1414.49 616.044 1415.13 615.65ZM1278.82 494.564C1278.68 494.013 1277.86 493.888 1277.58 494.403C1275.68 498.022 1274.97 502.367 1273.65 506.246C1272.22 510.415 1270.89 514.616 1269.32 518.735C1266.04 527.342 1262.16 535.612 1257.55 543.584C1252.97 551.479 1265.78 557.114 1269.14 548.471C1272.62 539.553 1275.47 530.331 1277.2 520.907C1278.04 516.308 1278.8 511.647 1279.04 506.975C1279.25 502.962 1279.81 498.479 1278.82 494.564Z" fill="black"/>
<path fill-rule="evenodd" clip-rule="evenodd" d="M1176.92 321.437C1179.11 302.121 1176.27 261.749 1176.08 259.296C1174.87 243.79 1182.14 182.557 1195.87 188.199C1218.91 169.96 1249.6 165.933 1278.29 164.009C1337.89 160.012 1401.29 169.187 1447.31 209.299C1470.07 230.129 1492.23 260.426 1490.45 291.972C1511.12 321.874 1540.28 362.891 1514.51 397.848C1505.75 409.017 1491.83 413.176 1480.83 421.634C1458.7 439.484 1444.82 465.101 1422.48 482.845C1363.3 536.03 1262.81 547.141 1204.66 486.647C1159.69 442.835 1166.96 377.29 1174.87 321.437C1180.19 283.886 1172.63 359.119 1176.92 321.437Z" fill="#D08B5B"/>
<path fill-rule="evenodd" clip-rule="evenodd" d="M1357.9 82.0987C1341.96 78.882 1325.6 76.8805 1309.32 77.483L1308.07 77.5317C1295.82 78.0213 1280.31 79.1041 1269.62 86.2262C1269.01 85.6094 1268.02 85.2929 1267.12 85.7207C1254.43 91.7813 1240.46 96.1631 1227.1 100.517C1213.79 104.85 1199.98 107.71 1186.04 108.863C1180.79 109.297 1176.3 114.964 1179.62 120.046C1180.41 121.257 1181.18 122.481 1181.95 123.707C1180.66 123.573 1179.38 123.435 1178.1 123.306C1173.88 122.881 1169.66 127.385 1169.91 131.494C1170.07 134.079 1170.35 136.633 1170.76 139.156C1169.15 139.122 1167.56 139.363 1166.01 140.016C1158.19 143.317 1158.74 152.629 1159.32 159.714C1160.13 169.546 1163.81 179.96 1170.64 187.318C1165.54 192.613 1161.93 198.936 1159.78 206.446C1158.22 211.929 1157.35 217.77 1157.78 223.479L1157.92 225.188C1158.45 231.382 1159.5 238.241 1163.96 242.697C1166.24 244.995 1169.06 245.832 1171.75 245.567C1170.12 259.842 1169.08 274.2 1168.1 288.507L1167.64 295.344C1165.46 328.41 1163.81 361.69 1164.24 394.81C1164.64 425.761 1170.76 455.804 1189.74 480.935C1207.03 503.819 1231.85 520.689 1259.93 527.101C1275.06 530.563 1290.51 530.808 1305.83 528.603C1313.25 527.53 1320.73 525.886 1327.77 523.293C1335.57 520.413 1341.18 516.175 1346.43 509.823C1348.91 506.811 1347.71 500.398 1342.77 501.001C1335.3 501.907 1328.47 503 1321.3 505.211L1320.28 505.535C1313.14 507.822 1305.75 509.527 1298.28 510.252C1283 511.733 1267.48 510.242 1252.83 505.606C1228.99 498.049 1208.46 481.21 1195.29 460.052C1179.67 434.972 1177.9 406.502 1178.13 377.664C1178.37 346.02 1179.4 314.357 1181.08 282.746L1181.37 277.478C1182.26 261.211 1183.11 244.933 1183.87 228.656C1184.1 223.55 1184.46 218.404 1185.1 213.308C1191 209.856 1196.27 205.098 1199.72 199.226C1206.63 202.085 1213.9 204.148 1220.59 205.792C1236.08 209.603 1252.17 210.528 1267.94 208.142C1272.19 209.899 1276.53 211.444 1280.94 212.774C1282.13 213.302 1283.32 213.821 1284.51 214.329C1295.13 218.873 1305.9 222.723 1317.11 225.542L1319.87 226.228C1325.76 227.683 1332.17 229.115 1338.45 229.565C1339.48 229.963 1340.6 230.3 1341.81 230.596C1347.53 231.985 1353.46 232.424 1359.32 231.934C1365.03 231.454 1369.16 225.685 1366.01 220.283C1363.72 216.341 1361.4 212.409 1359.06 208.488C1367.2 211.878 1375.6 214.697 1384.07 217.086C1392.63 219.496 1401.31 221.528 1410 223.397C1414.65 224.388 1419.31 225.266 1423.95 226.256C1427.27 226.961 1432.36 227.329 1435.07 229.514C1438.06 231.914 1438.91 237.51 1440.04 240.961C1441.53 245.444 1442.93 249.947 1444.21 254.502C1446.75 263.59 1448.83 272.811 1450.45 282.124C1452.06 291.447 1453.14 300.863 1453.75 310.308C1454.35 319.744 1454.08 329.241 1455.05 338.635C1455.57 343.619 1460.92 346.182 1464.87 342.7C1465.34 342.291 1465.8 341.878 1466.27 341.461L1466.96 340.831C1470.34 337.767 1473.62 334.52 1476.32 330.864C1476.81 330.19 1477.28 329.486 1477.72 328.771C1477.79 328.771 1477.85 328.751 1477.92 328.7L1478.67 328.135C1486.93 321.988 1500.73 313.974 1508.78 324.186C1511.35 327.439 1512.66 331.582 1513.75 335.578L1515.66 342.731C1516.9 347.4 1518.07 352.096 1518.75 356.873C1520.29 367.575 1519.51 379.911 1512.15 388.489C1509.21 391.92 1505.16 394.371 1500.63 395.014C1498.11 395.361 1495.62 394.932 1493.12 394.616C1490.58 394.299 1488.13 394.81 1485.58 394.565C1481.54 394.166 1479.77 399.007 1481.28 402.05C1482.1 403.684 1483.06 405.093 1484.15 406.288C1483.28 407.043 1482.44 407.86 1481.63 408.718C1479.24 409.484 1477.1 411.128 1475.49 413.303C1474.2 415.059 1473.52 416.969 1473.41 418.981C1473.27 419.481 1473.15 419.992 1473.03 420.512L1470.84 424.068C1470.36 424.848 1469.88 425.618 1469.4 426.374C1463.82 435.156 1457.63 442.59 1449.95 449.595C1442.54 456.335 1434.51 462.37 1427.55 469.6L1426.73 470.458C1420.25 477.291 1413.42 485.562 1415.95 495.496C1416.61 498.049 1420.17 499.887 1422.5 498.162C1429.98 492.607 1433.75 483.804 1440.1 477.064C1446.64 470.121 1453.88 463.881 1460.43 456.958C1466.63 450.422 1471.52 443.019 1475.21 434.87C1476.68 436.494 1478.82 437.648 1481.79 438.097C1486.9 438.863 1491.66 435.871 1493.88 431.449C1495.31 432.082 1496.77 432.654 1498.24 433.103C1505.98 435.472 1510.85 426.864 1507.93 420.502C1506.37 417.091 1504.42 414.13 1502 411.638C1509.57 410.597 1517.27 406.686 1522.24 401.805C1534.72 389.54 1536.43 371.108 1533.62 354.719C1532.13 346.029 1529.56 337.236 1526.22 329.077C1525.64 327.658 1525.02 326.228 1524.33 324.819C1524.71 324.809 1525.1 324.646 1525.34 324.329C1527.6 321.245 1530.35 318.723 1532.02 315.271C1533.56 312.106 1535.28 308.899 1536.49 305.601C1539 298.851 1540.22 291.233 1541.04 284.095C1542.72 269.482 1542.07 254.961 1539.83 240.44C1536.03 215.708 1526.83 192.039 1513.28 171.271C1514.01 170.883 1514.72 170.415 1515.38 169.862L1515.71 169.578L1516.23 169.1C1520.1 165.6 1519.77 159.041 1516.23 155.497L1515.12 154.378C1513.71 152.974 1512.49 151.862 1510.2 150.334C1509.87 150.108 1509.52 149.896 1509.18 149.698C1510.37 147.49 1510.78 144.908 1509.95 142.06C1507.05 132.139 1492.78 132.49 1483.73 136.817C1473.72 127.883 1462.62 120.127 1450.59 113.847C1421.94 98.8968 1389.54 88.4707 1357.9 82.0987ZM1506.01 343.415C1500.66 341.668 1493.56 345.334 1488.75 347.54C1482.65 350.338 1477.46 354.474 1472.44 358.844C1469.94 361.03 1469.49 364.604 1470.11 367.657C1470.17 367.963 1470.23 368.28 1470.31 368.596C1470.97 371.854 1474.61 374.417 1477.82 374.325C1484.55 374.141 1487.76 368.331 1491.57 363.409C1492.01 364.205 1492.58 364.941 1493.27 365.492L1493.74 365.86C1495.32 367.063 1497.06 368.026 1499.15 367.933C1500.63 367.861 1502.05 367.483 1503.36 366.799C1506.63 365.073 1508.07 360.846 1507.18 357.404C1506.63 355.24 1505.36 353.544 1503.71 352.37L1504.32 351.948C1505.64 351.03 1506.85 350.062 1507.78 348.634L1508 348.296H1507.91C1508.94 346.539 1508.27 344.15 1506.01 343.415Z" fill="black"/>
<path fill-rule="evenodd" clip-rule="evenodd" d="M68.2653 1107.28C183.099 1124.74 300.015 1125.62 415.803 1119.28C461.627 1115.84 507.592 1115.23 553.379 1119.62C580.435 1121.63 699.062 1130.71 708.754 1106.45C702.654 977.269 690.299 846.989 652.398 722.749C636.811 678.635 623.424 642.02 593.002 605.515C583.414 595.548 562.737 574.644 550.89 567.826C540.625 561.921 536.335 564.027 530.441 554.052C524.585 543.033 520.265 524.63 511.949 516.854C503.481 508.937 490.933 511.77 475.379 514.32C478.237 475.663 460.413 465.818 435.858 458.467C392.696 441.976 350.069 450.261 339.206 502.861C319.063 502.861 307.749 511.539 295.517 519.877C290.517 523.285 293.995 531.969 288.023 534.648C276.973 538.587 257.446 537.622 246.806 542.469C198.424 564.512 155.332 596.476 127.033 643.159C63.5882 742.827 20.0068 952.778 27.5483 1070.91C24.2441 1076.09 28.8133 1083.53 29.9747 1089.11C31.4407 1093.96 36.1881 1097.19 41.1426 1096.64C48.0565 1104.08 58.7504 1105.74 68.2653 1107.28Z" fill="#F7CFC3"/>
<path fill-rule="evenodd" clip-rule="evenodd" d="M307.17 510.76C314.246 503.37 325.34 498.958 335.846 499.207L336.338 499.222L339.905 499.382L337.522 511.087L337.402 511.642L336.916 513.674L336.268 516.335L336.038 517.313L335.795 518.396C335.757 518.572 335.72 518.746 335.683 518.918L335.577 519.43L334.561 524.403L334.75 524.845L334.695 525.976C334.538 530.061 335.417 532.306 337.354 533.027L337.509 533.08L338.614 533.435L339.516 535.394C341.59 539.873 343.526 543.785 345.513 547.47C351.309 558.217 358.223 568.96 366.195 579.756C373.77 590.015 381.66 599.807 389.864 609.105C393.553 613.286 397.449 617.483 401.597 621.757L405.167 625.417L406.302 626.567L407.066 627.33L408.018 628.264L409.391 629.574L410.386 630.554L410.708 630.861C411.114 631.238 411.428 631.493 411.711 631.675L411.815 631.74L412.13 631.926L428.68 649.352L434.526 652.57L437.302 654.11L437.865 652.99L437.978 652.63L444.13 639.106L447.886 630.823C455.596 613.782 461.594 600.226 467.079 587.318L467.762 585.708L469.785 580.905L470.855 578.343C475.758 566.581 479.38 557.503 482.621 548.684L483.082 547.426L483.764 545.542L484.778 542.7L484.963 542.215C485.843 539.959 483.68 531.758 481.55 527.265L481.43 527.015L480.876 525.902L480.276 524.728C478.868 521.976 477.847 518.921 476.99 515.224C476.851 514.626 476.72 514.023 476.597 513.415L476.419 512.5L476.306 511.899L476.147 511.057L475.921 509.852L480.688 509.055L483.304 508.628L484.444 508.449C485.922 508.22 487.237 508.032 488.475 507.875L488.936 507.818L489.765 507.719L489.794 507.883L491.495 508.051L492.758 508.182C498.978 508.84 503.776 509.566 507.183 510.37L507.519 510.451L508.127 510.605L508.405 510.678C511.504 511.513 513.892 513.318 515.782 515.979C517.078 517.804 517.919 519.553 519.251 522.866L519.728 524.062L521.313 527.983C521.498 528.461 521.784 529.224 522.172 530.273L523.517 533.937L530.256 552.568L537.153 556.2C540.359 557.879 542.703 559.09 543.861 559.663L544.272 559.863L544.566 559.997L546.943 560.941L546.688 561.683L546.975 561.848C575.368 578.198 597.263 603.351 614.31 636.744L614.825 637.759L615.353 638.81C628.939 666.01 638.673 696.364 648.177 736.889L648.764 739.409L649.227 741.412L651.705 752.227C661.015 793.059 667.413 823.508 672.707 853.384L673.051 855.331L673.933 860.407C680.582 899.077 686.149 937.397 690.604 975.341L691.343 981.727C693.202 998.031 694.881 1014.88 696.703 1035.12L696.947 1037.84L697.749 1046.93C698.603 1056.73 699.383 1066.5 700.09 1076.26L700.437 1081.13L701.15 1091.74L701.569 1097.78L701.62 1098.59L701.79 1101.74L701.837 1102.48C701.901 1103.43 701.973 1104.23 702.064 1104.96L702.136 1105.51L702.217 1106.04C702.452 1107.48 702.917 1108.77 703.686 1110.21L703.884 1110.58L705.204 1112.94L702.812 1114.2C690.34 1120.78 665.785 1123.67 632.101 1123.82L631.077 1123.83H628.971C612.603 1123.82 595.255 1123.19 577.155 1122.11L573.061 1121.86L569.644 1121.64C568.173 1121.54 566.74 1121.44 565.255 1121.34L562.976 1121.18L553.458 1120.48C510.646 1116.38 465.748 1116.45 416.277 1120.15C287.3 1127.22 175.976 1124.24 71.3416 1108.6L68.1729 1108.13L65.8379 1107.75L64.4453 1107.51C53.3465 1105.62 46.3776 1103.18 40.9397 1098.08L40.6549 1097.81L40.4175 1097.58L40.3146 1097.58C34.8393 1097.56 29.8268 1093.97 27.967 1088.68L27.8704 1088.4L27.7477 1088L27.663 1087.61C27.5763 1087.23 27.4682 1086.82 27.3366 1086.37L27.2336 1086.03L26.3691 1083.19L29.2812 1082.66C29.5321 1082.61 29.793 1082.44 30.0461 1082.07L30.2886 1081.72L30.7086 1081.14L31.7229 1079.75C32.8034 1078.23 33.335 1077.28 33.5984 1076.32C33.8314 1075.48 33.9187 1074.39 33.8934 1072.88L33.8739 1072.14L33.7591 1069.47C33.7516 1069.26 33.7465 1069.07 33.7432 1068.89L33.7396 1068.62L33.7377 1064.85L33.7471 1060.71C33.7538 1058.91 33.7639 1057.15 33.7777 1055.42L33.8013 1052.85L33.8247 1050.77C33.965 1039.31 34.301 1027.86 34.8329 1016.42C35.8728 994.097 37.6564 971.804 40.1797 949.594C45.3897 903.744 53.3701 859.276 64.2261 816.303L65.3165 812.011C77.0547 766.086 88.372 730.68 102.757 697.939C121.052 656.297 143.359 622.025 171.446 594.626C186.889 579.561 203.991 566.846 222.165 557.093C230.523 552.608 239.406 548.628 248.932 545.048L250.298 544.539L252.501 543.733L254.192 543.108L259.639 541.07C260.784 540.641 262.03 540.16 263.504 539.58L264.416 539.22L274.171 535.324L275.791 534.686L277.592 533.985L278.916 533.476C281.081 532.65 283.041 531.929 284.861 531.293L285.936 530.922L286.912 530.593L291.076 529.151L290.994 532.942C290.94 535.462 291.589 537.368 293.03 538.736L293.078 538.779L293.128 538.819L293.172 538.849L293.424 538.842L294.408 538.837C294.51 538.781 294.605 538.715 294.694 538.64C296.094 537.449 296.745 535.853 297.377 532.192L297.545 531.174L297.837 529.266L297.953 528.544C298.374 526.004 298.741 524.601 299.454 522.996C300.485 520.676 301.847 518.417 303.451 516.341L303.826 515.865L305.323 514.062L305.553 513.777C306.078 513.104 306.347 512.629 306.46 512.193L306.487 512.075L306.636 511.317L307.17 510.76Z" fill="#FFCF77"/>
<path fill-rule="evenodd" clip-rule="evenodd" d="M543.578 564.904C542.873 564.511 543.494 563.502 544.202 563.836C578.258 579.829 604.384 607.89 622.767 640.312C641.802 673.883 652.651 711.999 662.004 749.253L662.342 750.599C672.315 790.451 680.796 830.716 688.43 871.079C696.163 911.953 702.369 953.081 707.362 994.379C709.832 1014.8 712.034 1035.25 713.751 1055.75C714.609 1065.99 715.389 1076.24 716.089 1086.5C716.369 1090.6 716.633 1094.7 716.859 1098.81L717.021 1101.88C717.161 1104.68 717.492 1107.48 716.803 1110.23C716.208 1112.61 714.952 1114.76 713.847 1116.94C711.662 1121.25 705.672 1120.54 703.317 1116.94L702.633 1115.89C701.071 1113.47 699.774 1111.23 699.284 1108.22C698.81 1105.31 698.793 1102.26 698.58 1099.32C698.189 1093.91 697.856 1088.49 697.476 1083.08C696.679 1071.69 695.783 1060.3 694.792 1048.92C692.831 1026.46 690.727 1004.02 688.144 981.619C683.554 941.81 677.794 902.107 671.004 862.615C664.37 824.036 655.983 785.849 647.233 747.709L646.327 743.764C631.007 677.175 607.396 600.49 543.578 564.904ZM180.837 825.651C181.088 824.985 182.165 824.832 182.347 825.651C184.641 835.992 184.868 846.642 185.219 857.228C185.564 867.671 185.55 878.162 185.398 888.611C184.837 927.015 183.784 965.386 182.874 1003.78C182.418 1022.99 181.991 1042.2 181.663 1061.41C181.54 1068.61 181.435 1075.82 181.349 1083.02L181.243 1092.52C181.19 1096.73 181.08 1100.88 180.568 1105.07C180.231 1107.83 179.512 1110.47 177.989 1112.83C176.909 1114.51 175.369 1115.36 173.868 1116.51L173.587 1116.72C171.673 1118.24 169.657 1118.25 167.761 1116.72L167.21 1116.29C165.399 1114.87 163.834 1113.76 162.678 1111.52C161.069 1108.4 160.812 1105.01 160.538 1101.58C160.123 1096.37 160.398 1091.08 160.452 1085.86C160.559 1075.38 160.704 1064.9 160.888 1054.42C161.562 1015.99 162.895 977.559 165.323 939.2C166.467 921.131 168.019 903.004 170.1 885.009L170.496 881.636C171.127 876.342 171.703 870.953 172.352 865.546C162.668 858.728 154.156 850.454 146.897 841.069C146.363 840.378 147.243 839.409 147.888 840.078C155.305 847.766 163.809 853.895 173.224 858.714C174.766 847.397 176.887 836.141 180.837 825.651ZM342.614 483.101C342.747 482.998 342.955 482.953 343.081 483.101C345.163 485.53 344.74 489.245 344.808 492.323L344.815 492.61C344.965 497.111 344.993 501.597 344.978 506.101L344.931 520.436V520.436C344.925 522.407 344.765 524.459 344.866 526.442L344.919 527.209V527.209C346.013 528.33 346.521 529.95 346.15 531.577C346.083 533.664 344.993 535.406 343.403 536.5L346.811 541.341V541.341L350.222 546.178C357.253 556.161 364.361 566.055 371.769 575.764C379.323 585.662 387.381 595.188 395.814 604.346C399.934 608.821 404.124 613.234 408.412 617.549C410.154 619.302 411.94 621.012 413.706 622.741L415.463 624.479C416.501 625.518 417.807 626.546 418.496 627.863C418.901 628.64 418.994 630.555 419.139 630.872C420.44 633.734 418.22 638.299 414.532 636.871L414.699 636.759C415.371 636.292 414.941 636.285 413.408 636.739C412.441 636.736 411.534 636.513 410.687 636.072L410.435 635.933C409.242 635.327 408.178 634.152 407.209 633.213L406.968 632.984C404.753 630.905 402.64 628.701 400.517 626.529C396.084 621.996 391.752 617.367 387.557 612.613C379.189 603.129 371.257 593.26 363.744 583.086C356.092 572.723 348.979 561.827 342.862 550.485C340.541 546.18 338.413 541.792 336.373 537.354C332.402 536.078 331.48 531.85 331.756 527.087C330.291 523.671 328.971 520.184 328.19 516.622C328.084 516.134 328.711 515.674 329.086 516.101C330.356 517.546 331.532 519.084 332.663 520.661C333.345 517.322 334.208 514.248 334.614 512.289L336.375 503.641V503.641C326.454 503.123 315.582 507.204 308.743 514.347C308.376 516.207 306.946 517.538 305.552 519.277C303.959 521.265 302.569 523.496 301.533 525.828C299.234 530.999 300.532 538.618 296.071 542.412C295.606 542.807 295.087 543.082 294.55 543.251C296.667 553.642 295.707 565.09 295.66 575.631L295.659 576.559C295.669 588.356 295.276 600.164 294.82 611.951L294.357 623.618C293.757 639.177 293.367 654.743 294.877 670.217C301.773 664.103 308.903 658.268 316.279 652.71C321.128 649.054 326.075 645.528 331.112 642.134L335.204 639.397C340.108 636.105 345.131 632.717 350.501 630.36C357.524 627.277 364.202 628.337 370.982 631.498C377.735 634.648 384.286 638.306 390.909 641.719C397.645 645.19 404.396 648.631 411.142 652.081C415.611 654.367 422.159 656.431 425.437 660.639C425.646 659.708 425.889 658.779 426.174 657.855C425.849 656.444 425.974 654.92 426.765 653.467C437.778 633.208 447.968 612.465 458.087 591.748C463.209 581.263 468.078 570.655 473.21 560.176L478.198 549.971C479.032 548.271 479.868 546.572 480.708 544.876C481.967 542.336 483.277 539.821 484.55 537.288C485.088 536.218 485.762 535.155 486.286 534.074L486.534 533.532C486.546 533.504 487.755 529.699 486.821 530.062L486.741 530.101C486.264 530.371 485.883 529.771 486.191 529.388C487.511 527.754 489.35 529.201 490.103 530.714C492.179 534.877 488.376 541.411 486.913 545.397L486.833 545.62C482.293 558.484 477.153 571.107 471.886 583.686C461.787 607.802 450.939 631.549 440.115 655.336L439.986 655.745V655.745C442.294 653.974 444.759 652.366 446.869 650.802C452.193 646.854 457.673 643.1 463.144 639.358C473.176 632.496 483.481 626.087 493.956 619.93L496.053 618.702C501.286 615.651 506.469 613.176 512.68 614.092C518.45 614.944 523.814 618.047 529.027 620.567L529.566 620.826L545.673 628.492C543.951 621.618 542.087 614.777 540.142 607.962C536.348 594.668 532.174 581.487 527.647 568.423C523.419 556.217 518.849 544.145 514.015 532.168L512.559 528.574C510.588 523.643 508.628 518.266 502.994 516.747C497.365 515.23 490.907 517.48 485.761 514.268C485.294 513.976 485.352 513.204 485.919 513.061L489.094 512.26C495.055 510.776 502.044 509.282 507.681 510.726C513.816 512.299 518.891 517.453 521.867 522.811C525.176 528.771 527.509 535.442 530.02 541.797L530.418 542.798C533.301 549.991 536.073 557.227 538.726 564.508C544.029 579.063 548.858 593.792 553.228 608.654C555.334 615.817 557.332 623.014 559.252 630.229C559.804 632.304 560.715 634.819 561.462 637.443C562.318 638.279 563.129 639.212 563.889 640.276C565.15 642.041 564.245 644.111 562.677 645.168C562.616 646.973 562.215 648.671 561.257 650.127C557.517 655.81 547.63 654.346 548.031 646.706C548.092 645.536 548.547 644.42 549.236 643.476L549.217 643.323V643.323L549.139 643.043V643.043C547.422 642.22 545.699 641.302 543.882 640.404L526.977 632.041V632.041C522.081 629.619 516.655 625.876 511.21 624.953C506.135 624.093 500.78 627.879 496.418 630.163L496.135 630.31C485.592 635.72 475.127 641.309 464.703 646.944C459.615 649.696 454.592 652.562 449.523 655.346C445.285 657.674 440.71 661.016 435.946 662.33C433.912 663.914 431.494 663.702 429.552 662.504C430.44 668.008 430.385 673.657 430.658 679.284C431.024 686.807 431.08 694.351 431.201 701.884L431.25 704.708C431.57 721.362 431.741 738.02 431.805 754.678C432.03 813.993 431.375 873.326 431.222 932.641C431.145 962.443 430.555 992.271 429.781 1022.06C429.453 1034.68 428.768 1047.29 428.027 1059.9L427.62 1066.77C426.758 1081.28 426.249 1095.94 423.566 1110.25C423.216 1112.12 420.061 1112.17 419.751 1110.25C417.283 1094.92 417.145 1079.25 416.671 1063.74L416.57 1060.64C416 1043.98 415.729 1027.33 415.787 1010.67C415.998 951.326 417.539 892.024 418.799 832.702C419.433 802.896 419.859 773.077 420.844 743.281C421.336 728.373 421.893 713.473 422.554 698.571C422.85 691.917 423.134 685.269 423.575 678.625L423.774 675.778C423.912 673.921 424.022 672.086 424.157 670.268C418.16 672.461 412.675 668.401 407.28 665.623C401.062 662.421 394.847 659.213 388.626 656.017L382.401 652.827V652.827L369.942 646.463C364.332 643.597 360.01 640.745 354.027 644.106C332.472 656.213 312.664 672.321 294.714 689.224C291.272 692.465 283.998 691.594 283.126 686.162C279.402 662.953 281.667 639.408 283.569 616.128L284.27 607.485C285.119 597.163 286.044 586.84 287.277 576.559C287.828 571.96 288.377 567.364 288.985 562.774L289.452 559.332C290.212 553.892 290.708 548.484 292.327 543.265C291.816 543.1 291.325 542.829 290.885 542.412C286.017 537.789 288.364 529.766 290.585 524.267C292.778 518.838 296.123 514.101 300.311 510.023C301.224 509.132 302.512 508.56 303.806 508.53C313.961 501.795 325.101 498.433 336.695 502.11C337.021 500.551 337.353 498.994 337.703 497.442L338.059 495.891C338.961 492.039 339.295 485.677 342.614 483.101ZM446.69 1091.34C449.841 1090.47 453.291 1091.38 455.6 1093.69C457.908 1096.01 458.822 1099.46 457.954 1102.61C457.52 1104.17 456.735 1105.51 455.6 1106.66C454.539 1107.71 453.301 1108.47 451.888 1108.92L451.558 1109.02L451.043 1109.23C449.464 1109.66 447.883 1109.66 446.305 1109.23C444.795 1108.81 443.484 1108.04 442.371 1106.94C441.267 1105.82 440.503 1104.51 440.079 1103C439.655 1101.42 439.655 1099.84 440.079 1098.25L440.294 1097.74V1097.74C440.729 1096.19 441.514 1094.84 442.648 1093.69C443.791 1092.56 445.138 1091.77 446.69 1091.34ZM633.796 776.985C634.314 776.39 635.153 777.152 634.832 777.785C629.923 787.418 624.453 796.982 619.076 806.37C619.507 808.972 619.934 811.553 620.425 814.069C622.52 824.792 625.086 835.321 626.758 846.146C632.77 885.057 635.892 924.389 638.57 963.649C641.256 1003.05 641.6 1042.47 642.003 1081.95C642.038 1085.37 639.409 1089.34 635.886 1089.99C634.274 1090.28 633.067 1090.23 631.457 1089.99C627.791 1089.45 625.498 1085.24 625.341 1081.95C624.289 1059.88 622.875 1037.85 621.237 1015.82C618.332 976.761 616.558 937.603 614.212 898.507L613.386 884.843C612.499 870.037 611.688 855.221 611.424 840.393C611.248 830.569 611.773 820.748 611.45 810.936C611.152 801.877 610.234 792.027 612.23 783.126C612.304 782.793 612.83 782.708 612.982 783.028C615.057 787.399 616.371 792.151 617.383 797.001C622.729 790.233 628.173 783.449 633.796 776.985ZM283.616 537.688C284.367 537.632 284.337 538.761 283.616 538.845C273.125 540.063 262.99 544.337 253.084 547.97L252.235 548.279C242.227 551.914 232.47 556.142 223.08 561.18C204.721 571.032 187.862 583.735 172.956 598.277C113.445 656.329 86.3247 740.041 66.4519 818.71C55.4103 862.418 47.5584 906.865 42.4692 951.653C39.9527 973.803 38.1736 996.037 37.1364 1018.31C36.6055 1029.72 36.2707 1041.14 36.1309 1052.57C36.0588 1058.42 36.0377 1064.27 36.0448 1070.12C36.0483 1072.81 36.5264 1076.18 35.8101 1078.79C35.1456 1081.2 33.2716 1083.32 31.8855 1085.33C30.2427 1087.72 27.2902 1087.59 25.6245 1085.33L25.0103 1084.51C23.2339 1082.15 21.4957 1079.89 21.242 1076.81C20.9704 1073.51 21.162 1070.1 21.1497 1066.78C21.1216 1060.09 21.2042 1053.4 21.3378 1046.71C21.5953 1033.9 22.0998 1021.09 22.8496 1008.29C24.372 982.316 26.8779 956.397 30.4659 930.63C36.8437 884.829 46.4035 839.465 58.9253 794.954C70.7387 752.963 84.7337 711.097 104.671 672.202C123.182 636.089 147.466 602.494 179.51 577.255C194.411 565.518 210.633 555.737 228.121 548.371C236.942 544.656 246.205 541.623 255.625 539.894C264.94 538.184 274.215 538.422 283.616 537.688ZM448.496 1017.12C450.16 1017.1 452.015 1017.47 453.443 1018.39L455.35 1019.87V1019.87C455.867 1020.53 456.381 1021.2 456.893 1021.87C458.086 1023.42 458.244 1025.94 457.996 1027.79C457.939 1029.03 457.572 1030.18 456.893 1031.25L455.441 1033.13V1033.13C454.046 1034.27 452.882 1035.08 451.192 1035.63C450.308 1035.92 449.457 1035.98 448.609 1035.94L448.326 1035.92L448.496 1035.94L448.199 1035.91V1035.91C447.923 1035.88 447.646 1035.85 447.368 1035.82C447.179 1035.79 446.989 1035.78 446.8 1035.75C446.618 1035.74 446.442 1035.73 446.259 1035.75C444.111 1035.95 441.951 1034.73 440.426 1033.33C439.052 1032.06 437.819 1029.39 438.01 1027.49L438.092 1026.7C438.237 1025.36 438.356 1024.83 438.922 1023.49C439.472 1022.18 440.241 1021.03 441.288 1020.05C443.292 1018.18 445.745 1017.13 448.496 1017.12ZM441.846 919.192C444.697 916.082 449.594 915.853 453.13 917.734C453.992 918.194 454.783 918.93 455.542 919.544C457.456 921.093 458.207 923.887 458.313 926.241C458.417 928.568 457.191 931.332 455.542 932.939L455.142 933.327V933.327C454.157 934.286 452.745 935.12 451.367 935.374C449.144 935.783 447.277 935.771 445.207 934.896C443.429 934.145 441.896 932.937 440.853 931.299L440.684 931.022C440.613 930.907 440.545 930.79 440.482 930.67L440.39 930.489C438.408 926.675 438.941 922.358 441.846 919.192ZM443.323 820.753C444.609 820.349 445.894 820.292 447.18 820.581C448.053 820.583 448.867 820.803 449.621 821.241C450.44 821.47 451.152 821.886 451.755 822.487C452.481 822.916 453.06 823.495 453.49 824.223C454.345 825.158 454.922 826.256 455.222 827.516L455.566 830.09L455.222 832.664L454.246 834.978V834.978C453.978 835.328 453.708 835.678 453.436 836.027C453.005 836.756 452.425 837.338 451.696 837.769C451.222 838.241 450.679 838.593 450.072 838.838C447.918 840.383 445.049 840.887 442.498 840.183C440.982 839.759 439.666 838.991 438.551 837.881C437.443 836.764 436.675 835.447 436.252 833.931L436.077 832.72C435.852 831.095 435.816 830.196 436.275 828.131C436.477 827.223 437.061 825.942 437.367 825.403C438.675 823.101 440.812 821.523 443.323 820.753ZM554.981 749.933C558.674 749.907 562.366 749.915 566.058 749.955L568.827 749.992C573.463 750.065 577.435 749.587 581.08 752.807C583.725 755.145 582.56 759.066 580.049 760.826C576.244 763.493 571.471 762.152 567.097 761.858C562.484 761.548 557.868 761.291 553.25 761.083C544.308 760.683 535.362 760.428 526.412 760.388C517.481 760.35 508.536 760.435 499.606 760.579C490.519 760.727 481.058 761.574 472.022 760.633C470.781 760.503 470.501 758.869 471.727 758.444C480.241 755.496 489.819 754.54 498.743 753.413C507.946 752.249 517.15 751.425 526.412 750.891C535.925 750.344 545.452 750 554.981 749.933ZM443.306 720.971L443.611 720.977C445.236 720.981 446.757 721.364 448.175 722.125L448.478 722.294L450.429 723.802C451.623 725.008 452.451 726.427 452.908 728.062L453.252 730.628V730.628C453.303 731.957 453.025 733.196 452.422 734.347C452.033 735.544 451.368 736.578 450.429 737.453C449.555 738.394 448.521 739.059 447.326 739.449C446.265 740.006 445.129 740.286 443.916 740.286L443.611 740.28C441.871 740.274 440.249 739.835 438.746 738.962L436.793 737.453V737.453C435.599 736.248 434.772 734.829 434.315 733.194L433.969 730.628V730.628C433.92 729.299 434.196 728.059 434.801 726.91C435.189 725.713 435.854 724.677 436.793 723.802C437.667 722.862 438.701 722.197 439.897 721.808C440.957 721.25 442.094 720.971 443.306 720.971V720.971ZM471.889 494.235C473.966 491.223 477.731 493.902 477.192 496.323C477.334 503.124 477.682 509.725 479.228 516.387C479.935 519.437 480.863 522.49 482.293 525.284L482.893 526.46C484.744 530.122 486.181 533.574 483.688 537.591C482.513 539.485 480.39 540.907 478.088 540.807C467.878 540.366 466.476 526.14 465.855 518.199C465.215 510.02 467.205 501.031 471.889 494.235Z" fill="black"/>
<path fill-rule="evenodd" clip-rule="evenodd" d="M564.748 243.711C555.033 208.624 517.901 193.314 484.459 190.884C393.914 181.466 301.751 231.969 261.61 313.862C229.478 376.046 228.472 441.369 297.542 476.874C301.314 478.954 305.253 481.178 309.276 483.198C312.771 486.449 316.37 489.573 320.299 492.196C357.91 516.942 404.073 527.645 448.809 525.324C514.86 523.992 538.44 479.147 552.869 421.638C568.088 364.383 576.599 302.257 564.748 243.711V243.711Z" fill="#F7CFC3"/>
<path fill-rule="evenodd" clip-rule="evenodd" d="M608.105 574.436C605.022 565.104 601.155 556.055 597.543 546.912C596.779 542.354 596.27 537.759 596.139 533.126C595.638 516.576 598.733 499.885 602.202 483.769C609.256 451.018 616.734 418.606 620.487 385.251C627.192 325.59 623.203 263.551 596.082 209.088C572.581 161.91 532.757 123.328 481.314 108.872C466.106 104.597 450.455 102.239 434.696 101.297C432.745 100.987 430.796 100.683 428.857 100.391C406.937 97.0844 384.748 95.4369 362.592 96.8626C325.851 99.2281 289.454 109.792 258.854 130.687C228.046 151.725 206.156 181.225 195.97 217.206C185.374 254.637 186.273 295.175 167.975 330.268C162.57 340.636 156.26 350.492 150.242 360.513C134.276 378.338 116.941 398.154 113.142 422.663C108.456 452.952 125.873 478.551 142.358 502.187C157.258 523.53 177.476 553.007 162.143 579.285C154.91 591.684 143.32 600.959 134.615 612.263C125.591 624.001 118.546 637.475 114.906 651.874C108.069 678.915 114.359 707.1 132.644 728.236C142.169 739.238 154.4 746.513 167.641 752.184C181.192 757.977 194.432 763.478 205.636 773.339C210.756 777.839 215.443 782.774 219.875 787.945C224.006 794.408 228.815 800.447 234.238 805.976C240.207 812.062 251.901 803.731 246.422 796.569C246.016 796.041 245.62 795.522 245.215 794.993C241.207 789.766 237.18 784.539 232.965 779.481C220.394 759.552 215.556 735.153 221.809 711.875C223.431 705.827 225.713 700.09 228.552 694.674C229.155 696.25 229.815 697.806 230.513 699.344C233.229 705.308 237.04 712.374 241.886 718.414C242.075 722.555 242.698 726.661 243.904 730.68C251.373 755.6 276.345 767.894 298.864 777.462C301.071 778.406 303.249 779.311 305.39 780.208C311.275 782.669 317.499 774.282 313.83 769.224C312.868 767.894 311.935 766.536 311.048 765.158C300.486 748.797 295.46 729.227 298.308 709.733C301.307 689.116 313.453 672.057 325.515 655.686C337.359 639.589 350.081 623.161 355.381 603.526C361.246 581.833 355.909 560.207 346.856 540.241C338.566 521.971 327.524 505.131 318.264 487.364C321.435 490.527 324.706 493.587 328.077 496.539C331.867 499.858 335.761 503.657 340.252 505.997C343.574 507.727 346.901 503.586 344.271 500.787C340.813 497.109 336.39 494.267 332.551 490.984C328.865 487.833 325.286 484.556 321.796 481.191C317.499 477.048 313.411 472.709 309.469 468.239C306.314 460.199 303.715 451.943 301.599 443.563C298.723 432.222 296.063 420.154 296.271 408.397C296.478 396.338 302.74 387.893 311.077 379.797C314.607 376.369 318.172 372.982 321.73 369.588C329.308 364.022 336.457 357.804 343.4 351.603C355.773 340.553 367.74 328.872 379.169 316.851C382.235 313.625 385.275 310.364 388.278 307.066C398.769 296.294 408.774 285.047 418.206 273.411C427.58 269.995 436.586 265.475 445.035 260.154C441.357 263.881 437.642 267.561 433.945 271.269C425.712 279.534 417.16 287.838 407.615 294.574C406.635 295.273 407.229 296.755 408.437 296.519C420.573 294.094 431.927 290.055 442.527 283.62C453.306 277.072 462.802 268.174 471.667 259.248C476.684 256.983 481.522 254.068 485.944 251.199C486.18 251.048 486.416 250.888 486.651 250.736C482.295 264.551 475.902 280.195 462.274 285.12C461.831 285.281 461.859 286.017 462.387 285.988C473.868 285.315 483.094 280.147 490.378 272.614C496.237 268.397 501.827 263.927 507.162 259.061C512.329 254.347 517.225 249.291 521.874 244.057C515.376 256.935 508.098 269.528 500.92 281.978C500.542 282.639 501.335 283.535 502.014 283.073C517.168 272.807 528.664 259.559 538.066 243.895C539.454 241.589 540.779 239.245 542.071 236.884C541.096 240.58 540.031 244.252 538.891 247.905C536.827 254.519 534.795 261.147 532.726 267.757C531.612 271.321 530.253 274.803 528.762 278.227C527.694 280.676 526.297 283.121 526.08 285.807C526.066 285.986 526.26 286.103 526.416 286.064C532.459 284.552 538.086 277.657 542.392 273.385C544.79 271.007 547.036 268.396 549.102 265.642C549.486 281.501 549.75 297.361 549.401 313.267C548.751 342.48 546.865 371.683 544.45 400.8C542.319 426.542 540.744 453.556 526.391 475.928C515.282 493.242 497.27 505.224 477.702 511.028C475.976 511.547 474.241 512.009 472.496 512.425C444.168 519.152 415.952 511.528 390.905 498.054C383.379 494.006 376.948 504.988 384.209 509.508C411.388 526.437 445.837 532.202 476.599 524.615C475.628 560.97 493.536 595.458 511.35 626.294C521.318 643.552 531.295 660.696 538.34 679.407C544.318 695.297 548.383 711.781 549.75 728.736C551.372 748.721 549.778 768.819 546.987 788.634C546.836 789.708 546.685 790.794 546.525 791.869C545.903 796.126 549.722 799.691 553.862 797.513C572.166 787.888 580.059 767.374 584.859 748.41C589.348 730.642 592.394 712.526 594.092 694.287C596.581 701.165 598.6 708.214 600.165 715.403C600.383 716.432 600.589 717.461 600.797 718.489C601.985 724.5 611.076 724.075 612.528 718.489C612.792 717.48 613.047 716.47 613.283 715.451C620.78 685.115 622.798 653.478 618.837 622.462C616.753 606.149 613.273 590.052 608.105 574.436" fill="black"/>
<path fill-rule="evenodd" clip-rule="evenodd" d="M475.164 484.684C468.18 486.715 460.683 486.897 453.564 484.799C447.107 482.896 440.476 478.707 435.724 473.165C431.502 468.241 428.768 462.258 428.875 455.872C428.887 455.142 429.147 454.533 429.547 454.061C429.977 453.552 430.577 453.203 431.221 453.051C431.882 452.895 432.582 452.95 433.178 453.222C433.717 453.468 434.179 453.886 434.468 454.497C435.198 455.46 435.926 456.41 436.656 457.333C442.529 464.616 448.216 470.058 457.046 472.01C461.837 473.07 466.622 472.6 471.013 470.984C475.713 469.253 479.961 466.211 483.291 462.319C484.795 460.559 486.571 459.841 488.308 459.829C490.277 459.815 492.222 460.734 493.688 462.202C495.128 463.645 496.093 465.606 496.181 467.658C496.257 469.458 495.672 471.339 494.117 473.017C488.992 478.544 482.35 482.593 475.164 484.684ZM474.949 393.469C482.108 397.84 493.017 408.031 485.315 418.867C476.249 428.421 463.196 417.467 456.764 412.512C450.8 408.673 444.099 418.548 449.632 423.031C496.111 457.592 514.974 394.612 478.57 388.33C474.561 387.638 473.073 392.117 474.949 393.469ZM407.976 374.237C405.674 372.759 402.968 372.252 399.968 373.622C397.623 374.693 393.512 378.263 390.65 382.955C388.693 386.165 387.304 389.931 387.593 393.854C387.66 394.765 387.325 395.436 386.797 395.933C386.379 396.325 385.776 396.613 385.068 396.704C384.466 396.78 383.793 396.711 383.246 396.539C382.205 396.213 381.654 395.535 381.446 394.981C379.442 389.637 380.306 383.673 382.551 378.293C385.581 371.033 391.085 364.951 394.69 362.99C400.86 359.633 408.139 359.479 414.317 362.898C419.577 365.809 422.866 370.508 426.137 375.297C426.832 376.315 427.522 377.326 428.235 378.319C429.665 380.309 429.807 382.282 429.253 383.974C428.64 385.848 427.076 387.43 425.121 388.258C423.314 389.024 421.216 389.131 419.36 388.345C417.793 387.681 416.354 386.386 415.443 384.189C413.91 380.49 411.355 376.408 407.976 374.237V374.237ZM524.844 382.468C523.268 383.293 522.035 383.542 520.286 383.016C519.32 382.724 518.364 382.165 517.616 381.414C516.875 380.669 516.34 379.743 516.132 378.716C515.621 376.181 514.24 373.808 512.272 372.261C510.589 370.939 508.466 370.238 506.111 370.633C503.57 371.059 501.149 372.696 499.481 374.626C498.924 375.272 498.487 376.005 498.048 376.734C497.226 378.096 496.427 379.362 495.294 380.363C494.865 380.744 494.217 381.007 493.591 381.007C493.336 381.007 493.077 380.966 492.831 380.888C490.301 378.339 489.815 376.404 489.897 374.486C489.982 372.474 490.772 370.437 492.048 368.537C495.042 364.078 500.726 360.423 504.561 359.595C509.814 358.461 515.031 359.822 519.214 362.769C523.517 365.801 526.706 370.508 527.7 375.813C527.94 377.091 527.838 378.47 527.354 379.665C526.88 380.834 526.055 381.835 524.844 382.468ZM419.561 326.705C416.408 329.789 412.677 330.267 408.903 330.692C406.805 330.931 405.131 331.123 403.483 331.496C398.955 332.523 394.479 334.069 390.395 336.296C386.126 338.624 381.474 341.431 378.127 345.028C377.331 345.884 376.581 346.782 375.83 347.682C375.145 348.503 374.485 349.293 373.789 350.055C372.99 350.93 372.232 351.847 371.477 352.761C371.011 353.533 370.919 353.723 370.825 353.921C370.683 354.218 370.519 354.55 370.331 354.906C370.074 355.395 369.773 355.929 369.457 356.414C368.932 357.299 368.65 357.543 368.407 357.653C368.003 357.833 367.62 357.922 367.248 357.874C366.9 357.829 366.572 357.661 366.247 357.386C364.629 356.012 364.152 353.758 364.201 351.366C364.275 347.735 365.608 343.716 366.837 341.245C369.695 335.503 373.659 329.534 378.425 325.249C383.863 320.357 389.813 316.654 396.646 314.103C400.893 312.516 405.81 311.06 410.437 311.244C413.768 311.377 416.947 312.371 419.572 314.854C421.185 316.378 421.959 318.546 421.959 320.713C421.959 322.922 421.155 325.145 419.561 326.705ZM531.255 354.952C531.054 355.282 530.777 355.51 530.468 355.646C530.144 355.789 529.783 355.831 529.436 355.772C529.091 355.714 528.763 355.556 528.503 355.316C528.253 355.086 528.063 354.781 527.978 354.407C525.885 345.174 521.821 338.305 513.147 333.876C508.88 331.697 503.974 330.312 499.329 329.209C497.979 328.888 496.553 328.68 495.117 328.469C490.615 327.809 486.082 327.053 483.147 323.399C481.379 321.198 480.637 318.382 481.056 315.808C481.451 313.384 482.862 311.161 485.426 309.829C491.809 306.514 499.741 309.767 506.187 312.537C506.665 312.743 507.134 312.945 507.594 313.139C513.897 315.812 519.646 319.339 524.372 324.384C528.122 328.386 531.596 334.302 532.995 340.388C534.16 345.452 533.886 350.621 531.255 354.952Z" fill="black"/>
<path fill-rule="evenodd" clip-rule="evenodd" d="M559.914 404.999C548.144 417.09 528.497 420.559 512.838 414.075C472.632 397.374 492.312 345.282 523.319 331.293C527.193 330.333 532.367 328.056 537.085 327.539C537.511 327.331 538.44 327.933 539.565 327.364C573.757 331.159 581.543 383.927 559.914 404.999M430.231 408.094C417.031 425.5 392.49 430.87 372.439 422.779C332.828 407.27 346.877 361.077 373.978 342.968C431.228 321.581 454.868 375.999 430.231 408.094M344.363 369.526C344.326 369.508 344.289 369.5 344.251 369.482C344.461 369.391 344.67 369.299 344.878 369.206C344.81 369.382 344.737 369.557 344.671 369.733C344.568 369.663 344.478 369.581 344.363 369.526M587.165 350.71C583.933 350.717 579.265 351.245 576.589 353.474C569.991 331.353 545.639 310.879 524.459 325.808C507.781 331.141 495.405 342.967 488.371 358.69C475.688 351.19 455.746 354.393 444.749 364.311C437.546 340.649 419.82 332.364 398.721 331.141C375.692 327.391 352.739 349.626 345.577 367.463C339.622 366.79 330.724 364.905 325.122 368.559C288.763 359.079 225.196 353.853 217.804 359.12C212.537 361.129 209.646 373.491 217.003 374.158C223.415 373.253 216.255 365.1 222.718 364.211C257.154 362.088 290.583 368.983 324.654 371.876C327.696 375.944 337.525 377.305 342.768 375.671C334.51 405.929 352.337 426.515 379.048 432.681C420.409 442.127 456.394 405.342 445.578 367.081C458.108 360.884 472.52 361.15 486.169 364.414C463.361 447.867 598.549 444.122 577.434 356.334C591.486 363.282 594.537 352.112 587.165 350.71" fill="black"/>
<path fill-rule="evenodd" clip-rule="evenodd" d="M1362.16 394.849C1351.01 388.138 1309.34 393.057 1276.6 394.849C1250.61 396.272 1232.04 393.452 1226.1 397.451C1212.67 406.485 1219.2 450.167 1242.33 456.141C1265.46 462.114 1351.22 470.458 1366.01 456.141C1380.79 441.823 1382.16 406.89 1362.16 394.849Z" fill="white"/>
<path fill-rule="evenodd" clip-rule="evenodd" d="M1347.72 383.295C1330.22 381.172 1313.26 386.528 1296.15 389.227C1287.12 390.652 1278.08 391.715 1268.94 392.111C1267.1 392.191 1265.26 392.238 1263.42 392.276C1263.25 390.657 1262.34 389.17 1260.38 388.28C1256.35 386.455 1253.13 385.633 1248.71 385.809C1244.66 385.968 1240.6 386.384 1236.62 387.113C1229.39 388.439 1222.12 391.448 1216.83 396.675C1204.58 408.771 1206.45 428.2 1215.91 441.375C1235.46 468.599 1271.14 469.862 1301.7 469.507L1304.52 469.47C1332.35 469.073 1372.15 473.22 1384.8 441.571C1389.45 429.933 1388.8 416.443 1383.11 405.28C1376.32 391.966 1362.03 385.032 1347.72 383.295ZM1260.8 428.623L1261.05 428.633C1273.88 429.128 1286.7 429.475 1299.54 429.702C1299.16 432.997 1298.76 436.294 1298.32 439.582C1297.96 442.17 1297.59 444.755 1297.2 447.336C1297.03 448.429 1296.42 450.127 1296.59 451.209L1296.65 451.637V451.637C1296 451.935 1295.4 452.415 1294.95 453.112C1294.8 453.353 1294.69 453.596 1294.57 453.838C1284.61 453.916 1273.88 453.723 1263.72 451.912L1263.7 451.691V451.691C1263.52 450.394 1262.98 449.521 1262.26 448.922C1261.55 444.784 1261.61 440.375 1261.34 436.271C1261.17 433.72 1260.98 431.172 1260.8 428.623ZM1309.34 429.877C1318.59 430.034 1327.84 430.155 1337.09 430.042L1341.28 429.978V429.978C1340.4 434.731 1339.43 439.468 1338.63 444.253C1337.79 449.241 1342.19 452.411 1345.99 452.283C1345.56 452.353 1345.13 452.426 1344.71 452.486C1332.83 454.164 1320.5 453.719 1308.45 453.706C1309.1 449.923 1308.84 445.655 1308.94 442.497L1308.96 442.008C1309.14 437.963 1309.27 433.92 1309.34 429.877ZM1372.15 429.004C1371.83 431.476 1371.21 433.895 1370.27 436.148C1366.33 445.663 1357.28 450.103 1347.7 451.973C1349.36 451.4 1350.68 450.022 1351.02 447.662C1351.85 441.794 1352.15 435.828 1352.17 429.87C1358.84 429.808 1365.56 429.665 1372.15 429.004ZM1226 426.973C1230.75 428.093 1236.27 427.58 1240.93 427.791C1245.3 427.99 1249.67 428.163 1254.04 428.339C1253.83 431.32 1253.63 434.299 1253.41 437.277C1253.13 441.127 1253.1 445.195 1252.37 449.028C1243.58 446.03 1235.7 441.221 1229.8 433.532C1228.32 431.617 1227.01 429.368 1226 426.973ZM1349.72 398.907C1357.63 400.779 1365.12 404.733 1369.14 411.968C1371.53 416.261 1372.58 421.349 1372.37 426.363C1365.69 425.585 1358.89 425.29 1352.12 425.046C1352.1 423.828 1352.07 422.611 1352.04 421.397L1351.93 418.285C1351.75 412.349 1351.66 404.896 1349.72 398.907ZM1308.79 399.631L1312.27 399.24C1321.94 398.139 1331.61 396.983 1341.28 397.645C1342.68 397.742 1344.1 397.894 1345.52 398.103C1343.81 404.269 1343.95 411.51 1343.24 417.614C1342.96 419.974 1342.62 422.315 1342.23 424.646L1340.55 424.568V424.568C1330.18 424.006 1319.79 423.66 1309.41 423.248C1309.41 421.299 1309.4 419.349 1309.36 417.398L1309.33 415.446C1309.21 410.463 1309.53 404.849 1308.79 399.631ZM1260.23 398.84C1270.36 400.474 1280.83 400.822 1290.78 400.834C1294.75 400.839 1298.72 400.595 1302.69 400.243C1302.43 402.356 1302.3 404.493 1302.1 406.577C1301.71 410.787 1301.26 414.991 1300.78 419.191L1300.34 422.866V422.866C1287.58 422.287 1274.82 421.662 1262.05 421.014L1260.25 420.918V420.918L1259.75 413.855C1259.41 409.146 1259.03 404.437 1258.49 399.749L1258.89 399.605V399.605C1259.36 399.411 1259.81 399.145 1260.23 398.84ZM1255.84 400.593C1255.28 407.252 1254.97 413.939 1254.56 420.609L1246.15 420.159C1244.74 420.083 1243.34 420.005 1241.94 419.924C1236.49 419.61 1229.48 417.96 1224.09 419.499C1223.68 414.601 1225.08 409.83 1229.51 406.539C1237.27 400.76 1247.15 402.818 1255.84 400.593ZM1284.58 341.065C1272.05 333.893 1240.62 326.563 1238.63 349.1C1237.71 359.471 1245.43 368.064 1254.43 371.899L1254.77 372.041C1263.22 375.512 1278.19 379.433 1285.5 371.905C1291.58 365.639 1283.51 354.405 1275.95 359.538C1272.07 362.175 1263.89 360.232 1259.56 358.977L1259.28 358.898C1254.61 357.523 1248.37 353.124 1250.3 347.365C1252.02 342.271 1259.3 341.34 1263.86 341.175C1270.67 340.931 1277.3 342.512 1284.05 343.026C1285.11 343.108 1285.44 341.561 1284.58 341.065ZM1232.69 304.825C1215.68 304.029 1205.11 322.587 1209.02 337.794C1209.69 340.417 1212.63 342.993 1215.46 342.698L1216.18 342.632C1216.54 342.597 1216.9 342.552 1217.24 342.459C1219.93 341.714 1222.34 338.916 1222.15 336.016L1222.09 335.171C1221.7 327.988 1222.48 319.711 1231.02 317.972C1238.26 316.496 1242.3 323.465 1242.39 329.88C1242.4 331.019 1243.68 331.814 1244.69 331.201C1249.93 328.016 1250.83 321.68 1248.83 316.224C1246.3 309.31 1239.96 305.165 1232.69 304.825ZM1358.86 308.805C1346.48 304.678 1333.13 311.272 1327.14 322.207C1325.04 322.815 1322.94 324.435 1323.24 326.915C1323.66 330.482 1324.29 332.731 1326.77 335.437C1330.64 339.669 1337.88 337.505 1339.49 332.295L1339.56 332.06C1341.39 325.326 1348.8 320.883 1355.56 323.24C1363.45 325.993 1363.22 334.324 1368.75 339.178C1369.4 339.748 1370.18 339.839 1370.96 339.462C1376.84 336.622 1375.79 328.075 1373.69 323.183C1370.94 316.763 1365.6 311.053 1358.86 308.805ZM1375.71 271.244C1365.68 261.017 1339.54 251.12 1332.68 270.006C1331.37 273.604 1334.15 278.454 1337.9 279.2C1344.03 280.42 1349.48 277.758 1355.57 278.236C1360.5 278.624 1365.65 280.272 1369.59 283.328C1380.52 291.79 1382.92 306.102 1390.53 316.872C1390.9 317.396 1391.62 317.176 1391.69 316.558C1393.42 300.878 1386.69 282.445 1375.71 271.244ZM1244.95 261.176C1238.3 258.827 1230.76 259.028 1224.08 261.112C1217.34 263.212 1211.15 267.2 1206.39 272.411C1204.23 274.776 1202.23 277.387 1200.62 280.165C1199.77 281.638 1198.87 284.68 1197.9 286.491C1192.66 289.516 1190.42 296.41 1195.12 301.314L1195.33 301.529L1195.95 302.152C1198.48 304.648 1202.28 305.729 1205.72 304.732C1213.43 302.504 1214.36 296.437 1217.03 289.998C1218.79 285.744 1221.81 281.981 1225.47 279.216C1234.12 272.685 1248.3 270.605 1258.71 273.682C1259.27 273.847 1259.92 273.14 1259.52 272.628C1257.55 270.073 1256.41 267.976 1253.77 265.914C1251.09 263.822 1248.16 262.311 1244.95 261.176Z" fill="black"/>
<path d="M875 492C875 464.386 852.614 442 825 442C797.386 442 775 464.386 775 492H875ZM873 540.5L850.269 585.034L873 596.637L895.731 585.034L873 540.5ZM971 492C971 464.386 948.614 442 921 442C893.386 442 871 464.386 871 492H971ZM775 492C775 514.341 785.789 531.274 793.331 540.78C801.447 551.01 811.049 559.205 818.735 565.05C826.707 571.112 834.412 575.988 839.973 579.29C842.805 580.971 845.206 582.318 846.972 583.283C847.858 583.766 848.591 584.158 849.147 584.451C849.425 584.598 849.66 584.72 849.848 584.817C849.942 584.866 850.024 584.909 850.094 584.945C850.129 584.963 850.162 584.979 850.191 584.994C850.205 585.002 850.219 585.009 850.232 585.015C850.239 585.019 850.248 585.023 850.251 585.025C850.26 585.03 850.269 585.034 873 540.5C895.731 495.966 895.739 495.97 895.748 495.974C895.75 495.976 895.758 495.98 895.763 495.982C895.774 495.987 895.783 495.992 895.792 495.997C895.809 496.006 895.824 496.013 895.836 496.02C895.86 496.032 895.874 496.039 895.877 496.041C895.883 496.044 895.848 496.026 895.775 495.987C895.628 495.91 895.33 495.751 894.903 495.518C894.044 495.049 892.695 494.295 891.027 493.304C887.588 491.262 883.293 488.513 879.265 485.45C874.951 482.17 872.553 479.74 871.669 478.627C870.211 476.788 875 481.659 875 492H775ZM873 540.5C895.731 585.034 895.74 585.03 895.749 585.025C895.752 585.023 895.761 585.019 895.768 585.015C895.781 585.009 895.795 585.002 895.809 584.994C895.838 584.979 895.871 584.963 895.906 584.945C895.976 584.909 896.058 584.866 896.152 584.817C896.34 584.72 896.575 584.598 896.853 584.451C897.409 584.158 898.142 583.766 899.028 583.283C900.794 582.318 903.195 580.971 906.027 579.29C911.588 575.988 919.293 571.112 927.265 565.05C934.951 559.205 944.553 551.01 952.669 540.78C960.211 531.274 971 514.341 971 492H871C871 481.659 875.789 476.788 874.331 478.627C873.447 479.74 871.049 482.17 866.735 485.45C862.707 488.513 858.412 491.262 854.973 493.304C853.305 494.295 851.956 495.049 851.097 495.518C850.67 495.751 850.372 495.91 850.225 495.987C850.152 496.026 850.117 496.044 850.123 496.041C850.126 496.039 850.14 496.032 850.164 496.02C850.176 496.013 850.191 496.006 850.208 495.997C850.217 495.992 850.226 495.987 850.237 495.982C850.242 495.98 850.25 495.976 850.252 495.974C850.261 495.97 850.269 495.966 873 540.5Z" fill="#F23232"/>
</svg>
